%TF.GenerationSoftware,KiCad,Pcbnew,(5.1.10)-1*%
%TF.CreationDate,2021-05-16T15:19:33-05:00*%
%TF.ProjectId,rpi-pico-debugger-shoe,7270692d-7069-4636-9f2d-646562756767,v01*%
%TF.SameCoordinates,Original*%
%TF.FileFunction,Copper,L2,Bot*%
%TF.FilePolarity,Positive*%
%FSLAX46Y46*%
G04 Gerber Fmt 4.6, Leading zero omitted, Abs format (unit mm)*
G04 Created by KiCad (PCBNEW (5.1.10)-1) date 2021-05-16 15:19:33*
%MOMM*%
%LPD*%
G01*
G04 APERTURE LIST*
%TA.AperFunction,NonConductor*%
%ADD10C,0.150000*%
%TD*%
%TA.AperFunction,EtchedComponent*%
%ADD11C,0.100000*%
%TD*%
%TA.AperFunction,ComponentPad*%
%ADD12R,1.700000X1.700000*%
%TD*%
%TA.AperFunction,ComponentPad*%
%ADD13O,1.700000X1.700000*%
%TD*%
%TA.AperFunction,ComponentPad*%
%ADD14C,1.800000*%
%TD*%
%TA.AperFunction,SMDPad,CuDef*%
%ADD15C,0.100000*%
%TD*%
%TA.AperFunction,ViaPad*%
%ADD16C,0.508000*%
%TD*%
%TA.AperFunction,Conductor*%
%ADD17C,0.300000*%
%TD*%
%TA.AperFunction,Conductor*%
%ADD18C,0.180000*%
%TD*%
%TA.AperFunction,Conductor*%
%ADD19C,0.100000*%
%TD*%
G04 APERTURE END LIST*
D10*
X138690476Y-76685714D02*
X138452380Y-77352380D01*
X138214285Y-76685714D01*
X137642857Y-76352380D02*
X137547619Y-76352380D01*
X137452380Y-76400000D01*
X137404761Y-76447619D01*
X137357142Y-76542857D01*
X137309523Y-76733333D01*
X137309523Y-76971428D01*
X137357142Y-77161904D01*
X137404761Y-77257142D01*
X137452380Y-77304761D01*
X137547619Y-77352380D01*
X137642857Y-77352380D01*
X137738095Y-77304761D01*
X137785714Y-77257142D01*
X137833333Y-77161904D01*
X137880952Y-76971428D01*
X137880952Y-76733333D01*
X137833333Y-76542857D01*
X137785714Y-76447619D01*
X137738095Y-76400000D01*
X137642857Y-76352380D01*
X136357142Y-77352380D02*
X136928571Y-77352380D01*
X136642857Y-77352380D02*
X136642857Y-76352380D01*
X136738095Y-76495238D01*
X136833333Y-76590476D01*
X136928571Y-76638095D01*
D11*
%TO.C,JP3*%
G36*
X141750000Y-82200000D02*
G01*
X142250000Y-82200000D01*
X142250000Y-82800000D01*
X141750000Y-82800000D01*
X141750000Y-82200000D01*
G37*
%TO.C,JP2*%
G36*
X132750000Y-83200000D02*
G01*
X133250000Y-83200000D01*
X133250000Y-83800000D01*
X132750000Y-83800000D01*
X132750000Y-83200000D01*
G37*
%TO.C,JP1*%
G36*
X132750000Y-80700000D02*
G01*
X133250000Y-80700000D01*
X133250000Y-81300000D01*
X132750000Y-81300000D01*
X132750000Y-80700000D01*
G37*
%TD*%
D12*
%TO.P,J8,1*%
%TO.N,Net-(J8-Pad1)*%
X128610000Y-77370000D03*
D13*
%TO.P,J8,2*%
%TO.N,Net-(J8-Pad2)*%
X128610000Y-79910000D03*
%TD*%
D12*
%TO.P,J7,1*%
%TO.N,/TARGET_SWCLK*%
X134960000Y-129210000D03*
D13*
%TO.P,J7,2*%
%TO.N,GND*%
X137500000Y-129210000D03*
%TO.P,J7,3*%
%TO.N,/TARGET_SWDIO*%
X140040000Y-129210000D03*
%TD*%
D12*
%TO.P,J6,1*%
%TO.N,/TARGET_SWCLK*%
X134960000Y-125400000D03*
D13*
%TO.P,J6,2*%
%TO.N,GND*%
X137500000Y-125400000D03*
%TO.P,J6,3*%
%TO.N,/TARGET_SWDIO*%
X140040000Y-125400000D03*
%TD*%
D12*
%TO.P,J5,1*%
%TO.N,Net-(J5-Pad1)*%
X146390000Y-77370000D03*
D13*
%TO.P,J5,2*%
%TO.N,Net-(J5-Pad2)*%
X146390000Y-79910000D03*
%TO.P,J5,3*%
%TO.N,GND*%
X146390000Y-82450000D03*
%TO.P,J5,4*%
%TO.N,Net-(J5-Pad4)*%
X146390000Y-84990000D03*
%TO.P,J5,5*%
%TO.N,Net-(J5-Pad5)*%
X146390000Y-87530000D03*
%TO.P,J5,6*%
%TO.N,Net-(J5-Pad6)*%
X146390000Y-90070000D03*
%TO.P,J5,7*%
%TO.N,Net-(J5-Pad7)*%
X146390000Y-92610000D03*
%TO.P,J5,8*%
%TO.N,GND*%
X146390000Y-95150000D03*
%TO.P,J5,9*%
%TO.N,Net-(J5-Pad9)*%
X146390000Y-97690000D03*
%TO.P,J5,10*%
%TO.N,Net-(J5-Pad10)*%
X146390000Y-100230000D03*
%TO.P,J5,11*%
%TO.N,Net-(J5-Pad11)*%
X146390000Y-102770000D03*
%TO.P,J5,12*%
%TO.N,Net-(J5-Pad12)*%
X146390000Y-105310000D03*
%TO.P,J5,13*%
%TO.N,GND*%
X146390000Y-107850000D03*
%TO.P,J5,14*%
%TO.N,Net-(J5-Pad14)*%
X146390000Y-110390000D03*
%TO.P,J5,15*%
%TO.N,Net-(J5-Pad15)*%
X146390000Y-112930000D03*
%TO.P,J5,16*%
%TO.N,Net-(J5-Pad16)*%
X146390000Y-115470000D03*
%TO.P,J5,17*%
%TO.N,Net-(J5-Pad17)*%
X146390000Y-118010000D03*
%TO.P,J5,18*%
%TO.N,GND*%
X146390000Y-120550000D03*
%TO.P,J5,19*%
%TO.N,Net-(J5-Pad19)*%
X146390000Y-123090000D03*
%TO.P,J5,20*%
%TO.N,Net-(J5-Pad20)*%
X146390000Y-125630000D03*
%TD*%
D12*
%TO.P,J4,1*%
%TO.N,GND*%
X128610000Y-82450000D03*
D13*
%TO.P,J4,2*%
%TO.N,Net-(J4-Pad2)*%
X128610000Y-84990000D03*
%TO.P,J4,3*%
%TO.N,Net-(J4-Pad3)*%
X128610000Y-87530000D03*
%TO.P,J4,4*%
%TO.N,Net-(J4-Pad4)*%
X128610000Y-90070000D03*
%TO.P,J4,5*%
%TO.N,Net-(J4-Pad5)*%
X128610000Y-92610000D03*
%TO.P,J4,6*%
%TO.N,GND*%
X128610000Y-95150000D03*
%TO.P,J4,7*%
%TO.N,Net-(J4-Pad7)*%
X128610000Y-97690000D03*
%TO.P,J4,8*%
%TO.N,Net-(J4-Pad8)*%
X128610000Y-100230000D03*
%TO.P,J4,9*%
%TO.N,Net-(J4-Pad9)*%
X128610000Y-102770000D03*
%TO.P,J4,10*%
%TO.N,Net-(J4-Pad10)*%
X128610000Y-105310000D03*
%TO.P,J4,11*%
%TO.N,GND*%
X128610000Y-107850000D03*
%TO.P,J4,12*%
%TO.N,Net-(J4-Pad12)*%
X128610000Y-110390000D03*
%TO.P,J4,13*%
%TO.N,Net-(J4-Pad13)*%
X128610000Y-112930000D03*
%TO.P,J4,14*%
%TO.N,Net-(J4-Pad14)*%
X128610000Y-115470000D03*
%TO.P,J4,15*%
%TO.N,Net-(J4-Pad15)*%
X128610000Y-118010000D03*
%TO.P,J4,16*%
%TO.N,GND*%
X128610000Y-120550000D03*
%TO.P,J4,17*%
%TO.N,Net-(J4-Pad17)*%
X128610000Y-123090000D03*
%TO.P,J4,18*%
%TO.N,Net-(J4-Pad18)*%
X128610000Y-125630000D03*
%TD*%
D12*
%TO.P,J3,1*%
%TO.N,/SWCLK*%
X134960000Y-122860000D03*
D13*
%TO.P,J3,2*%
%TO.N,GND*%
X137500000Y-122860000D03*
%TO.P,J3,3*%
%TO.N,/SWDIO*%
X140040000Y-122860000D03*
%TD*%
D12*
%TO.P,J2,1*%
%TO.N,/RUN*%
X136230000Y-120320000D03*
D13*
%TO.P,J2,2*%
%TO.N,GND*%
X138770000Y-120320000D03*
%TD*%
D14*
%TO.P,J1,S5*%
%TO.N,GND*%
X140800000Y-77400000D03*
%TO.P,J1,S6*%
X134200000Y-77400000D03*
%TD*%
%TA.AperFunction,SMDPad,CuDef*%
D15*
%TO.P,JP3,1*%
%TO.N,Net-(J5-Pad2)*%
G36*
X142150000Y-81750000D02*
G01*
X142650000Y-81750000D01*
X142650000Y-81750602D01*
X142674534Y-81750602D01*
X142723365Y-81755412D01*
X142771490Y-81764984D01*
X142818445Y-81779228D01*
X142863778Y-81798005D01*
X142907051Y-81821136D01*
X142947850Y-81848396D01*
X142985779Y-81879524D01*
X143020476Y-81914221D01*
X143051604Y-81952150D01*
X143078864Y-81992949D01*
X143101995Y-82036222D01*
X143120772Y-82081555D01*
X143135016Y-82128510D01*
X143144588Y-82176635D01*
X143149398Y-82225466D01*
X143149398Y-82250000D01*
X143150000Y-82250000D01*
X143150000Y-82750000D01*
X143149398Y-82750000D01*
X143149398Y-82774534D01*
X143144588Y-82823365D01*
X143135016Y-82871490D01*
X143120772Y-82918445D01*
X143101995Y-82963778D01*
X143078864Y-83007051D01*
X143051604Y-83047850D01*
X143020476Y-83085779D01*
X142985779Y-83120476D01*
X142947850Y-83151604D01*
X142907051Y-83178864D01*
X142863778Y-83201995D01*
X142818445Y-83220772D01*
X142771490Y-83235016D01*
X142723365Y-83244588D01*
X142674534Y-83249398D01*
X142650000Y-83249398D01*
X142650000Y-83250000D01*
X142150000Y-83250000D01*
X142150000Y-81750000D01*
G37*
%TD.AperFunction*%
%TA.AperFunction,SMDPad,CuDef*%
%TO.P,JP3,2*%
%TO.N,/VSYS*%
G36*
X141350000Y-83249398D02*
G01*
X141325466Y-83249398D01*
X141276635Y-83244588D01*
X141228510Y-83235016D01*
X141181555Y-83220772D01*
X141136222Y-83201995D01*
X141092949Y-83178864D01*
X141052150Y-83151604D01*
X141014221Y-83120476D01*
X140979524Y-83085779D01*
X140948396Y-83047850D01*
X140921136Y-83007051D01*
X140898005Y-82963778D01*
X140879228Y-82918445D01*
X140864984Y-82871490D01*
X140855412Y-82823365D01*
X140850602Y-82774534D01*
X140850602Y-82750000D01*
X140850000Y-82750000D01*
X140850000Y-82250000D01*
X140850602Y-82250000D01*
X140850602Y-82225466D01*
X140855412Y-82176635D01*
X140864984Y-82128510D01*
X140879228Y-82081555D01*
X140898005Y-82036222D01*
X140921136Y-81992949D01*
X140948396Y-81952150D01*
X140979524Y-81914221D01*
X141014221Y-81879524D01*
X141052150Y-81848396D01*
X141092949Y-81821136D01*
X141136222Y-81798005D01*
X141181555Y-81779228D01*
X141228510Y-81764984D01*
X141276635Y-81755412D01*
X141325466Y-81750602D01*
X141350000Y-81750602D01*
X141350000Y-81750000D01*
X141850000Y-81750000D01*
X141850000Y-83250000D01*
X141350000Y-83250000D01*
X141350000Y-83249398D01*
G37*
%TD.AperFunction*%
%TD*%
%TA.AperFunction,SMDPad,CuDef*%
%TO.P,JP2,1*%
%TO.N,/TARGET_RX*%
G36*
X133150000Y-82750000D02*
G01*
X133650000Y-82750000D01*
X133650000Y-82750602D01*
X133674534Y-82750602D01*
X133723365Y-82755412D01*
X133771490Y-82764984D01*
X133818445Y-82779228D01*
X133863778Y-82798005D01*
X133907051Y-82821136D01*
X133947850Y-82848396D01*
X133985779Y-82879524D01*
X134020476Y-82914221D01*
X134051604Y-82952150D01*
X134078864Y-82992949D01*
X134101995Y-83036222D01*
X134120772Y-83081555D01*
X134135016Y-83128510D01*
X134144588Y-83176635D01*
X134149398Y-83225466D01*
X134149398Y-83250000D01*
X134150000Y-83250000D01*
X134150000Y-83750000D01*
X134149398Y-83750000D01*
X134149398Y-83774534D01*
X134144588Y-83823365D01*
X134135016Y-83871490D01*
X134120772Y-83918445D01*
X134101995Y-83963778D01*
X134078864Y-84007051D01*
X134051604Y-84047850D01*
X134020476Y-84085779D01*
X133985779Y-84120476D01*
X133947850Y-84151604D01*
X133907051Y-84178864D01*
X133863778Y-84201995D01*
X133818445Y-84220772D01*
X133771490Y-84235016D01*
X133723365Y-84244588D01*
X133674534Y-84249398D01*
X133650000Y-84249398D01*
X133650000Y-84250000D01*
X133150000Y-84250000D01*
X133150000Y-82750000D01*
G37*
%TD.AperFunction*%
%TA.AperFunction,SMDPad,CuDef*%
%TO.P,JP2,2*%
%TO.N,Net-(J8-Pad2)*%
G36*
X132350000Y-84249398D02*
G01*
X132325466Y-84249398D01*
X132276635Y-84244588D01*
X132228510Y-84235016D01*
X132181555Y-84220772D01*
X132136222Y-84201995D01*
X132092949Y-84178864D01*
X132052150Y-84151604D01*
X132014221Y-84120476D01*
X131979524Y-84085779D01*
X131948396Y-84047850D01*
X131921136Y-84007051D01*
X131898005Y-83963778D01*
X131879228Y-83918445D01*
X131864984Y-83871490D01*
X131855412Y-83823365D01*
X131850602Y-83774534D01*
X131850602Y-83750000D01*
X131850000Y-83750000D01*
X131850000Y-83250000D01*
X131850602Y-83250000D01*
X131850602Y-83225466D01*
X131855412Y-83176635D01*
X131864984Y-83128510D01*
X131879228Y-83081555D01*
X131898005Y-83036222D01*
X131921136Y-82992949D01*
X131948396Y-82952150D01*
X131979524Y-82914221D01*
X132014221Y-82879524D01*
X132052150Y-82848396D01*
X132092949Y-82821136D01*
X132136222Y-82798005D01*
X132181555Y-82779228D01*
X132228510Y-82764984D01*
X132276635Y-82755412D01*
X132325466Y-82750602D01*
X132350000Y-82750602D01*
X132350000Y-82750000D01*
X132850000Y-82750000D01*
X132850000Y-84250000D01*
X132350000Y-84250000D01*
X132350000Y-84249398D01*
G37*
%TD.AperFunction*%
%TD*%
%TA.AperFunction,SMDPad,CuDef*%
%TO.P,JP1,1*%
%TO.N,/TARGET_TX*%
G36*
X133150000Y-80250000D02*
G01*
X133650000Y-80250000D01*
X133650000Y-80250602D01*
X133674534Y-80250602D01*
X133723365Y-80255412D01*
X133771490Y-80264984D01*
X133818445Y-80279228D01*
X133863778Y-80298005D01*
X133907051Y-80321136D01*
X133947850Y-80348396D01*
X133985779Y-80379524D01*
X134020476Y-80414221D01*
X134051604Y-80452150D01*
X134078864Y-80492949D01*
X134101995Y-80536222D01*
X134120772Y-80581555D01*
X134135016Y-80628510D01*
X134144588Y-80676635D01*
X134149398Y-80725466D01*
X134149398Y-80750000D01*
X134150000Y-80750000D01*
X134150000Y-81250000D01*
X134149398Y-81250000D01*
X134149398Y-81274534D01*
X134144588Y-81323365D01*
X134135016Y-81371490D01*
X134120772Y-81418445D01*
X134101995Y-81463778D01*
X134078864Y-81507051D01*
X134051604Y-81547850D01*
X134020476Y-81585779D01*
X133985779Y-81620476D01*
X133947850Y-81651604D01*
X133907051Y-81678864D01*
X133863778Y-81701995D01*
X133818445Y-81720772D01*
X133771490Y-81735016D01*
X133723365Y-81744588D01*
X133674534Y-81749398D01*
X133650000Y-81749398D01*
X133650000Y-81750000D01*
X133150000Y-81750000D01*
X133150000Y-80250000D01*
G37*
%TD.AperFunction*%
%TA.AperFunction,SMDPad,CuDef*%
%TO.P,JP1,2*%
%TO.N,Net-(J8-Pad1)*%
G36*
X132350000Y-81749398D02*
G01*
X132325466Y-81749398D01*
X132276635Y-81744588D01*
X132228510Y-81735016D01*
X132181555Y-81720772D01*
X132136222Y-81701995D01*
X132092949Y-81678864D01*
X132052150Y-81651604D01*
X132014221Y-81620476D01*
X131979524Y-81585779D01*
X131948396Y-81547850D01*
X131921136Y-81507051D01*
X131898005Y-81463778D01*
X131879228Y-81418445D01*
X131864984Y-81371490D01*
X131855412Y-81323365D01*
X131850602Y-81274534D01*
X131850602Y-81250000D01*
X131850000Y-81250000D01*
X131850000Y-80750000D01*
X131850602Y-80750000D01*
X131850602Y-80725466D01*
X131855412Y-80676635D01*
X131864984Y-80628510D01*
X131879228Y-80581555D01*
X131898005Y-80536222D01*
X131921136Y-80492949D01*
X131948396Y-80452150D01*
X131979524Y-80414221D01*
X132014221Y-80379524D01*
X132052150Y-80348396D01*
X132092949Y-80321136D01*
X132136222Y-80298005D01*
X132181555Y-80279228D01*
X132228510Y-80264984D01*
X132276635Y-80255412D01*
X132325466Y-80250602D01*
X132350000Y-80250602D01*
X132350000Y-80250000D01*
X132850000Y-80250000D01*
X132850000Y-81750000D01*
X132350000Y-81750000D01*
X132350000Y-81749398D01*
G37*
%TD.AperFunction*%
%TD*%
D16*
%TO.N,GND*%
X138500000Y-103750000D03*
X137500000Y-105250000D03*
X136500000Y-105250000D03*
X136500000Y-104500000D03*
X138500000Y-104500000D03*
X137500000Y-104500000D03*
X140062500Y-111352500D03*
X134200000Y-107800000D03*
X133000000Y-102700000D03*
X137160000Y-106920000D03*
X142000000Y-105000000D03*
X142000000Y-101000000D03*
X139500000Y-92500000D03*
X141000000Y-91500000D03*
X141000000Y-94000000D03*
X143000000Y-96500000D03*
X136400000Y-82000000D03*
X139100000Y-83300000D03*
X139300000Y-81550000D03*
X143000000Y-98900000D03*
X144150000Y-112600000D03*
X144200000Y-114750000D03*
X133500000Y-122250000D03*
X131650000Y-120200000D03*
X132300000Y-115650000D03*
X131600000Y-112700000D03*
X134100000Y-111300000D03*
X138300000Y-114500000D03*
X135700000Y-115400000D03*
X141200000Y-114800000D03*
X140900000Y-115650000D03*
X133450000Y-129500000D03*
X141550000Y-129500000D03*
X130100000Y-127100000D03*
X144900000Y-127100000D03*
X140650000Y-117950000D03*
X137500000Y-118200000D03*
X143000000Y-81050000D03*
X143950000Y-84150000D03*
X132150000Y-88250000D03*
X131950000Y-86500000D03*
X144050000Y-90150000D03*
X144550000Y-88300000D03*
X144900000Y-80250000D03*
X141800000Y-122500000D03*
X131950000Y-100650000D03*
X132600000Y-97850000D03*
%TO.N,+3V3*%
X133339998Y-108430000D03*
X140300000Y-112300002D03*
%TO.N,/VSYS*%
X141350000Y-84000000D03*
%TO.N,/+1.1V*%
X137900000Y-106700000D03*
X140020000Y-102000000D03*
%TO.N,/RUN*%
X141520000Y-109060000D03*
X133320000Y-118030000D03*
%TO.N,/SWDIO*%
X139912263Y-106388753D03*
%TO.N,/SWCLK*%
X139200000Y-106575990D03*
%TO.N,/TARGET_SWDIO*%
X135050000Y-107004021D03*
%TO.N,/TARGET_SWCLK*%
X135910000Y-106670000D03*
%TO.N,/TARGET_TX*%
X133099998Y-104500002D03*
%TO.N,/TARGET_RX*%
X133121758Y-103680611D03*
%TO.N,/GPIO25*%
X143510000Y-115550000D03*
X140027673Y-105669947D03*
%TO.N,/USB_BOOT*%
X139530000Y-94700002D03*
X143670000Y-94700000D03*
X130850000Y-97350000D03*
%TO.N,/QSPI_CS*%
X131510000Y-88980000D03*
X133047170Y-100621695D03*
%TO.N,/QSPI_SD1*%
X132770000Y-89060000D03*
X134969348Y-102498509D03*
%TO.N,/QSPI_SD2*%
X134011191Y-89328809D03*
X135660147Y-102268729D03*
%TO.N,/QSPI_SD0*%
X135290000Y-86810000D03*
X136371229Y-102424819D03*
%TO.N,/QSPI_SCK*%
X133930000Y-86460000D03*
X137129992Y-102305968D03*
%TO.N,/QSPI_SD3*%
X133913816Y-87543816D03*
X135930000Y-100204010D03*
%TD*%
D17*
%TO.N,+3V3*%
X133339998Y-108430000D02*
X137210000Y-112300002D01*
X137210000Y-112300002D02*
X140300000Y-112300002D01*
%TO.N,/VSYS*%
X141350000Y-82500000D02*
X141350000Y-84000000D01*
D18*
%TO.N,/+1.1V*%
X140020000Y-104860000D02*
X140020000Y-102000000D01*
X138180000Y-106700000D02*
X140020000Y-104860000D01*
X137900000Y-106700000D02*
X138180000Y-106700000D01*
%TO.N,/RUN*%
X135880000Y-118030000D02*
X133320000Y-118030000D01*
X141520000Y-112390000D02*
X135880000Y-118030000D01*
X141520000Y-109060000D02*
X141520000Y-112390000D01*
X136230000Y-118380000D02*
X135880000Y-118030000D01*
X136230000Y-120320000D02*
X136230000Y-118380000D01*
%TO.N,/SWDIO*%
X142490000Y-108607280D02*
X140271473Y-106388753D01*
X140040000Y-122860000D02*
X142490000Y-120410000D01*
X142490000Y-120410000D02*
X142490000Y-108607280D01*
X140271473Y-106388753D02*
X139912263Y-106388753D01*
%TO.N,/SWCLK*%
X141120009Y-108495999D02*
X139200000Y-106575990D01*
X142084001Y-119025999D02*
X142084001Y-108804001D01*
X141775999Y-108495999D02*
X141120009Y-108495999D01*
X134960000Y-122860000D02*
X136120001Y-121699999D01*
X142084001Y-108804001D02*
X141775999Y-108495999D01*
X136120001Y-121699999D02*
X139410001Y-121699999D01*
X139410001Y-121699999D02*
X142084001Y-119025999D01*
D17*
%TO.N,Net-(J5-Pad2)*%
X143800000Y-82500000D02*
X146390000Y-79910000D01*
X142650000Y-82500000D02*
X143800000Y-82500000D01*
D18*
%TO.N,/TARGET_SWDIO*%
X130950011Y-118490011D02*
X130950011Y-118760011D01*
X133799999Y-123359999D02*
X130950011Y-120510011D01*
X130950011Y-120510011D02*
X130950011Y-118490011D01*
X133799999Y-123958001D02*
X133799999Y-123359999D01*
X133861999Y-124020001D02*
X133799999Y-123958001D01*
X138660001Y-124020001D02*
X133861999Y-124020001D01*
X140040000Y-125400000D02*
X138660001Y-124020001D01*
X140040000Y-125400000D02*
X140040000Y-129210000D01*
X131265980Y-107004021D02*
X135050000Y-107004021D01*
X130950011Y-107319990D02*
X131265980Y-107004021D01*
X130950011Y-118490011D02*
X130950011Y-107319990D01*
%TO.N,/TARGET_SWCLK*%
X134960000Y-125400000D02*
X134960000Y-129210000D01*
X133399988Y-124869988D02*
X133930000Y-125400000D01*
X133399988Y-123619988D02*
X133399988Y-124869988D01*
X135910000Y-106670000D02*
X135680011Y-106440011D01*
X130550000Y-120770000D02*
X133399988Y-123619988D01*
X133930000Y-125400000D02*
X134960000Y-125400000D01*
X130550000Y-107154301D02*
X130550000Y-120770000D01*
X135680011Y-106440011D02*
X131264290Y-106440011D01*
X131264290Y-106440011D02*
X130550000Y-107154301D01*
%TO.N,Net-(J8-Pad2)*%
X128610000Y-79910000D02*
X130690000Y-81990000D01*
X130690000Y-81990000D02*
X130690000Y-83210000D01*
X130980000Y-83500000D02*
X132350000Y-83500000D01*
X130690000Y-83210000D02*
X130980000Y-83500000D01*
%TO.N,Net-(J8-Pad1)*%
X130980000Y-81000000D02*
X132350000Y-81000000D01*
X130090000Y-80110000D02*
X130980000Y-81000000D01*
X130090000Y-78850000D02*
X130090000Y-80110000D01*
X128610000Y-77370000D02*
X130090000Y-78850000D01*
%TO.N,/TARGET_TX*%
X133650000Y-81000000D02*
X133650000Y-81190000D01*
X134104064Y-81454064D02*
X133650000Y-81000000D01*
X136320000Y-98550000D02*
X136320000Y-83670000D01*
X138500000Y-100730000D02*
X136320000Y-98550000D01*
X133930000Y-103670000D02*
X137720000Y-103670000D01*
X136320000Y-83670000D02*
X134104064Y-81454064D01*
X133099998Y-104500002D02*
X133930000Y-103670000D01*
X137720000Y-103670000D02*
X138500000Y-102890000D01*
X138500000Y-102890000D02*
X138500000Y-100730000D01*
%TO.N,/TARGET_RX*%
X133650000Y-83500000D02*
X133650000Y-83640000D01*
X135919989Y-85769989D02*
X135919989Y-98715689D01*
X135919989Y-98715689D02*
X138094013Y-100889713D01*
X137554311Y-103269989D02*
X133532380Y-103269989D01*
X133532380Y-103269989D02*
X133121758Y-103680611D01*
X133650000Y-83500000D02*
X135919989Y-85769989D01*
X138094013Y-102730287D02*
X137554311Y-103269989D01*
X138094013Y-100889713D02*
X138094013Y-102730287D01*
%TO.N,/GPIO25*%
X143510000Y-108720790D02*
X140459157Y-105669947D01*
X140459157Y-105669947D02*
X140027673Y-105669947D01*
X143510000Y-115550000D02*
X143510000Y-108720790D01*
%TO.N,/USB_BOOT*%
X143669998Y-94700002D02*
X143670000Y-94700000D01*
X139530000Y-94700002D02*
X143669998Y-94700002D01*
X130850000Y-105600000D02*
X130850000Y-97350000D01*
X131290000Y-106040000D02*
X130850000Y-105600000D01*
X139420000Y-104894300D02*
X138274300Y-106040000D01*
X139420000Y-95310000D02*
X139420000Y-104894300D01*
X138274300Y-106040000D02*
X131290000Y-106040000D01*
X139530000Y-95200000D02*
X139420000Y-95310000D01*
X139530000Y-94700002D02*
X139530000Y-95200000D01*
%TO.N,/QSPI_CS*%
X133200000Y-100468865D02*
X133047170Y-100621695D01*
X133200000Y-90670000D02*
X133200000Y-100468865D01*
X131510000Y-88980000D02*
X133200000Y-90670000D01*
%TO.N,/QSPI_SD1*%
X133611180Y-101140341D02*
X134969348Y-102498509D01*
X133611180Y-89901180D02*
X133611180Y-101140341D01*
X132770000Y-89060000D02*
X133611180Y-89901180D01*
%TO.N,/QSPI_SD2*%
X134011191Y-100619773D02*
X135660147Y-102268729D01*
X134011191Y-89328809D02*
X134011191Y-100619773D01*
%TO.N,/QSPI_SD0*%
X137694002Y-101055402D02*
X137694002Y-102564598D01*
X136816388Y-102869978D02*
X136371229Y-102424819D01*
X137694002Y-102564598D02*
X137388622Y-102869978D01*
X135290000Y-86810000D02*
X135519978Y-87039978D01*
X135519978Y-98881378D02*
X137694002Y-101055402D01*
X137388622Y-102869978D02*
X136816388Y-102869978D01*
X135519978Y-87039978D02*
X135519978Y-98881378D01*
%TO.N,/QSPI_SCK*%
X134620000Y-99795976D02*
X137129992Y-102305968D01*
X134620000Y-89140000D02*
X134620000Y-99795976D01*
X133930000Y-86460000D02*
X133320000Y-87070000D01*
X133320000Y-87070000D02*
X133320000Y-87840000D01*
X133320000Y-87840000D02*
X134620000Y-89140000D01*
%TO.N,/QSPI_SD3*%
X133913816Y-87543816D02*
X135119967Y-88749967D01*
X135119967Y-88749967D02*
X135119967Y-99393977D01*
X135119967Y-99393977D02*
X135930000Y-100204010D01*
%TD*%
%TO.N,GND*%
X136768059Y-124500066D02*
X136606555Y-124660153D01*
X136479385Y-124848671D01*
X136391437Y-125058377D01*
X136429144Y-125236000D01*
X137336000Y-125236000D01*
X137336000Y-125216000D01*
X137664000Y-125216000D01*
X137664000Y-125236000D01*
X138570856Y-125236000D01*
X138608563Y-125058377D01*
X138520615Y-124848671D01*
X138393445Y-124660153D01*
X138231941Y-124500066D01*
X138110965Y-124420001D01*
X138494316Y-124420001D01*
X138986489Y-124912174D01*
X138924578Y-125061640D01*
X138880000Y-125285750D01*
X138880000Y-125514250D01*
X138924578Y-125738360D01*
X139012021Y-125949466D01*
X139138969Y-126139457D01*
X139300543Y-126301031D01*
X139490534Y-126427979D01*
X139640000Y-126489890D01*
X139640001Y-128120110D01*
X139490534Y-128182021D01*
X139300543Y-128308969D01*
X139138969Y-128470543D01*
X139012021Y-128660534D01*
X138924578Y-128871640D01*
X138880000Y-129095750D01*
X138880000Y-129324250D01*
X138924578Y-129548360D01*
X139012021Y-129759466D01*
X139138969Y-129949457D01*
X139300543Y-130111031D01*
X139381313Y-130165000D01*
X138148738Y-130165000D01*
X138231941Y-130109934D01*
X138393445Y-129949847D01*
X138520615Y-129761329D01*
X138608563Y-129551623D01*
X138570856Y-129374000D01*
X137664000Y-129374000D01*
X137664000Y-129394000D01*
X137336000Y-129394000D01*
X137336000Y-129374000D01*
X136429144Y-129374000D01*
X136391437Y-129551623D01*
X136479385Y-129761329D01*
X136606555Y-129949847D01*
X136768059Y-130109934D01*
X136851262Y-130165000D01*
X136102097Y-130165000D01*
X136115514Y-130120770D01*
X136121499Y-130060000D01*
X136121499Y-128868377D01*
X136391437Y-128868377D01*
X136429144Y-129046000D01*
X137336000Y-129046000D01*
X137336000Y-128139995D01*
X137664000Y-128139995D01*
X137664000Y-129046000D01*
X138570856Y-129046000D01*
X138608563Y-128868377D01*
X138520615Y-128658671D01*
X138393445Y-128470153D01*
X138231941Y-128310066D01*
X138042309Y-128184563D01*
X137841622Y-128101445D01*
X137664000Y-128139995D01*
X137336000Y-128139995D01*
X137158378Y-128101445D01*
X136957691Y-128184563D01*
X136768059Y-128310066D01*
X136606555Y-128470153D01*
X136479385Y-128658671D01*
X136391437Y-128868377D01*
X136121499Y-128868377D01*
X136121499Y-128360000D01*
X136115514Y-128299230D01*
X136097788Y-128240794D01*
X136069002Y-128186940D01*
X136030263Y-128139737D01*
X135983060Y-128100998D01*
X135929206Y-128072212D01*
X135870770Y-128054486D01*
X135810000Y-128048501D01*
X135360000Y-128048501D01*
X135360000Y-126561499D01*
X135810000Y-126561499D01*
X135870770Y-126555514D01*
X135929206Y-126537788D01*
X135983060Y-126509002D01*
X136030263Y-126470263D01*
X136069002Y-126423060D01*
X136097788Y-126369206D01*
X136115514Y-126310770D01*
X136121499Y-126250000D01*
X136121499Y-125741623D01*
X136391437Y-125741623D01*
X136479385Y-125951329D01*
X136606555Y-126139847D01*
X136768059Y-126299934D01*
X136957691Y-126425437D01*
X137158378Y-126508555D01*
X137336000Y-126470005D01*
X137336000Y-125564000D01*
X137664000Y-125564000D01*
X137664000Y-126470005D01*
X137841622Y-126508555D01*
X138042309Y-126425437D01*
X138231941Y-126299934D01*
X138393445Y-126139847D01*
X138520615Y-125951329D01*
X138608563Y-125741623D01*
X138570856Y-125564000D01*
X137664000Y-125564000D01*
X137336000Y-125564000D01*
X136429144Y-125564000D01*
X136391437Y-125741623D01*
X136121499Y-125741623D01*
X136121499Y-124550000D01*
X136115514Y-124489230D01*
X136097788Y-124430794D01*
X136092019Y-124420001D01*
X136889035Y-124420001D01*
X136768059Y-124500066D01*
%TA.AperFunction,Conductor*%
D19*
G36*
X136768059Y-124500066D02*
G01*
X136606555Y-124660153D01*
X136479385Y-124848671D01*
X136391437Y-125058377D01*
X136429144Y-125236000D01*
X137336000Y-125236000D01*
X137336000Y-125216000D01*
X137664000Y-125216000D01*
X137664000Y-125236000D01*
X138570856Y-125236000D01*
X138608563Y-125058377D01*
X138520615Y-124848671D01*
X138393445Y-124660153D01*
X138231941Y-124500066D01*
X138110965Y-124420001D01*
X138494316Y-124420001D01*
X138986489Y-124912174D01*
X138924578Y-125061640D01*
X138880000Y-125285750D01*
X138880000Y-125514250D01*
X138924578Y-125738360D01*
X139012021Y-125949466D01*
X139138969Y-126139457D01*
X139300543Y-126301031D01*
X139490534Y-126427979D01*
X139640000Y-126489890D01*
X139640001Y-128120110D01*
X139490534Y-128182021D01*
X139300543Y-128308969D01*
X139138969Y-128470543D01*
X139012021Y-128660534D01*
X138924578Y-128871640D01*
X138880000Y-129095750D01*
X138880000Y-129324250D01*
X138924578Y-129548360D01*
X139012021Y-129759466D01*
X139138969Y-129949457D01*
X139300543Y-130111031D01*
X139381313Y-130165000D01*
X138148738Y-130165000D01*
X138231941Y-130109934D01*
X138393445Y-129949847D01*
X138520615Y-129761329D01*
X138608563Y-129551623D01*
X138570856Y-129374000D01*
X137664000Y-129374000D01*
X137664000Y-129394000D01*
X137336000Y-129394000D01*
X137336000Y-129374000D01*
X136429144Y-129374000D01*
X136391437Y-129551623D01*
X136479385Y-129761329D01*
X136606555Y-129949847D01*
X136768059Y-130109934D01*
X136851262Y-130165000D01*
X136102097Y-130165000D01*
X136115514Y-130120770D01*
X136121499Y-130060000D01*
X136121499Y-128868377D01*
X136391437Y-128868377D01*
X136429144Y-129046000D01*
X137336000Y-129046000D01*
X137336000Y-128139995D01*
X137664000Y-128139995D01*
X137664000Y-129046000D01*
X138570856Y-129046000D01*
X138608563Y-128868377D01*
X138520615Y-128658671D01*
X138393445Y-128470153D01*
X138231941Y-128310066D01*
X138042309Y-128184563D01*
X137841622Y-128101445D01*
X137664000Y-128139995D01*
X137336000Y-128139995D01*
X137158378Y-128101445D01*
X136957691Y-128184563D01*
X136768059Y-128310066D01*
X136606555Y-128470153D01*
X136479385Y-128658671D01*
X136391437Y-128868377D01*
X136121499Y-128868377D01*
X136121499Y-128360000D01*
X136115514Y-128299230D01*
X136097788Y-128240794D01*
X136069002Y-128186940D01*
X136030263Y-128139737D01*
X135983060Y-128100998D01*
X135929206Y-128072212D01*
X135870770Y-128054486D01*
X135810000Y-128048501D01*
X135360000Y-128048501D01*
X135360000Y-126561499D01*
X135810000Y-126561499D01*
X135870770Y-126555514D01*
X135929206Y-126537788D01*
X135983060Y-126509002D01*
X136030263Y-126470263D01*
X136069002Y-126423060D01*
X136097788Y-126369206D01*
X136115514Y-126310770D01*
X136121499Y-126250000D01*
X136121499Y-125741623D01*
X136391437Y-125741623D01*
X136479385Y-125951329D01*
X136606555Y-126139847D01*
X136768059Y-126299934D01*
X136957691Y-126425437D01*
X137158378Y-126508555D01*
X137336000Y-126470005D01*
X137336000Y-125564000D01*
X137664000Y-125564000D01*
X137664000Y-126470005D01*
X137841622Y-126508555D01*
X138042309Y-126425437D01*
X138231941Y-126299934D01*
X138393445Y-126139847D01*
X138520615Y-125951329D01*
X138608563Y-125741623D01*
X138570856Y-125564000D01*
X137664000Y-125564000D01*
X137336000Y-125564000D01*
X136429144Y-125564000D01*
X136391437Y-125741623D01*
X136121499Y-125741623D01*
X136121499Y-124550000D01*
X136115514Y-124489230D01*
X136097788Y-124430794D01*
X136092019Y-124420001D01*
X136889035Y-124420001D01*
X136768059Y-124500066D01*
G37*
%TD.AperFunction*%
D18*
X127500998Y-76346940D02*
X127472212Y-76400794D01*
X127454486Y-76459230D01*
X127448501Y-76520000D01*
X127448501Y-78220000D01*
X127454486Y-78280770D01*
X127472212Y-78339206D01*
X127500998Y-78393060D01*
X127539737Y-78440263D01*
X127586940Y-78479002D01*
X127640794Y-78507788D01*
X127699230Y-78525514D01*
X127760000Y-78531499D01*
X129205813Y-78531499D01*
X129690000Y-79015686D01*
X129690001Y-79486125D01*
X129637979Y-79360534D01*
X129511031Y-79170543D01*
X129349457Y-79008969D01*
X129159466Y-78882021D01*
X128948360Y-78794578D01*
X128724250Y-78750000D01*
X128495750Y-78750000D01*
X128271640Y-78794578D01*
X128060534Y-78882021D01*
X127870543Y-79008969D01*
X127708969Y-79170543D01*
X127582021Y-79360534D01*
X127494578Y-79571640D01*
X127450000Y-79795750D01*
X127450000Y-80024250D01*
X127494578Y-80248360D01*
X127582021Y-80459466D01*
X127708969Y-80649457D01*
X127870543Y-80811031D01*
X128060534Y-80937979D01*
X128271640Y-81025422D01*
X128495750Y-81070000D01*
X128724250Y-81070000D01*
X128948360Y-81025422D01*
X129097826Y-80963511D01*
X129422906Y-81288591D01*
X128851500Y-81290000D01*
X128774000Y-81367500D01*
X128774000Y-82286000D01*
X129692500Y-82286000D01*
X129770000Y-82208500D01*
X129771409Y-81637094D01*
X130290000Y-82155686D01*
X130290001Y-83190344D01*
X130288065Y-83210000D01*
X130295788Y-83288413D01*
X130318661Y-83363814D01*
X130355803Y-83433302D01*
X130393265Y-83478950D01*
X130393268Y-83478953D01*
X130405790Y-83494211D01*
X130421047Y-83506732D01*
X130683267Y-83768953D01*
X130695789Y-83784211D01*
X130711047Y-83796733D01*
X130711049Y-83796735D01*
X130756697Y-83834197D01*
X130826185Y-83871340D01*
X130901586Y-83894212D01*
X130980000Y-83901935D01*
X130999646Y-83900000D01*
X131554893Y-83900000D01*
X131566015Y-83955913D01*
X131583741Y-84014346D01*
X131621250Y-84104902D01*
X131650036Y-84158758D01*
X131704492Y-84240257D01*
X131743231Y-84287461D01*
X131812539Y-84356769D01*
X131859743Y-84395508D01*
X131941242Y-84449964D01*
X131995098Y-84478750D01*
X132085654Y-84516259D01*
X132144087Y-84533985D01*
X132240220Y-84553107D01*
X132300991Y-84559092D01*
X132325549Y-84559092D01*
X132350000Y-84561500D01*
X132850000Y-84561500D01*
X132910771Y-84555515D01*
X132969206Y-84537788D01*
X133000000Y-84521329D01*
X133030794Y-84537788D01*
X133089229Y-84555515D01*
X133150000Y-84561500D01*
X133650000Y-84561500D01*
X133674451Y-84559092D01*
X133699009Y-84559092D01*
X133759780Y-84553107D01*
X133855913Y-84533985D01*
X133914346Y-84516259D01*
X134004902Y-84478750D01*
X134042805Y-84458491D01*
X135519989Y-85935675D01*
X135519989Y-86294796D01*
X135454513Y-86267674D01*
X135345549Y-86246000D01*
X135234451Y-86246000D01*
X135125487Y-86267674D01*
X135022846Y-86310190D01*
X134930471Y-86371913D01*
X134851913Y-86450471D01*
X134790190Y-86542846D01*
X134747674Y-86645487D01*
X134726000Y-86754451D01*
X134726000Y-86865549D01*
X134747674Y-86974513D01*
X134790190Y-87077154D01*
X134851913Y-87169529D01*
X134930471Y-87248087D01*
X135022846Y-87309810D01*
X135119978Y-87350044D01*
X135119978Y-88184292D01*
X134477816Y-87542131D01*
X134477816Y-87488267D01*
X134456142Y-87379303D01*
X134413626Y-87276662D01*
X134351903Y-87184287D01*
X134273345Y-87105729D01*
X134180970Y-87044006D01*
X134084943Y-87004230D01*
X134094513Y-87002326D01*
X134197154Y-86959810D01*
X134289529Y-86898087D01*
X134368087Y-86819529D01*
X134429810Y-86727154D01*
X134472326Y-86624513D01*
X134494000Y-86515549D01*
X134494000Y-86404451D01*
X134472326Y-86295487D01*
X134429810Y-86192846D01*
X134368087Y-86100471D01*
X134289529Y-86021913D01*
X134197154Y-85960190D01*
X134094513Y-85917674D01*
X133985549Y-85896000D01*
X133874451Y-85896000D01*
X133765487Y-85917674D01*
X133662846Y-85960190D01*
X133570471Y-86021913D01*
X133491913Y-86100471D01*
X133430190Y-86192846D01*
X133387674Y-86295487D01*
X133366000Y-86404451D01*
X133366000Y-86458314D01*
X133051052Y-86773263D01*
X133035789Y-86785789D01*
X132985803Y-86846698D01*
X132948660Y-86916187D01*
X132934895Y-86961565D01*
X132925788Y-86991587D01*
X132918065Y-87070000D01*
X132920000Y-87089647D01*
X132920001Y-87820344D01*
X132918065Y-87840000D01*
X132925788Y-87918413D01*
X132948661Y-87993814D01*
X132985803Y-88063302D01*
X133023265Y-88108950D01*
X133023268Y-88108953D01*
X133035790Y-88124211D01*
X133051048Y-88136733D01*
X133743604Y-88829289D01*
X133651662Y-88890722D01*
X133573104Y-88969280D01*
X133511381Y-89061655D01*
X133468865Y-89164296D01*
X133464073Y-89188387D01*
X133334000Y-89058315D01*
X133334000Y-89004451D01*
X133312326Y-88895487D01*
X133269810Y-88792846D01*
X133208087Y-88700471D01*
X133129529Y-88621913D01*
X133037154Y-88560190D01*
X132934513Y-88517674D01*
X132825549Y-88496000D01*
X132714451Y-88496000D01*
X132605487Y-88517674D01*
X132502846Y-88560190D01*
X132410471Y-88621913D01*
X132331913Y-88700471D01*
X132270190Y-88792846D01*
X132227674Y-88895487D01*
X132206000Y-89004451D01*
X132206000Y-89110315D01*
X132074000Y-88978315D01*
X132074000Y-88924451D01*
X132052326Y-88815487D01*
X132009810Y-88712846D01*
X131948087Y-88620471D01*
X131869529Y-88541913D01*
X131777154Y-88480190D01*
X131674513Y-88437674D01*
X131565549Y-88416000D01*
X131454451Y-88416000D01*
X131345487Y-88437674D01*
X131242846Y-88480190D01*
X131150471Y-88541913D01*
X131071913Y-88620471D01*
X131010190Y-88712846D01*
X130967674Y-88815487D01*
X130946000Y-88924451D01*
X130946000Y-89035549D01*
X130967674Y-89144513D01*
X131010190Y-89247154D01*
X131071913Y-89339529D01*
X131150471Y-89418087D01*
X131242846Y-89479810D01*
X131345487Y-89522326D01*
X131454451Y-89544000D01*
X131508315Y-89544000D01*
X132800000Y-90835686D01*
X132800001Y-100113607D01*
X132780016Y-100121885D01*
X132687641Y-100183608D01*
X132609083Y-100262166D01*
X132547360Y-100354541D01*
X132504844Y-100457182D01*
X132483170Y-100566146D01*
X132483170Y-100677244D01*
X132504844Y-100786208D01*
X132547360Y-100888849D01*
X132609083Y-100981224D01*
X132687641Y-101059782D01*
X132780016Y-101121505D01*
X132882657Y-101164021D01*
X132991621Y-101185695D01*
X133102719Y-101185695D01*
X133211579Y-101164042D01*
X133216968Y-101218754D01*
X133239841Y-101294155D01*
X133276983Y-101363643D01*
X133314445Y-101409291D01*
X133314448Y-101409294D01*
X133326970Y-101424552D01*
X133342228Y-101437074D01*
X134405348Y-102500194D01*
X134405348Y-102554058D01*
X134427022Y-102663022D01*
X134469538Y-102765663D01*
X134531261Y-102858038D01*
X134543212Y-102869989D01*
X133552015Y-102869989D01*
X133532379Y-102868055D01*
X133512743Y-102869989D01*
X133512733Y-102869989D01*
X133453966Y-102875777D01*
X133378566Y-102898649D01*
X133309077Y-102935792D01*
X133295362Y-102947048D01*
X133263429Y-102973254D01*
X133263427Y-102973256D01*
X133248169Y-102985778D01*
X133235647Y-103001036D01*
X133120072Y-103116611D01*
X133066209Y-103116611D01*
X132957245Y-103138285D01*
X132854604Y-103180801D01*
X132762229Y-103242524D01*
X132683671Y-103321082D01*
X132621948Y-103413457D01*
X132579432Y-103516098D01*
X132557758Y-103625062D01*
X132557758Y-103736160D01*
X132579432Y-103845124D01*
X132621948Y-103947765D01*
X132683671Y-104040140D01*
X132722958Y-104079427D01*
X132661911Y-104140473D01*
X132600188Y-104232848D01*
X132557672Y-104335489D01*
X132535998Y-104444453D01*
X132535998Y-104555551D01*
X132557672Y-104664515D01*
X132600188Y-104767156D01*
X132661911Y-104859531D01*
X132740469Y-104938089D01*
X132832844Y-104999812D01*
X132935485Y-105042328D01*
X133044449Y-105064002D01*
X133155547Y-105064002D01*
X133264511Y-105042328D01*
X133367152Y-104999812D01*
X133459527Y-104938089D01*
X133538085Y-104859531D01*
X133599808Y-104767156D01*
X133642324Y-104664515D01*
X133663998Y-104555551D01*
X133663998Y-104501687D01*
X134095686Y-104070000D01*
X137700354Y-104070000D01*
X137720000Y-104071935D01*
X137739646Y-104070000D01*
X137739647Y-104070000D01*
X137798414Y-104064212D01*
X137873814Y-104041340D01*
X137943303Y-104004197D01*
X138004211Y-103954211D01*
X138016737Y-103938948D01*
X138768949Y-103186736D01*
X138784211Y-103174211D01*
X138834197Y-103113303D01*
X138871340Y-103043814D01*
X138894212Y-102968414D01*
X138900000Y-102909647D01*
X138900000Y-102909646D01*
X138901935Y-102890000D01*
X138900000Y-102870353D01*
X138900000Y-100749647D01*
X138901935Y-100730000D01*
X138894212Y-100651586D01*
X138871340Y-100576186D01*
X138834197Y-100506697D01*
X138819034Y-100488221D01*
X138784211Y-100445789D01*
X138768948Y-100433263D01*
X136720000Y-98384315D01*
X136720000Y-92495750D01*
X145230000Y-92495750D01*
X145230000Y-92724250D01*
X145274578Y-92948360D01*
X145362021Y-93159466D01*
X145488969Y-93349457D01*
X145650543Y-93511031D01*
X145840534Y-93637979D01*
X146051640Y-93725422D01*
X146275750Y-93770000D01*
X146504250Y-93770000D01*
X146728360Y-93725422D01*
X146939466Y-93637979D01*
X147129457Y-93511031D01*
X147291031Y-93349457D01*
X147417979Y-93159466D01*
X147505422Y-92948360D01*
X147550000Y-92724250D01*
X147550000Y-92495750D01*
X147505422Y-92271640D01*
X147417979Y-92060534D01*
X147291031Y-91870543D01*
X147129457Y-91708969D01*
X146939466Y-91582021D01*
X146728360Y-91494578D01*
X146504250Y-91450000D01*
X146275750Y-91450000D01*
X146051640Y-91494578D01*
X145840534Y-91582021D01*
X145650543Y-91708969D01*
X145488969Y-91870543D01*
X145362021Y-92060534D01*
X145274578Y-92271640D01*
X145230000Y-92495750D01*
X136720000Y-92495750D01*
X136720000Y-89955750D01*
X145230000Y-89955750D01*
X145230000Y-90184250D01*
X145274578Y-90408360D01*
X145362021Y-90619466D01*
X145488969Y-90809457D01*
X145650543Y-90971031D01*
X145840534Y-91097979D01*
X146051640Y-91185422D01*
X146275750Y-91230000D01*
X146504250Y-91230000D01*
X146728360Y-91185422D01*
X146939466Y-91097979D01*
X147129457Y-90971031D01*
X147291031Y-90809457D01*
X147417979Y-90619466D01*
X147505422Y-90408360D01*
X147550000Y-90184250D01*
X147550000Y-89955750D01*
X147505422Y-89731640D01*
X147417979Y-89520534D01*
X147291031Y-89330543D01*
X147129457Y-89168969D01*
X146939466Y-89042021D01*
X146728360Y-88954578D01*
X146504250Y-88910000D01*
X146275750Y-88910000D01*
X146051640Y-88954578D01*
X145840534Y-89042021D01*
X145650543Y-89168969D01*
X145488969Y-89330543D01*
X145362021Y-89520534D01*
X145274578Y-89731640D01*
X145230000Y-89955750D01*
X136720000Y-89955750D01*
X136720000Y-87415750D01*
X145230000Y-87415750D01*
X145230000Y-87644250D01*
X145274578Y-87868360D01*
X145362021Y-88079466D01*
X145488969Y-88269457D01*
X145650543Y-88431031D01*
X145840534Y-88557979D01*
X146051640Y-88645422D01*
X146275750Y-88690000D01*
X146504250Y-88690000D01*
X146728360Y-88645422D01*
X146939466Y-88557979D01*
X147129457Y-88431031D01*
X147291031Y-88269457D01*
X147417979Y-88079466D01*
X147505422Y-87868360D01*
X147550000Y-87644250D01*
X147550000Y-87415750D01*
X147505422Y-87191640D01*
X147417979Y-86980534D01*
X147291031Y-86790543D01*
X147129457Y-86628969D01*
X146939466Y-86502021D01*
X146728360Y-86414578D01*
X146504250Y-86370000D01*
X146275750Y-86370000D01*
X146051640Y-86414578D01*
X145840534Y-86502021D01*
X145650543Y-86628969D01*
X145488969Y-86790543D01*
X145362021Y-86980534D01*
X145274578Y-87191640D01*
X145230000Y-87415750D01*
X136720000Y-87415750D01*
X136720000Y-84875750D01*
X145230000Y-84875750D01*
X145230000Y-85104250D01*
X145274578Y-85328360D01*
X145362021Y-85539466D01*
X145488969Y-85729457D01*
X145650543Y-85891031D01*
X145840534Y-86017979D01*
X146051640Y-86105422D01*
X146275750Y-86150000D01*
X146504250Y-86150000D01*
X146728360Y-86105422D01*
X146939466Y-86017979D01*
X147129457Y-85891031D01*
X147291031Y-85729457D01*
X147417979Y-85539466D01*
X147505422Y-85328360D01*
X147550000Y-85104250D01*
X147550000Y-84875750D01*
X147505422Y-84651640D01*
X147417979Y-84440534D01*
X147291031Y-84250543D01*
X147129457Y-84088969D01*
X146939466Y-83962021D01*
X146728360Y-83874578D01*
X146504250Y-83830000D01*
X146275750Y-83830000D01*
X146051640Y-83874578D01*
X145840534Y-83962021D01*
X145650543Y-84088969D01*
X145488969Y-84250543D01*
X145362021Y-84440534D01*
X145274578Y-84651640D01*
X145230000Y-84875750D01*
X136720000Y-84875750D01*
X136720000Y-83689647D01*
X136721935Y-83670000D01*
X136714212Y-83591586D01*
X136691340Y-83516186D01*
X136654197Y-83446697D01*
X136616735Y-83401049D01*
X136616733Y-83401047D01*
X136604211Y-83385789D01*
X136588953Y-83373267D01*
X135465686Y-82250000D01*
X140538500Y-82250000D01*
X140538500Y-82750000D01*
X140540908Y-82774451D01*
X140540908Y-82799009D01*
X140546893Y-82859780D01*
X140566015Y-82955913D01*
X140583741Y-83014346D01*
X140621250Y-83104902D01*
X140650036Y-83158758D01*
X140704492Y-83240257D01*
X140743231Y-83287461D01*
X140812539Y-83356769D01*
X140859743Y-83395508D01*
X140890001Y-83415726D01*
X140890001Y-83673265D01*
X140850190Y-83732846D01*
X140807674Y-83835487D01*
X140786000Y-83944451D01*
X140786000Y-84055549D01*
X140807674Y-84164513D01*
X140850190Y-84267154D01*
X140911913Y-84359529D01*
X140990471Y-84438087D01*
X141082846Y-84499810D01*
X141185487Y-84542326D01*
X141294451Y-84564000D01*
X141405549Y-84564000D01*
X141514513Y-84542326D01*
X141617154Y-84499810D01*
X141709529Y-84438087D01*
X141788087Y-84359529D01*
X141849810Y-84267154D01*
X141892326Y-84164513D01*
X141914000Y-84055549D01*
X141914000Y-83944451D01*
X141892326Y-83835487D01*
X141849810Y-83732846D01*
X141810000Y-83673266D01*
X141810000Y-83561500D01*
X141850000Y-83561500D01*
X141910771Y-83555515D01*
X141969206Y-83537788D01*
X142000000Y-83521329D01*
X142030794Y-83537788D01*
X142089229Y-83555515D01*
X142150000Y-83561500D01*
X142650000Y-83561500D01*
X142674451Y-83559092D01*
X142699009Y-83559092D01*
X142759780Y-83553107D01*
X142855913Y-83533985D01*
X142914346Y-83516259D01*
X143004902Y-83478750D01*
X143058758Y-83449964D01*
X143140257Y-83395508D01*
X143187461Y-83356769D01*
X143256769Y-83287461D01*
X143295508Y-83240257D01*
X143349964Y-83158758D01*
X143378750Y-83104902D01*
X143416259Y-83014346D01*
X143432745Y-82960000D01*
X143777418Y-82960000D01*
X143800000Y-82962224D01*
X143822582Y-82960000D01*
X143822590Y-82960000D01*
X143890176Y-82953343D01*
X143976886Y-82927040D01*
X144056798Y-82884326D01*
X144126842Y-82826842D01*
X144141245Y-82809292D01*
X144158915Y-82791622D01*
X145281445Y-82791622D01*
X145364563Y-82992309D01*
X145490066Y-83181941D01*
X145650153Y-83343445D01*
X145838671Y-83470615D01*
X146048377Y-83558563D01*
X146226000Y-83520856D01*
X146226000Y-82614000D01*
X146554000Y-82614000D01*
X146554000Y-83520856D01*
X146731623Y-83558563D01*
X146941329Y-83470615D01*
X147129847Y-83343445D01*
X147289934Y-83181941D01*
X147415437Y-82992309D01*
X147498555Y-82791622D01*
X147460005Y-82614000D01*
X146554000Y-82614000D01*
X146226000Y-82614000D01*
X145319995Y-82614000D01*
X145281445Y-82791622D01*
X144158915Y-82791622D01*
X144842159Y-82108378D01*
X145281445Y-82108378D01*
X145319995Y-82286000D01*
X146226000Y-82286000D01*
X146226000Y-81379144D01*
X146554000Y-81379144D01*
X146554000Y-82286000D01*
X147460005Y-82286000D01*
X147498555Y-82108378D01*
X147415437Y-81907691D01*
X147289934Y-81718059D01*
X147129847Y-81556555D01*
X146941329Y-81429385D01*
X146731623Y-81341437D01*
X146554000Y-81379144D01*
X146226000Y-81379144D01*
X146048377Y-81341437D01*
X145838671Y-81429385D01*
X145650153Y-81556555D01*
X145490066Y-81718059D01*
X145364563Y-81907691D01*
X145281445Y-82108378D01*
X144842159Y-82108378D01*
X145962174Y-80988364D01*
X146051640Y-81025422D01*
X146275750Y-81070000D01*
X146504250Y-81070000D01*
X146728360Y-81025422D01*
X146939466Y-80937979D01*
X147129457Y-80811031D01*
X147291031Y-80649457D01*
X147417979Y-80459466D01*
X147505422Y-80248360D01*
X147550000Y-80024250D01*
X147550000Y-79795750D01*
X147505422Y-79571640D01*
X147417979Y-79360534D01*
X147291031Y-79170543D01*
X147129457Y-79008969D01*
X146939466Y-78882021D01*
X146728360Y-78794578D01*
X146504250Y-78750000D01*
X146275750Y-78750000D01*
X146051640Y-78794578D01*
X145840534Y-78882021D01*
X145650543Y-79008969D01*
X145488969Y-79170543D01*
X145362021Y-79360534D01*
X145274578Y-79571640D01*
X145230000Y-79795750D01*
X145230000Y-80024250D01*
X145274578Y-80248360D01*
X145311636Y-80337826D01*
X143609463Y-82040000D01*
X143432745Y-82040000D01*
X143416259Y-81985654D01*
X143378750Y-81895098D01*
X143349964Y-81841242D01*
X143295508Y-81759743D01*
X143256769Y-81712539D01*
X143187461Y-81643231D01*
X143140257Y-81604492D01*
X143058758Y-81550036D01*
X143004902Y-81521250D01*
X142914346Y-81483741D01*
X142855913Y-81466015D01*
X142759780Y-81446893D01*
X142699009Y-81440908D01*
X142674451Y-81440908D01*
X142650000Y-81438500D01*
X142150000Y-81438500D01*
X142089229Y-81444485D01*
X142030794Y-81462212D01*
X142000000Y-81478671D01*
X141969206Y-81462212D01*
X141910771Y-81444485D01*
X141850000Y-81438500D01*
X141350000Y-81438500D01*
X141325549Y-81440908D01*
X141300991Y-81440908D01*
X141240220Y-81446893D01*
X141144087Y-81466015D01*
X141085654Y-81483741D01*
X140995098Y-81521250D01*
X140941242Y-81550036D01*
X140859743Y-81604492D01*
X140812539Y-81643231D01*
X140743231Y-81712539D01*
X140704492Y-81759743D01*
X140650036Y-81841242D01*
X140621250Y-81895098D01*
X140583741Y-81985654D01*
X140566015Y-82044087D01*
X140546893Y-82140220D01*
X140540908Y-82200991D01*
X140540908Y-82225549D01*
X140538500Y-82250000D01*
X135465686Y-82250000D01*
X134461500Y-81245815D01*
X134461500Y-80750000D01*
X134459092Y-80725549D01*
X134459092Y-80700991D01*
X134453107Y-80640220D01*
X134433985Y-80544087D01*
X134416259Y-80485654D01*
X134378750Y-80395098D01*
X134349964Y-80341242D01*
X134295508Y-80259743D01*
X134256769Y-80212539D01*
X134187461Y-80143231D01*
X134140257Y-80104492D01*
X134058758Y-80050036D01*
X134004902Y-80021250D01*
X133914346Y-79983741D01*
X133855913Y-79966015D01*
X133759780Y-79946893D01*
X133699009Y-79940908D01*
X133674451Y-79940908D01*
X133650000Y-79938500D01*
X133150000Y-79938500D01*
X133089229Y-79944485D01*
X133030794Y-79962212D01*
X133000000Y-79978671D01*
X132969206Y-79962212D01*
X132910771Y-79944485D01*
X132850000Y-79938500D01*
X132350000Y-79938500D01*
X132325549Y-79940908D01*
X132300991Y-79940908D01*
X132240220Y-79946893D01*
X132144087Y-79966015D01*
X132085654Y-79983741D01*
X131995098Y-80021250D01*
X131941242Y-80050036D01*
X131859743Y-80104492D01*
X131812539Y-80143231D01*
X131743231Y-80212539D01*
X131704492Y-80259743D01*
X131650036Y-80341242D01*
X131621250Y-80395098D01*
X131583741Y-80485654D01*
X131566015Y-80544087D01*
X131554893Y-80600000D01*
X131145686Y-80600000D01*
X130490000Y-79944315D01*
X130490000Y-78869635D01*
X130491934Y-78849999D01*
X130490000Y-78830363D01*
X130490000Y-78830353D01*
X130484212Y-78771586D01*
X130461340Y-78696186D01*
X130424197Y-78626697D01*
X130374211Y-78565789D01*
X130358954Y-78553268D01*
X129771499Y-77965813D01*
X129771499Y-77866052D01*
X130440000Y-77866052D01*
X130440000Y-78133948D01*
X130492264Y-78396697D01*
X130594784Y-78644201D01*
X130743619Y-78866949D01*
X130933051Y-79056381D01*
X131155799Y-79205216D01*
X131403303Y-79307736D01*
X131666052Y-79360000D01*
X131933948Y-79360000D01*
X132196697Y-79307736D01*
X132444201Y-79205216D01*
X132666949Y-79056381D01*
X132856381Y-78866949D01*
X133005216Y-78644201D01*
X133107736Y-78396697D01*
X133124482Y-78312507D01*
X133519424Y-78312507D01*
X133624548Y-78471055D01*
X133844557Y-78562740D01*
X134078226Y-78609741D01*
X134316575Y-78610253D01*
X134550444Y-78564256D01*
X134770844Y-78473517D01*
X134775452Y-78471055D01*
X134880576Y-78312507D01*
X140119424Y-78312507D01*
X140224548Y-78471055D01*
X140444557Y-78562740D01*
X140678226Y-78609741D01*
X140916575Y-78610253D01*
X141150444Y-78564256D01*
X141370844Y-78473517D01*
X141375452Y-78471055D01*
X141480576Y-78312507D01*
X140800000Y-77631931D01*
X140119424Y-78312507D01*
X134880576Y-78312507D01*
X134200000Y-77631931D01*
X133519424Y-78312507D01*
X133124482Y-78312507D01*
X133160000Y-78133948D01*
X133160000Y-77996043D01*
X133287493Y-78080576D01*
X133968069Y-77400000D01*
X134431931Y-77400000D01*
X135112507Y-78080576D01*
X135271055Y-77975452D01*
X135362740Y-77755443D01*
X135409741Y-77521774D01*
X135410253Y-77283425D01*
X135364256Y-77049556D01*
X135273517Y-76829156D01*
X135271055Y-76824548D01*
X135112507Y-76719424D01*
X134431931Y-77400000D01*
X133968069Y-77400000D01*
X133287493Y-76719424D01*
X133128945Y-76824548D01*
X133037260Y-77044557D01*
X132990259Y-77278226D01*
X132990141Y-77333237D01*
X132856381Y-77133051D01*
X132666949Y-76943619D01*
X132444201Y-76794784D01*
X132196697Y-76692264D01*
X131933948Y-76640000D01*
X131666052Y-76640000D01*
X131403303Y-76692264D01*
X131155799Y-76794784D01*
X130933051Y-76943619D01*
X130743619Y-77133051D01*
X130594784Y-77355799D01*
X130492264Y-77603303D01*
X130440000Y-77866052D01*
X129771499Y-77866052D01*
X129771499Y-76520000D01*
X129765514Y-76459230D01*
X129747788Y-76400794D01*
X129719002Y-76346940D01*
X129709203Y-76335000D01*
X133620533Y-76335000D01*
X133519424Y-76487493D01*
X134200000Y-77168069D01*
X134880576Y-76487493D01*
X134779467Y-76335000D01*
X135781667Y-76335000D01*
X135781667Y-78102500D01*
X139218334Y-78102500D01*
X139218334Y-77516575D01*
X139589747Y-77516575D01*
X139635744Y-77750444D01*
X139726483Y-77970844D01*
X139728945Y-77975452D01*
X139887493Y-78080576D01*
X140568069Y-77400000D01*
X141031931Y-77400000D01*
X141712507Y-78080576D01*
X141840000Y-77996043D01*
X141840000Y-78133948D01*
X141892264Y-78396697D01*
X141994784Y-78644201D01*
X142143619Y-78866949D01*
X142333051Y-79056381D01*
X142555799Y-79205216D01*
X142803303Y-79307736D01*
X143066052Y-79360000D01*
X143333948Y-79360000D01*
X143596697Y-79307736D01*
X143844201Y-79205216D01*
X144066949Y-79056381D01*
X144256381Y-78866949D01*
X144405216Y-78644201D01*
X144507736Y-78396697D01*
X144560000Y-78133948D01*
X144560000Y-77866052D01*
X144507736Y-77603303D01*
X144405216Y-77355799D01*
X144256381Y-77133051D01*
X144066949Y-76943619D01*
X143844201Y-76794784D01*
X143596697Y-76692264D01*
X143333948Y-76640000D01*
X143066052Y-76640000D01*
X142803303Y-76692264D01*
X142555799Y-76794784D01*
X142333051Y-76943619D01*
X142143619Y-77133051D01*
X142010147Y-77332807D01*
X142010253Y-77283425D01*
X141964256Y-77049556D01*
X141873517Y-76829156D01*
X141871055Y-76824548D01*
X141712507Y-76719424D01*
X141031931Y-77400000D01*
X140568069Y-77400000D01*
X139887493Y-76719424D01*
X139728945Y-76824548D01*
X139637260Y-77044557D01*
X139590259Y-77278226D01*
X139589747Y-77516575D01*
X139218334Y-77516575D01*
X139218334Y-76335000D01*
X140220533Y-76335000D01*
X140119424Y-76487493D01*
X140800000Y-77168069D01*
X141480576Y-76487493D01*
X141379467Y-76335000D01*
X145290797Y-76335000D01*
X145280998Y-76346940D01*
X145252212Y-76400794D01*
X145234486Y-76459230D01*
X145228501Y-76520000D01*
X145228501Y-78220000D01*
X145234486Y-78280770D01*
X145252212Y-78339206D01*
X145280998Y-78393060D01*
X145319737Y-78440263D01*
X145366940Y-78479002D01*
X145420794Y-78507788D01*
X145479230Y-78525514D01*
X145540000Y-78531499D01*
X147240000Y-78531499D01*
X147300770Y-78525514D01*
X147359206Y-78507788D01*
X147413060Y-78479002D01*
X147460263Y-78440263D01*
X147499002Y-78393060D01*
X147527788Y-78339206D01*
X147545514Y-78280770D01*
X147551499Y-78220000D01*
X147551499Y-76520000D01*
X147545514Y-76459230D01*
X147527788Y-76400794D01*
X147499002Y-76346940D01*
X147489203Y-76335000D01*
X149865000Y-76335000D01*
X149865001Y-126665000D01*
X148000034Y-126665000D01*
X147968104Y-126664895D01*
X147951339Y-126668173D01*
X147934329Y-126669848D01*
X147919025Y-126674490D01*
X147903340Y-126677557D01*
X147887535Y-126684043D01*
X147871181Y-126689004D01*
X147842811Y-126704168D01*
X141316672Y-130165000D01*
X140698687Y-130165000D01*
X140779457Y-130111031D01*
X140941031Y-129949457D01*
X141067979Y-129759466D01*
X141155422Y-129548360D01*
X141200000Y-129324250D01*
X141200000Y-129095750D01*
X141155422Y-128871640D01*
X141067979Y-128660534D01*
X140941031Y-128470543D01*
X140779457Y-128308969D01*
X140589466Y-128182021D01*
X140440000Y-128120110D01*
X140440000Y-126489890D01*
X140589466Y-126427979D01*
X140779457Y-126301031D01*
X140941031Y-126139457D01*
X141067979Y-125949466D01*
X141155422Y-125738360D01*
X141200000Y-125514250D01*
X141200000Y-125285750D01*
X141155422Y-125061640D01*
X141074407Y-124866052D01*
X141840000Y-124866052D01*
X141840000Y-125133948D01*
X141892264Y-125396697D01*
X141994784Y-125644201D01*
X142143619Y-125866949D01*
X142333051Y-126056381D01*
X142555799Y-126205216D01*
X142803303Y-126307736D01*
X143066052Y-126360000D01*
X143333948Y-126360000D01*
X143596697Y-126307736D01*
X143844201Y-126205216D01*
X144066949Y-126056381D01*
X144256381Y-125866949D01*
X144405216Y-125644201D01*
X144458422Y-125515750D01*
X145230000Y-125515750D01*
X145230000Y-125744250D01*
X145274578Y-125968360D01*
X145362021Y-126179466D01*
X145488969Y-126369457D01*
X145650543Y-126531031D01*
X145840534Y-126657979D01*
X146051640Y-126745422D01*
X146275750Y-126790000D01*
X146504250Y-126790000D01*
X146728360Y-126745422D01*
X146939466Y-126657979D01*
X147129457Y-126531031D01*
X147291031Y-126369457D01*
X147417979Y-126179466D01*
X147505422Y-125968360D01*
X147550000Y-125744250D01*
X147550000Y-125515750D01*
X147505422Y-125291640D01*
X147417979Y-125080534D01*
X147291031Y-124890543D01*
X147129457Y-124728969D01*
X146939466Y-124602021D01*
X146728360Y-124514578D01*
X146504250Y-124470000D01*
X146275750Y-124470000D01*
X146051640Y-124514578D01*
X145840534Y-124602021D01*
X145650543Y-124728969D01*
X145488969Y-124890543D01*
X145362021Y-125080534D01*
X145274578Y-125291640D01*
X145230000Y-125515750D01*
X144458422Y-125515750D01*
X144507736Y-125396697D01*
X144560000Y-125133948D01*
X144560000Y-124866052D01*
X144507736Y-124603303D01*
X144405216Y-124355799D01*
X144256381Y-124133051D01*
X144066949Y-123943619D01*
X143844201Y-123794784D01*
X143596697Y-123692264D01*
X143333948Y-123640000D01*
X143066052Y-123640000D01*
X142803303Y-123692264D01*
X142555799Y-123794784D01*
X142333051Y-123943619D01*
X142143619Y-124133051D01*
X141994784Y-124355799D01*
X141892264Y-124603303D01*
X141840000Y-124866052D01*
X141074407Y-124866052D01*
X141067979Y-124850534D01*
X140941031Y-124660543D01*
X140779457Y-124498969D01*
X140589466Y-124372021D01*
X140378360Y-124284578D01*
X140154250Y-124240000D01*
X139925750Y-124240000D01*
X139701640Y-124284578D01*
X139552174Y-124346489D01*
X138956736Y-123751051D01*
X138944212Y-123735790D01*
X138883304Y-123685804D01*
X138813815Y-123648661D01*
X138738415Y-123625789D01*
X138679648Y-123620001D01*
X138679647Y-123620001D01*
X138660001Y-123618066D01*
X138640355Y-123620001D01*
X138373113Y-123620001D01*
X138393445Y-123599847D01*
X138520615Y-123411329D01*
X138608563Y-123201623D01*
X138570856Y-123024000D01*
X137664000Y-123024000D01*
X137664000Y-123044000D01*
X137336000Y-123044000D01*
X137336000Y-123024000D01*
X136429144Y-123024000D01*
X136391437Y-123201623D01*
X136479385Y-123411329D01*
X136606555Y-123599847D01*
X136626887Y-123620001D01*
X136121499Y-123620001D01*
X136121499Y-122264187D01*
X136285687Y-122099999D01*
X136626887Y-122099999D01*
X136606555Y-122120153D01*
X136479385Y-122308671D01*
X136391437Y-122518377D01*
X136429144Y-122696000D01*
X137336000Y-122696000D01*
X137336000Y-122676000D01*
X137664000Y-122676000D01*
X137664000Y-122696000D01*
X138570856Y-122696000D01*
X138608563Y-122518377D01*
X138520615Y-122308671D01*
X138393445Y-122120153D01*
X138373113Y-122099999D01*
X139159513Y-122099999D01*
X139138969Y-122120543D01*
X139012021Y-122310534D01*
X138924578Y-122521640D01*
X138880000Y-122745750D01*
X138880000Y-122974250D01*
X138924578Y-123198360D01*
X139012021Y-123409466D01*
X139138969Y-123599457D01*
X139300543Y-123761031D01*
X139490534Y-123887979D01*
X139701640Y-123975422D01*
X139925750Y-124020000D01*
X140154250Y-124020000D01*
X140378360Y-123975422D01*
X140589466Y-123887979D01*
X140779457Y-123761031D01*
X140941031Y-123599457D01*
X141067979Y-123409466D01*
X141155422Y-123198360D01*
X141199701Y-122975750D01*
X145230000Y-122975750D01*
X145230000Y-123204250D01*
X145274578Y-123428360D01*
X145362021Y-123639466D01*
X145488969Y-123829457D01*
X145650543Y-123991031D01*
X145840534Y-124117979D01*
X146051640Y-124205422D01*
X146275750Y-124250000D01*
X146504250Y-124250000D01*
X146728360Y-124205422D01*
X146939466Y-124117979D01*
X147129457Y-123991031D01*
X147291031Y-123829457D01*
X147417979Y-123639466D01*
X147505422Y-123428360D01*
X147550000Y-123204250D01*
X147550000Y-122975750D01*
X147505422Y-122751640D01*
X147417979Y-122540534D01*
X147291031Y-122350543D01*
X147129457Y-122188969D01*
X146939466Y-122062021D01*
X146728360Y-121974578D01*
X146504250Y-121930000D01*
X146275750Y-121930000D01*
X146051640Y-121974578D01*
X145840534Y-122062021D01*
X145650543Y-122188969D01*
X145488969Y-122350543D01*
X145362021Y-122540534D01*
X145274578Y-122751640D01*
X145230000Y-122975750D01*
X141199701Y-122975750D01*
X141200000Y-122974250D01*
X141200000Y-122745750D01*
X141155422Y-122521640D01*
X141093511Y-122372174D01*
X142574063Y-120891622D01*
X145281445Y-120891622D01*
X145364563Y-121092309D01*
X145490066Y-121281941D01*
X145650153Y-121443445D01*
X145838671Y-121570615D01*
X146048377Y-121658563D01*
X146226000Y-121620856D01*
X146226000Y-120714000D01*
X146554000Y-120714000D01*
X146554000Y-121620856D01*
X146731623Y-121658563D01*
X146941329Y-121570615D01*
X147129847Y-121443445D01*
X147289934Y-121281941D01*
X147415437Y-121092309D01*
X147498555Y-120891622D01*
X147460005Y-120714000D01*
X146554000Y-120714000D01*
X146226000Y-120714000D01*
X145319995Y-120714000D01*
X145281445Y-120891622D01*
X142574063Y-120891622D01*
X142758954Y-120706732D01*
X142774211Y-120694211D01*
X142800956Y-120661623D01*
X142824196Y-120633304D01*
X142824197Y-120633303D01*
X142861340Y-120563814D01*
X142884212Y-120488414D01*
X142890000Y-120429647D01*
X142890000Y-120429637D01*
X142891934Y-120410001D01*
X142890000Y-120390365D01*
X142890000Y-120208378D01*
X145281445Y-120208378D01*
X145319995Y-120386000D01*
X146226000Y-120386000D01*
X146226000Y-119479144D01*
X146554000Y-119479144D01*
X146554000Y-120386000D01*
X147460005Y-120386000D01*
X147498555Y-120208378D01*
X147415437Y-120007691D01*
X147289934Y-119818059D01*
X147129847Y-119656555D01*
X146941329Y-119529385D01*
X146731623Y-119441437D01*
X146554000Y-119479144D01*
X146226000Y-119479144D01*
X146048377Y-119441437D01*
X145838671Y-119529385D01*
X145650153Y-119656555D01*
X145490066Y-119818059D01*
X145364563Y-120007691D01*
X145281445Y-120208378D01*
X142890000Y-120208378D01*
X142890000Y-117895750D01*
X145230000Y-117895750D01*
X145230000Y-118124250D01*
X145274578Y-118348360D01*
X145362021Y-118559466D01*
X145488969Y-118749457D01*
X145650543Y-118911031D01*
X145840534Y-119037979D01*
X146051640Y-119125422D01*
X146275750Y-119170000D01*
X146504250Y-119170000D01*
X146728360Y-119125422D01*
X146939466Y-119037979D01*
X147129457Y-118911031D01*
X147291031Y-118749457D01*
X147417979Y-118559466D01*
X147505422Y-118348360D01*
X147550000Y-118124250D01*
X147550000Y-117895750D01*
X147505422Y-117671640D01*
X147417979Y-117460534D01*
X147291031Y-117270543D01*
X147129457Y-117108969D01*
X146939466Y-116982021D01*
X146728360Y-116894578D01*
X146504250Y-116850000D01*
X146275750Y-116850000D01*
X146051640Y-116894578D01*
X145840534Y-116982021D01*
X145650543Y-117108969D01*
X145488969Y-117270543D01*
X145362021Y-117460534D01*
X145274578Y-117671640D01*
X145230000Y-117895750D01*
X142890000Y-117895750D01*
X142890000Y-108666475D01*
X143110001Y-108886476D01*
X143110000Y-115152384D01*
X143071913Y-115190471D01*
X143010190Y-115282846D01*
X142967674Y-115385487D01*
X142946000Y-115494451D01*
X142946000Y-115605549D01*
X142967674Y-115714513D01*
X143010190Y-115817154D01*
X143071913Y-115909529D01*
X143150471Y-115988087D01*
X143242846Y-116049810D01*
X143345487Y-116092326D01*
X143454451Y-116114000D01*
X143565549Y-116114000D01*
X143674513Y-116092326D01*
X143777154Y-116049810D01*
X143869529Y-115988087D01*
X143948087Y-115909529D01*
X144009810Y-115817154D01*
X144052326Y-115714513D01*
X144074000Y-115605549D01*
X144074000Y-115494451D01*
X144052326Y-115385487D01*
X144040009Y-115355750D01*
X145230000Y-115355750D01*
X145230000Y-115584250D01*
X145274578Y-115808360D01*
X145362021Y-116019466D01*
X145488969Y-116209457D01*
X145650543Y-116371031D01*
X145840534Y-116497979D01*
X146051640Y-116585422D01*
X146275750Y-116630000D01*
X146504250Y-116630000D01*
X146728360Y-116585422D01*
X146939466Y-116497979D01*
X147129457Y-116371031D01*
X147291031Y-116209457D01*
X147417979Y-116019466D01*
X147505422Y-115808360D01*
X147550000Y-115584250D01*
X147550000Y-115355750D01*
X147505422Y-115131640D01*
X147417979Y-114920534D01*
X147291031Y-114730543D01*
X147129457Y-114568969D01*
X146939466Y-114442021D01*
X146728360Y-114354578D01*
X146504250Y-114310000D01*
X146275750Y-114310000D01*
X146051640Y-114354578D01*
X145840534Y-114442021D01*
X145650543Y-114568969D01*
X145488969Y-114730543D01*
X145362021Y-114920534D01*
X145274578Y-115131640D01*
X145230000Y-115355750D01*
X144040009Y-115355750D01*
X144009810Y-115282846D01*
X143948087Y-115190471D01*
X143910000Y-115152384D01*
X143910000Y-112815750D01*
X145230000Y-112815750D01*
X145230000Y-113044250D01*
X145274578Y-113268360D01*
X145362021Y-113479466D01*
X145488969Y-113669457D01*
X145650543Y-113831031D01*
X145840534Y-113957979D01*
X146051640Y-114045422D01*
X146275750Y-114090000D01*
X146504250Y-114090000D01*
X146728360Y-114045422D01*
X146939466Y-113957979D01*
X147129457Y-113831031D01*
X147291031Y-113669457D01*
X147417979Y-113479466D01*
X147505422Y-113268360D01*
X147550000Y-113044250D01*
X147550000Y-112815750D01*
X147505422Y-112591640D01*
X147417979Y-112380534D01*
X147291031Y-112190543D01*
X147129457Y-112028969D01*
X146939466Y-111902021D01*
X146728360Y-111814578D01*
X146504250Y-111770000D01*
X146275750Y-111770000D01*
X146051640Y-111814578D01*
X145840534Y-111902021D01*
X145650543Y-112028969D01*
X145488969Y-112190543D01*
X145362021Y-112380534D01*
X145274578Y-112591640D01*
X145230000Y-112815750D01*
X143910000Y-112815750D01*
X143910000Y-110275750D01*
X145230000Y-110275750D01*
X145230000Y-110504250D01*
X145274578Y-110728360D01*
X145362021Y-110939466D01*
X145488969Y-111129457D01*
X145650543Y-111291031D01*
X145840534Y-111417979D01*
X146051640Y-111505422D01*
X146275750Y-111550000D01*
X146504250Y-111550000D01*
X146728360Y-111505422D01*
X146939466Y-111417979D01*
X147129457Y-111291031D01*
X147291031Y-111129457D01*
X147417979Y-110939466D01*
X147505422Y-110728360D01*
X147550000Y-110504250D01*
X147550000Y-110275750D01*
X147505422Y-110051640D01*
X147417979Y-109840534D01*
X147291031Y-109650543D01*
X147129457Y-109488969D01*
X146939466Y-109362021D01*
X146728360Y-109274578D01*
X146504250Y-109230000D01*
X146275750Y-109230000D01*
X146051640Y-109274578D01*
X145840534Y-109362021D01*
X145650543Y-109488969D01*
X145488969Y-109650543D01*
X145362021Y-109840534D01*
X145274578Y-110051640D01*
X145230000Y-110275750D01*
X143910000Y-110275750D01*
X143910000Y-108740437D01*
X143911935Y-108720790D01*
X143904212Y-108642376D01*
X143881340Y-108566976D01*
X143844197Y-108497487D01*
X143821478Y-108469804D01*
X143794211Y-108436579D01*
X143778948Y-108424053D01*
X143546517Y-108191622D01*
X145281445Y-108191622D01*
X145364563Y-108392309D01*
X145490066Y-108581941D01*
X145650153Y-108743445D01*
X145838671Y-108870615D01*
X146048377Y-108958563D01*
X146226000Y-108920856D01*
X146226000Y-108014000D01*
X146554000Y-108014000D01*
X146554000Y-108920856D01*
X146731623Y-108958563D01*
X146941329Y-108870615D01*
X147129847Y-108743445D01*
X147289934Y-108581941D01*
X147415437Y-108392309D01*
X147498555Y-108191622D01*
X147460005Y-108014000D01*
X146554000Y-108014000D01*
X146226000Y-108014000D01*
X145319995Y-108014000D01*
X145281445Y-108191622D01*
X143546517Y-108191622D01*
X142863273Y-107508378D01*
X145281445Y-107508378D01*
X145319995Y-107686000D01*
X146226000Y-107686000D01*
X146226000Y-106779144D01*
X146554000Y-106779144D01*
X146554000Y-107686000D01*
X147460005Y-107686000D01*
X147498555Y-107508378D01*
X147415437Y-107307691D01*
X147289934Y-107118059D01*
X147129847Y-106956555D01*
X146941329Y-106829385D01*
X146731623Y-106741437D01*
X146554000Y-106779144D01*
X146226000Y-106779144D01*
X146048377Y-106741437D01*
X145838671Y-106829385D01*
X145650153Y-106956555D01*
X145490066Y-107118059D01*
X145364563Y-107307691D01*
X145281445Y-107508378D01*
X142863273Y-107508378D01*
X140755894Y-105400999D01*
X140743368Y-105385736D01*
X140682460Y-105335750D01*
X140612971Y-105298607D01*
X140537571Y-105275735D01*
X140478804Y-105269947D01*
X140478803Y-105269947D01*
X140459157Y-105268012D01*
X140439511Y-105269947D01*
X140425289Y-105269947D01*
X140387202Y-105231860D01*
X140333160Y-105195750D01*
X145230000Y-105195750D01*
X145230000Y-105424250D01*
X145274578Y-105648360D01*
X145362021Y-105859466D01*
X145488969Y-106049457D01*
X145650543Y-106211031D01*
X145840534Y-106337979D01*
X146051640Y-106425422D01*
X146275750Y-106470000D01*
X146504250Y-106470000D01*
X146728360Y-106425422D01*
X146939466Y-106337979D01*
X147129457Y-106211031D01*
X147291031Y-106049457D01*
X147417979Y-105859466D01*
X147505422Y-105648360D01*
X147550000Y-105424250D01*
X147550000Y-105195750D01*
X147505422Y-104971640D01*
X147417979Y-104760534D01*
X147291031Y-104570543D01*
X147129457Y-104408969D01*
X146939466Y-104282021D01*
X146728360Y-104194578D01*
X146504250Y-104150000D01*
X146275750Y-104150000D01*
X146051640Y-104194578D01*
X145840534Y-104282021D01*
X145650543Y-104408969D01*
X145488969Y-104570543D01*
X145362021Y-104760534D01*
X145274578Y-104971640D01*
X145230000Y-105195750D01*
X140333160Y-105195750D01*
X140294827Y-105170137D01*
X140281195Y-105164491D01*
X140288954Y-105156732D01*
X140304211Y-105144211D01*
X140354197Y-105083303D01*
X140391340Y-105013814D01*
X140414212Y-104938414D01*
X140420000Y-104879647D01*
X140420000Y-104879646D01*
X140421935Y-104860000D01*
X140420000Y-104840354D01*
X140420000Y-102655750D01*
X145230000Y-102655750D01*
X145230000Y-102884250D01*
X145274578Y-103108360D01*
X145362021Y-103319466D01*
X145488969Y-103509457D01*
X145650543Y-103671031D01*
X145840534Y-103797979D01*
X146051640Y-103885422D01*
X146275750Y-103930000D01*
X146504250Y-103930000D01*
X146728360Y-103885422D01*
X146939466Y-103797979D01*
X147129457Y-103671031D01*
X147291031Y-103509457D01*
X147417979Y-103319466D01*
X147505422Y-103108360D01*
X147550000Y-102884250D01*
X147550000Y-102655750D01*
X147505422Y-102431640D01*
X147417979Y-102220534D01*
X147291031Y-102030543D01*
X147129457Y-101868969D01*
X146939466Y-101742021D01*
X146728360Y-101654578D01*
X146504250Y-101610000D01*
X146275750Y-101610000D01*
X146051640Y-101654578D01*
X145840534Y-101742021D01*
X145650543Y-101868969D01*
X145488969Y-102030543D01*
X145362021Y-102220534D01*
X145274578Y-102431640D01*
X145230000Y-102655750D01*
X140420000Y-102655750D01*
X140420000Y-102397616D01*
X140458087Y-102359529D01*
X140519810Y-102267154D01*
X140562326Y-102164513D01*
X140584000Y-102055549D01*
X140584000Y-101944451D01*
X140562326Y-101835487D01*
X140519810Y-101732846D01*
X140458087Y-101640471D01*
X140379529Y-101561913D01*
X140287154Y-101500190D01*
X140184513Y-101457674D01*
X140075549Y-101436000D01*
X139964451Y-101436000D01*
X139855487Y-101457674D01*
X139820000Y-101472373D01*
X139820000Y-100115750D01*
X145230000Y-100115750D01*
X145230000Y-100344250D01*
X145274578Y-100568360D01*
X145362021Y-100779466D01*
X145488969Y-100969457D01*
X145650543Y-101131031D01*
X145840534Y-101257979D01*
X146051640Y-101345422D01*
X146275750Y-101390000D01*
X146504250Y-101390000D01*
X146728360Y-101345422D01*
X146939466Y-101257979D01*
X147129457Y-101131031D01*
X147291031Y-100969457D01*
X147417979Y-100779466D01*
X147505422Y-100568360D01*
X147550000Y-100344250D01*
X147550000Y-100115750D01*
X147505422Y-99891640D01*
X147417979Y-99680534D01*
X147291031Y-99490543D01*
X147129457Y-99328969D01*
X146939466Y-99202021D01*
X146728360Y-99114578D01*
X146504250Y-99070000D01*
X146275750Y-99070000D01*
X146051640Y-99114578D01*
X145840534Y-99202021D01*
X145650543Y-99328969D01*
X145488969Y-99490543D01*
X145362021Y-99680534D01*
X145274578Y-99891640D01*
X145230000Y-100115750D01*
X139820000Y-100115750D01*
X139820000Y-97575750D01*
X145230000Y-97575750D01*
X145230000Y-97804250D01*
X145274578Y-98028360D01*
X145362021Y-98239466D01*
X145488969Y-98429457D01*
X145650543Y-98591031D01*
X145840534Y-98717979D01*
X146051640Y-98805422D01*
X146275750Y-98850000D01*
X146504250Y-98850000D01*
X146728360Y-98805422D01*
X146939466Y-98717979D01*
X147129457Y-98591031D01*
X147291031Y-98429457D01*
X147417979Y-98239466D01*
X147505422Y-98028360D01*
X147550000Y-97804250D01*
X147550000Y-97575750D01*
X147505422Y-97351640D01*
X147417979Y-97140534D01*
X147291031Y-96950543D01*
X147129457Y-96788969D01*
X146939466Y-96662021D01*
X146728360Y-96574578D01*
X146504250Y-96530000D01*
X146275750Y-96530000D01*
X146051640Y-96574578D01*
X145840534Y-96662021D01*
X145650543Y-96788969D01*
X145488969Y-96950543D01*
X145362021Y-97140534D01*
X145274578Y-97351640D01*
X145230000Y-97575750D01*
X139820000Y-97575750D01*
X139820000Y-95491622D01*
X145281445Y-95491622D01*
X145364563Y-95692309D01*
X145490066Y-95881941D01*
X145650153Y-96043445D01*
X145838671Y-96170615D01*
X146048377Y-96258563D01*
X146226000Y-96220856D01*
X146226000Y-95314000D01*
X146554000Y-95314000D01*
X146554000Y-96220856D01*
X146731623Y-96258563D01*
X146941329Y-96170615D01*
X147129847Y-96043445D01*
X147289934Y-95881941D01*
X147415437Y-95692309D01*
X147498555Y-95491622D01*
X147460005Y-95314000D01*
X146554000Y-95314000D01*
X146226000Y-95314000D01*
X145319995Y-95314000D01*
X145281445Y-95491622D01*
X139820000Y-95491622D01*
X139820000Y-95477157D01*
X139864197Y-95423303D01*
X139901340Y-95353814D01*
X139924212Y-95278414D01*
X139930000Y-95219647D01*
X139930000Y-95219637D01*
X139931934Y-95200001D01*
X139930000Y-95180365D01*
X139930000Y-95100002D01*
X143272386Y-95100002D01*
X143310471Y-95138087D01*
X143402846Y-95199810D01*
X143505487Y-95242326D01*
X143614451Y-95264000D01*
X143725549Y-95264000D01*
X143834513Y-95242326D01*
X143937154Y-95199810D01*
X144029529Y-95138087D01*
X144108087Y-95059529D01*
X144169810Y-94967154D01*
X144212326Y-94864513D01*
X144223491Y-94808378D01*
X145281445Y-94808378D01*
X145319995Y-94986000D01*
X146226000Y-94986000D01*
X146226000Y-94079144D01*
X146554000Y-94079144D01*
X146554000Y-94986000D01*
X147460005Y-94986000D01*
X147498555Y-94808378D01*
X147415437Y-94607691D01*
X147289934Y-94418059D01*
X147129847Y-94256555D01*
X146941329Y-94129385D01*
X146731623Y-94041437D01*
X146554000Y-94079144D01*
X146226000Y-94079144D01*
X146048377Y-94041437D01*
X145838671Y-94129385D01*
X145650153Y-94256555D01*
X145490066Y-94418059D01*
X145364563Y-94607691D01*
X145281445Y-94808378D01*
X144223491Y-94808378D01*
X144234000Y-94755549D01*
X144234000Y-94644451D01*
X144212326Y-94535487D01*
X144169810Y-94432846D01*
X144108087Y-94340471D01*
X144029529Y-94261913D01*
X143937154Y-94200190D01*
X143834513Y-94157674D01*
X143725549Y-94136000D01*
X143614451Y-94136000D01*
X143505487Y-94157674D01*
X143402846Y-94200190D01*
X143310471Y-94261913D01*
X143272382Y-94300002D01*
X139927616Y-94300002D01*
X139889529Y-94261915D01*
X139797154Y-94200192D01*
X139694513Y-94157676D01*
X139585549Y-94136002D01*
X139474451Y-94136002D01*
X139365487Y-94157676D01*
X139262846Y-94200192D01*
X139170471Y-94261915D01*
X139091913Y-94340473D01*
X139030190Y-94432848D01*
X138987674Y-94535489D01*
X138966000Y-94644453D01*
X138966000Y-94755551D01*
X138987674Y-94864515D01*
X139030190Y-94967156D01*
X139091913Y-95059531D01*
X139100803Y-95068421D01*
X139085803Y-95086698D01*
X139048660Y-95156187D01*
X139029410Y-95219647D01*
X139025788Y-95231587D01*
X139018065Y-95310000D01*
X139020000Y-95329646D01*
X139020001Y-104728614D01*
X138108615Y-105640000D01*
X131455686Y-105640000D01*
X131250000Y-105434315D01*
X131250000Y-97747616D01*
X131288087Y-97709529D01*
X131349810Y-97617154D01*
X131392326Y-97514513D01*
X131414000Y-97405549D01*
X131414000Y-97294451D01*
X131392326Y-97185487D01*
X131349810Y-97082846D01*
X131288087Y-96990471D01*
X131209529Y-96911913D01*
X131117154Y-96850190D01*
X131014513Y-96807674D01*
X130905549Y-96786000D01*
X130794451Y-96786000D01*
X130685487Y-96807674D01*
X130582846Y-96850190D01*
X130490471Y-96911913D01*
X130411913Y-96990471D01*
X130350190Y-97082846D01*
X130307674Y-97185487D01*
X130286000Y-97294451D01*
X130286000Y-97405549D01*
X130307674Y-97514513D01*
X130350190Y-97617154D01*
X130411913Y-97709529D01*
X130450001Y-97747617D01*
X130450000Y-105580354D01*
X130448065Y-105600000D01*
X130450000Y-105619646D01*
X130455788Y-105678413D01*
X130478660Y-105753813D01*
X130515803Y-105823302D01*
X130565789Y-105884211D01*
X130581052Y-105896737D01*
X130911465Y-106227151D01*
X130281052Y-106857564D01*
X130265789Y-106870090D01*
X130215803Y-106930999D01*
X130178660Y-107000488D01*
X130160738Y-107059570D01*
X130155788Y-107075888D01*
X130148065Y-107154301D01*
X130150000Y-107173947D01*
X130150001Y-120750343D01*
X130148065Y-120770000D01*
X130155788Y-120848413D01*
X130178661Y-120923814D01*
X130215803Y-120993302D01*
X130253265Y-121038950D01*
X130253268Y-121038953D01*
X130265790Y-121054211D01*
X130281048Y-121066733D01*
X132999988Y-123785673D01*
X132999989Y-124347976D01*
X132856381Y-124133051D01*
X132666949Y-123943619D01*
X132444201Y-123794784D01*
X132196697Y-123692264D01*
X131933948Y-123640000D01*
X131666052Y-123640000D01*
X131403303Y-123692264D01*
X131155799Y-123794784D01*
X130933051Y-123943619D01*
X130743619Y-124133051D01*
X130594784Y-124355799D01*
X130492264Y-124603303D01*
X130440000Y-124866052D01*
X130440000Y-125133948D01*
X130492264Y-125396697D01*
X130594784Y-125644201D01*
X130743619Y-125866949D01*
X130933051Y-126056381D01*
X131155799Y-126205216D01*
X131403303Y-126307736D01*
X131666052Y-126360000D01*
X131933948Y-126360000D01*
X132196697Y-126307736D01*
X132444201Y-126205216D01*
X132666949Y-126056381D01*
X132856381Y-125866949D01*
X133005216Y-125644201D01*
X133107736Y-125396697D01*
X133149757Y-125185442D01*
X133633267Y-125668953D01*
X133645789Y-125684211D01*
X133661047Y-125696733D01*
X133661049Y-125696735D01*
X133692982Y-125722941D01*
X133706697Y-125734197D01*
X133776186Y-125771340D01*
X133798501Y-125778109D01*
X133798501Y-126250000D01*
X133804486Y-126310770D01*
X133822212Y-126369206D01*
X133850998Y-126423060D01*
X133889737Y-126470263D01*
X133936940Y-126509002D01*
X133990794Y-126537788D01*
X134049230Y-126555514D01*
X134110000Y-126561499D01*
X134560000Y-126561499D01*
X134560001Y-128048501D01*
X134110000Y-128048501D01*
X134049230Y-128054486D01*
X133990794Y-128072212D01*
X133936940Y-128100998D01*
X133889737Y-128139737D01*
X133850998Y-128186940D01*
X133822212Y-128240794D01*
X133804486Y-128299230D01*
X133798501Y-128360000D01*
X133798501Y-130060000D01*
X133804486Y-130120770D01*
X133817903Y-130165000D01*
X133683329Y-130165000D01*
X127157314Y-126704235D01*
X127128819Y-126689004D01*
X127112461Y-126684042D01*
X127096659Y-126677557D01*
X127080976Y-126674491D01*
X127065671Y-126669848D01*
X127048659Y-126668172D01*
X127031895Y-126664895D01*
X126999966Y-126665000D01*
X125135000Y-126665000D01*
X125135000Y-125515750D01*
X127450000Y-125515750D01*
X127450000Y-125744250D01*
X127494578Y-125968360D01*
X127582021Y-126179466D01*
X127708969Y-126369457D01*
X127870543Y-126531031D01*
X128060534Y-126657979D01*
X128271640Y-126745422D01*
X128495750Y-126790000D01*
X128724250Y-126790000D01*
X128948360Y-126745422D01*
X129159466Y-126657979D01*
X129349457Y-126531031D01*
X129511031Y-126369457D01*
X129637979Y-126179466D01*
X129725422Y-125968360D01*
X129770000Y-125744250D01*
X129770000Y-125515750D01*
X129725422Y-125291640D01*
X129637979Y-125080534D01*
X129511031Y-124890543D01*
X129349457Y-124728969D01*
X129159466Y-124602021D01*
X128948360Y-124514578D01*
X128724250Y-124470000D01*
X128495750Y-124470000D01*
X128271640Y-124514578D01*
X128060534Y-124602021D01*
X127870543Y-124728969D01*
X127708969Y-124890543D01*
X127582021Y-125080534D01*
X127494578Y-125291640D01*
X127450000Y-125515750D01*
X125135000Y-125515750D01*
X125135000Y-122975750D01*
X127450000Y-122975750D01*
X127450000Y-123204250D01*
X127494578Y-123428360D01*
X127582021Y-123639466D01*
X127708969Y-123829457D01*
X127870543Y-123991031D01*
X128060534Y-124117979D01*
X128271640Y-124205422D01*
X128495750Y-124250000D01*
X128724250Y-124250000D01*
X128948360Y-124205422D01*
X129159466Y-124117979D01*
X129349457Y-123991031D01*
X129511031Y-123829457D01*
X129637979Y-123639466D01*
X129725422Y-123428360D01*
X129770000Y-123204250D01*
X129770000Y-122975750D01*
X129725422Y-122751640D01*
X129637979Y-122540534D01*
X129511031Y-122350543D01*
X129349457Y-122188969D01*
X129159466Y-122062021D01*
X128948360Y-121974578D01*
X128724250Y-121930000D01*
X128495750Y-121930000D01*
X128271640Y-121974578D01*
X128060534Y-122062021D01*
X127870543Y-122188969D01*
X127708969Y-122350543D01*
X127582021Y-122540534D01*
X127494578Y-122751640D01*
X127450000Y-122975750D01*
X125135000Y-122975750D01*
X125135000Y-120891622D01*
X127501445Y-120891622D01*
X127584563Y-121092309D01*
X127710066Y-121281941D01*
X127870153Y-121443445D01*
X128058671Y-121570615D01*
X128268377Y-121658563D01*
X128446000Y-121620856D01*
X128446000Y-120714000D01*
X128774000Y-120714000D01*
X128774000Y-121620856D01*
X128951623Y-121658563D01*
X129161329Y-121570615D01*
X129349847Y-121443445D01*
X129509934Y-121281941D01*
X129635437Y-121092309D01*
X129718555Y-120891622D01*
X129680005Y-120714000D01*
X128774000Y-120714000D01*
X128446000Y-120714000D01*
X127539995Y-120714000D01*
X127501445Y-120891622D01*
X125135000Y-120891622D01*
X125135000Y-120208378D01*
X127501445Y-120208378D01*
X127539995Y-120386000D01*
X128446000Y-120386000D01*
X128446000Y-119479144D01*
X128774000Y-119479144D01*
X128774000Y-120386000D01*
X129680005Y-120386000D01*
X129718555Y-120208378D01*
X129635437Y-120007691D01*
X129509934Y-119818059D01*
X129349847Y-119656555D01*
X129161329Y-119529385D01*
X128951623Y-119441437D01*
X128774000Y-119479144D01*
X128446000Y-119479144D01*
X128268377Y-119441437D01*
X128058671Y-119529385D01*
X127870153Y-119656555D01*
X127710066Y-119818059D01*
X127584563Y-120007691D01*
X127501445Y-120208378D01*
X125135000Y-120208378D01*
X125135000Y-117895750D01*
X127450000Y-117895750D01*
X127450000Y-118124250D01*
X127494578Y-118348360D01*
X127582021Y-118559466D01*
X127708969Y-118749457D01*
X127870543Y-118911031D01*
X128060534Y-119037979D01*
X128271640Y-119125422D01*
X128495750Y-119170000D01*
X128724250Y-119170000D01*
X128948360Y-119125422D01*
X129159466Y-119037979D01*
X129349457Y-118911031D01*
X129511031Y-118749457D01*
X129637979Y-118559466D01*
X129725422Y-118348360D01*
X129770000Y-118124250D01*
X129770000Y-117895750D01*
X129725422Y-117671640D01*
X129637979Y-117460534D01*
X129511031Y-117270543D01*
X129349457Y-117108969D01*
X129159466Y-116982021D01*
X128948360Y-116894578D01*
X128724250Y-116850000D01*
X128495750Y-116850000D01*
X128271640Y-116894578D01*
X128060534Y-116982021D01*
X127870543Y-117108969D01*
X127708969Y-117270543D01*
X127582021Y-117460534D01*
X127494578Y-117671640D01*
X127450000Y-117895750D01*
X125135000Y-117895750D01*
X125135000Y-115355750D01*
X127450000Y-115355750D01*
X127450000Y-115584250D01*
X127494578Y-115808360D01*
X127582021Y-116019466D01*
X127708969Y-116209457D01*
X127870543Y-116371031D01*
X128060534Y-116497979D01*
X128271640Y-116585422D01*
X128495750Y-116630000D01*
X128724250Y-116630000D01*
X128948360Y-116585422D01*
X129159466Y-116497979D01*
X129349457Y-116371031D01*
X129511031Y-116209457D01*
X129637979Y-116019466D01*
X129725422Y-115808360D01*
X129770000Y-115584250D01*
X129770000Y-115355750D01*
X129725422Y-115131640D01*
X129637979Y-114920534D01*
X129511031Y-114730543D01*
X129349457Y-114568969D01*
X129159466Y-114442021D01*
X128948360Y-114354578D01*
X128724250Y-114310000D01*
X128495750Y-114310000D01*
X128271640Y-114354578D01*
X128060534Y-114442021D01*
X127870543Y-114568969D01*
X127708969Y-114730543D01*
X127582021Y-114920534D01*
X127494578Y-115131640D01*
X127450000Y-115355750D01*
X125135000Y-115355750D01*
X125135000Y-112815750D01*
X127450000Y-112815750D01*
X127450000Y-113044250D01*
X127494578Y-113268360D01*
X127582021Y-113479466D01*
X127708969Y-113669457D01*
X127870543Y-113831031D01*
X128060534Y-113957979D01*
X128271640Y-114045422D01*
X128495750Y-114090000D01*
X128724250Y-114090000D01*
X128948360Y-114045422D01*
X129159466Y-113957979D01*
X129349457Y-113831031D01*
X129511031Y-113669457D01*
X129637979Y-113479466D01*
X129725422Y-113268360D01*
X129770000Y-113044250D01*
X129770000Y-112815750D01*
X129725422Y-112591640D01*
X129637979Y-112380534D01*
X129511031Y-112190543D01*
X129349457Y-112028969D01*
X129159466Y-111902021D01*
X128948360Y-111814578D01*
X128724250Y-111770000D01*
X128495750Y-111770000D01*
X128271640Y-111814578D01*
X128060534Y-111902021D01*
X127870543Y-112028969D01*
X127708969Y-112190543D01*
X127582021Y-112380534D01*
X127494578Y-112591640D01*
X127450000Y-112815750D01*
X125135000Y-112815750D01*
X125135000Y-110275750D01*
X127450000Y-110275750D01*
X127450000Y-110504250D01*
X127494578Y-110728360D01*
X127582021Y-110939466D01*
X127708969Y-111129457D01*
X127870543Y-111291031D01*
X128060534Y-111417979D01*
X128271640Y-111505422D01*
X128495750Y-111550000D01*
X128724250Y-111550000D01*
X128948360Y-111505422D01*
X129159466Y-111417979D01*
X129349457Y-111291031D01*
X129511031Y-111129457D01*
X129637979Y-110939466D01*
X129725422Y-110728360D01*
X129770000Y-110504250D01*
X129770000Y-110275750D01*
X129725422Y-110051640D01*
X129637979Y-109840534D01*
X129511031Y-109650543D01*
X129349457Y-109488969D01*
X129159466Y-109362021D01*
X128948360Y-109274578D01*
X128724250Y-109230000D01*
X128495750Y-109230000D01*
X128271640Y-109274578D01*
X128060534Y-109362021D01*
X127870543Y-109488969D01*
X127708969Y-109650543D01*
X127582021Y-109840534D01*
X127494578Y-110051640D01*
X127450000Y-110275750D01*
X125135000Y-110275750D01*
X125135000Y-108191622D01*
X127501445Y-108191622D01*
X127584563Y-108392309D01*
X127710066Y-108581941D01*
X127870153Y-108743445D01*
X128058671Y-108870615D01*
X128268377Y-108958563D01*
X128446000Y-108920856D01*
X128446000Y-108014000D01*
X128774000Y-108014000D01*
X128774000Y-108920856D01*
X128951623Y-108958563D01*
X129161329Y-108870615D01*
X129349847Y-108743445D01*
X129509934Y-108581941D01*
X129635437Y-108392309D01*
X129718555Y-108191622D01*
X129680005Y-108014000D01*
X128774000Y-108014000D01*
X128446000Y-108014000D01*
X127539995Y-108014000D01*
X127501445Y-108191622D01*
X125135000Y-108191622D01*
X125135000Y-107508378D01*
X127501445Y-107508378D01*
X127539995Y-107686000D01*
X128446000Y-107686000D01*
X128446000Y-106779144D01*
X128774000Y-106779144D01*
X128774000Y-107686000D01*
X129680005Y-107686000D01*
X129718555Y-107508378D01*
X129635437Y-107307691D01*
X129509934Y-107118059D01*
X129349847Y-106956555D01*
X129161329Y-106829385D01*
X128951623Y-106741437D01*
X128774000Y-106779144D01*
X128446000Y-106779144D01*
X128268377Y-106741437D01*
X128058671Y-106829385D01*
X127870153Y-106956555D01*
X127710066Y-107118059D01*
X127584563Y-107307691D01*
X127501445Y-107508378D01*
X125135000Y-107508378D01*
X125135000Y-105195750D01*
X127450000Y-105195750D01*
X127450000Y-105424250D01*
X127494578Y-105648360D01*
X127582021Y-105859466D01*
X127708969Y-106049457D01*
X127870543Y-106211031D01*
X128060534Y-106337979D01*
X128271640Y-106425422D01*
X128495750Y-106470000D01*
X128724250Y-106470000D01*
X128948360Y-106425422D01*
X129159466Y-106337979D01*
X129349457Y-106211031D01*
X129511031Y-106049457D01*
X129637979Y-105859466D01*
X129725422Y-105648360D01*
X129770000Y-105424250D01*
X129770000Y-105195750D01*
X129725422Y-104971640D01*
X129637979Y-104760534D01*
X129511031Y-104570543D01*
X129349457Y-104408969D01*
X129159466Y-104282021D01*
X128948360Y-104194578D01*
X128724250Y-104150000D01*
X128495750Y-104150000D01*
X128271640Y-104194578D01*
X128060534Y-104282021D01*
X127870543Y-104408969D01*
X127708969Y-104570543D01*
X127582021Y-104760534D01*
X127494578Y-104971640D01*
X127450000Y-105195750D01*
X125135000Y-105195750D01*
X125135000Y-102655750D01*
X127450000Y-102655750D01*
X127450000Y-102884250D01*
X127494578Y-103108360D01*
X127582021Y-103319466D01*
X127708969Y-103509457D01*
X127870543Y-103671031D01*
X128060534Y-103797979D01*
X128271640Y-103885422D01*
X128495750Y-103930000D01*
X128724250Y-103930000D01*
X128948360Y-103885422D01*
X129159466Y-103797979D01*
X129349457Y-103671031D01*
X129511031Y-103509457D01*
X129637979Y-103319466D01*
X129725422Y-103108360D01*
X129770000Y-102884250D01*
X129770000Y-102655750D01*
X129725422Y-102431640D01*
X129637979Y-102220534D01*
X129511031Y-102030543D01*
X129349457Y-101868969D01*
X129159466Y-101742021D01*
X128948360Y-101654578D01*
X128724250Y-101610000D01*
X128495750Y-101610000D01*
X128271640Y-101654578D01*
X128060534Y-101742021D01*
X127870543Y-101868969D01*
X127708969Y-102030543D01*
X127582021Y-102220534D01*
X127494578Y-102431640D01*
X127450000Y-102655750D01*
X125135000Y-102655750D01*
X125135000Y-100115750D01*
X127450000Y-100115750D01*
X127450000Y-100344250D01*
X127494578Y-100568360D01*
X127582021Y-100779466D01*
X127708969Y-100969457D01*
X127870543Y-101131031D01*
X128060534Y-101257979D01*
X128271640Y-101345422D01*
X128495750Y-101390000D01*
X128724250Y-101390000D01*
X128948360Y-101345422D01*
X129159466Y-101257979D01*
X129349457Y-101131031D01*
X129511031Y-100969457D01*
X129637979Y-100779466D01*
X129725422Y-100568360D01*
X129770000Y-100344250D01*
X129770000Y-100115750D01*
X129725422Y-99891640D01*
X129637979Y-99680534D01*
X129511031Y-99490543D01*
X129349457Y-99328969D01*
X129159466Y-99202021D01*
X128948360Y-99114578D01*
X128724250Y-99070000D01*
X128495750Y-99070000D01*
X128271640Y-99114578D01*
X128060534Y-99202021D01*
X127870543Y-99328969D01*
X127708969Y-99490543D01*
X127582021Y-99680534D01*
X127494578Y-99891640D01*
X127450000Y-100115750D01*
X125135000Y-100115750D01*
X125135000Y-97575750D01*
X127450000Y-97575750D01*
X127450000Y-97804250D01*
X127494578Y-98028360D01*
X127582021Y-98239466D01*
X127708969Y-98429457D01*
X127870543Y-98591031D01*
X128060534Y-98717979D01*
X128271640Y-98805422D01*
X128495750Y-98850000D01*
X128724250Y-98850000D01*
X128948360Y-98805422D01*
X129159466Y-98717979D01*
X129349457Y-98591031D01*
X129511031Y-98429457D01*
X129637979Y-98239466D01*
X129725422Y-98028360D01*
X129770000Y-97804250D01*
X129770000Y-97575750D01*
X129725422Y-97351640D01*
X129637979Y-97140534D01*
X129511031Y-96950543D01*
X129349457Y-96788969D01*
X129159466Y-96662021D01*
X128948360Y-96574578D01*
X128724250Y-96530000D01*
X128495750Y-96530000D01*
X128271640Y-96574578D01*
X128060534Y-96662021D01*
X127870543Y-96788969D01*
X127708969Y-96950543D01*
X127582021Y-97140534D01*
X127494578Y-97351640D01*
X127450000Y-97575750D01*
X125135000Y-97575750D01*
X125135000Y-95491622D01*
X127501445Y-95491622D01*
X127584563Y-95692309D01*
X127710066Y-95881941D01*
X127870153Y-96043445D01*
X128058671Y-96170615D01*
X128268377Y-96258563D01*
X128446000Y-96220856D01*
X128446000Y-95314000D01*
X128774000Y-95314000D01*
X128774000Y-96220856D01*
X128951623Y-96258563D01*
X129161329Y-96170615D01*
X129349847Y-96043445D01*
X129509934Y-95881941D01*
X129635437Y-95692309D01*
X129718555Y-95491622D01*
X129680005Y-95314000D01*
X128774000Y-95314000D01*
X128446000Y-95314000D01*
X127539995Y-95314000D01*
X127501445Y-95491622D01*
X125135000Y-95491622D01*
X125135000Y-94808378D01*
X127501445Y-94808378D01*
X127539995Y-94986000D01*
X128446000Y-94986000D01*
X128446000Y-94079144D01*
X128774000Y-94079144D01*
X128774000Y-94986000D01*
X129680005Y-94986000D01*
X129718555Y-94808378D01*
X129635437Y-94607691D01*
X129509934Y-94418059D01*
X129349847Y-94256555D01*
X129161329Y-94129385D01*
X128951623Y-94041437D01*
X128774000Y-94079144D01*
X128446000Y-94079144D01*
X128268377Y-94041437D01*
X128058671Y-94129385D01*
X127870153Y-94256555D01*
X127710066Y-94418059D01*
X127584563Y-94607691D01*
X127501445Y-94808378D01*
X125135000Y-94808378D01*
X125135000Y-92495750D01*
X127450000Y-92495750D01*
X127450000Y-92724250D01*
X127494578Y-92948360D01*
X127582021Y-93159466D01*
X127708969Y-93349457D01*
X127870543Y-93511031D01*
X128060534Y-93637979D01*
X128271640Y-93725422D01*
X128495750Y-93770000D01*
X128724250Y-93770000D01*
X128948360Y-93725422D01*
X129159466Y-93637979D01*
X129349457Y-93511031D01*
X129511031Y-93349457D01*
X129637979Y-93159466D01*
X129725422Y-92948360D01*
X129770000Y-92724250D01*
X129770000Y-92495750D01*
X129725422Y-92271640D01*
X129637979Y-92060534D01*
X129511031Y-91870543D01*
X129349457Y-91708969D01*
X129159466Y-91582021D01*
X128948360Y-91494578D01*
X128724250Y-91450000D01*
X128495750Y-91450000D01*
X128271640Y-91494578D01*
X128060534Y-91582021D01*
X127870543Y-91708969D01*
X127708969Y-91870543D01*
X127582021Y-92060534D01*
X127494578Y-92271640D01*
X127450000Y-92495750D01*
X125135000Y-92495750D01*
X125135000Y-89955750D01*
X127450000Y-89955750D01*
X127450000Y-90184250D01*
X127494578Y-90408360D01*
X127582021Y-90619466D01*
X127708969Y-90809457D01*
X127870543Y-90971031D01*
X128060534Y-91097979D01*
X128271640Y-91185422D01*
X128495750Y-91230000D01*
X128724250Y-91230000D01*
X128948360Y-91185422D01*
X129159466Y-91097979D01*
X129349457Y-90971031D01*
X129511031Y-90809457D01*
X129637979Y-90619466D01*
X129725422Y-90408360D01*
X129770000Y-90184250D01*
X129770000Y-89955750D01*
X129725422Y-89731640D01*
X129637979Y-89520534D01*
X129511031Y-89330543D01*
X129349457Y-89168969D01*
X129159466Y-89042021D01*
X128948360Y-88954578D01*
X128724250Y-88910000D01*
X128495750Y-88910000D01*
X128271640Y-88954578D01*
X128060534Y-89042021D01*
X127870543Y-89168969D01*
X127708969Y-89330543D01*
X127582021Y-89520534D01*
X127494578Y-89731640D01*
X127450000Y-89955750D01*
X125135000Y-89955750D01*
X125135000Y-87415750D01*
X127450000Y-87415750D01*
X127450000Y-87644250D01*
X127494578Y-87868360D01*
X127582021Y-88079466D01*
X127708969Y-88269457D01*
X127870543Y-88431031D01*
X128060534Y-88557979D01*
X128271640Y-88645422D01*
X128495750Y-88690000D01*
X128724250Y-88690000D01*
X128948360Y-88645422D01*
X129159466Y-88557979D01*
X129349457Y-88431031D01*
X129511031Y-88269457D01*
X129637979Y-88079466D01*
X129725422Y-87868360D01*
X129770000Y-87644250D01*
X129770000Y-87415750D01*
X129725422Y-87191640D01*
X129637979Y-86980534D01*
X129511031Y-86790543D01*
X129349457Y-86628969D01*
X129159466Y-86502021D01*
X128948360Y-86414578D01*
X128724250Y-86370000D01*
X128495750Y-86370000D01*
X128271640Y-86414578D01*
X128060534Y-86502021D01*
X127870543Y-86628969D01*
X127708969Y-86790543D01*
X127582021Y-86980534D01*
X127494578Y-87191640D01*
X127450000Y-87415750D01*
X125135000Y-87415750D01*
X125135000Y-84875750D01*
X127450000Y-84875750D01*
X127450000Y-85104250D01*
X127494578Y-85328360D01*
X127582021Y-85539466D01*
X127708969Y-85729457D01*
X127870543Y-85891031D01*
X128060534Y-86017979D01*
X128271640Y-86105422D01*
X128495750Y-86150000D01*
X128724250Y-86150000D01*
X128948360Y-86105422D01*
X129159466Y-86017979D01*
X129349457Y-85891031D01*
X129511031Y-85729457D01*
X129637979Y-85539466D01*
X129725422Y-85328360D01*
X129770000Y-85104250D01*
X129770000Y-84875750D01*
X129725422Y-84651640D01*
X129637979Y-84440534D01*
X129511031Y-84250543D01*
X129349457Y-84088969D01*
X129159466Y-83962021D01*
X128948360Y-83874578D01*
X128724250Y-83830000D01*
X128495750Y-83830000D01*
X128271640Y-83874578D01*
X128060534Y-83962021D01*
X127870543Y-84088969D01*
X127708969Y-84250543D01*
X127582021Y-84440534D01*
X127494578Y-84651640D01*
X127450000Y-84875750D01*
X125135000Y-84875750D01*
X125135000Y-83300000D01*
X127448500Y-83300000D01*
X127454485Y-83360771D01*
X127472212Y-83419206D01*
X127500997Y-83473060D01*
X127539736Y-83520264D01*
X127586940Y-83559003D01*
X127640794Y-83587788D01*
X127699229Y-83605515D01*
X127760000Y-83611500D01*
X128368500Y-83610000D01*
X128446000Y-83532500D01*
X128446000Y-82614000D01*
X128774000Y-82614000D01*
X128774000Y-83532500D01*
X128851500Y-83610000D01*
X129460000Y-83611500D01*
X129520771Y-83605515D01*
X129579206Y-83587788D01*
X129633060Y-83559003D01*
X129680264Y-83520264D01*
X129719003Y-83473060D01*
X129747788Y-83419206D01*
X129765515Y-83360771D01*
X129771500Y-83300000D01*
X129770000Y-82691500D01*
X129692500Y-82614000D01*
X128774000Y-82614000D01*
X128446000Y-82614000D01*
X127527500Y-82614000D01*
X127450000Y-82691500D01*
X127448500Y-83300000D01*
X125135000Y-83300000D01*
X125135000Y-81600000D01*
X127448500Y-81600000D01*
X127450000Y-82208500D01*
X127527500Y-82286000D01*
X128446000Y-82286000D01*
X128446000Y-81367500D01*
X128368500Y-81290000D01*
X127760000Y-81288500D01*
X127699229Y-81294485D01*
X127640794Y-81312212D01*
X127586940Y-81340997D01*
X127539736Y-81379736D01*
X127500997Y-81426940D01*
X127472212Y-81480794D01*
X127454485Y-81539229D01*
X127448500Y-81600000D01*
X125135000Y-81600000D01*
X125135000Y-76335000D01*
X127510797Y-76335000D01*
X127500998Y-76346940D01*
%TA.AperFunction,Conductor*%
D19*
G36*
X127500998Y-76346940D02*
G01*
X127472212Y-76400794D01*
X127454486Y-76459230D01*
X127448501Y-76520000D01*
X127448501Y-78220000D01*
X127454486Y-78280770D01*
X127472212Y-78339206D01*
X127500998Y-78393060D01*
X127539737Y-78440263D01*
X127586940Y-78479002D01*
X127640794Y-78507788D01*
X127699230Y-78525514D01*
X127760000Y-78531499D01*
X129205813Y-78531499D01*
X129690000Y-79015686D01*
X129690001Y-79486125D01*
X129637979Y-79360534D01*
X129511031Y-79170543D01*
X129349457Y-79008969D01*
X129159466Y-78882021D01*
X128948360Y-78794578D01*
X128724250Y-78750000D01*
X128495750Y-78750000D01*
X128271640Y-78794578D01*
X128060534Y-78882021D01*
X127870543Y-79008969D01*
X127708969Y-79170543D01*
X127582021Y-79360534D01*
X127494578Y-79571640D01*
X127450000Y-79795750D01*
X127450000Y-80024250D01*
X127494578Y-80248360D01*
X127582021Y-80459466D01*
X127708969Y-80649457D01*
X127870543Y-80811031D01*
X128060534Y-80937979D01*
X128271640Y-81025422D01*
X128495750Y-81070000D01*
X128724250Y-81070000D01*
X128948360Y-81025422D01*
X129097826Y-80963511D01*
X129422906Y-81288591D01*
X128851500Y-81290000D01*
X128774000Y-81367500D01*
X128774000Y-82286000D01*
X129692500Y-82286000D01*
X129770000Y-82208500D01*
X129771409Y-81637094D01*
X130290000Y-82155686D01*
X130290001Y-83190344D01*
X130288065Y-83210000D01*
X130295788Y-83288413D01*
X130318661Y-83363814D01*
X130355803Y-83433302D01*
X130393265Y-83478950D01*
X130393268Y-83478953D01*
X130405790Y-83494211D01*
X130421047Y-83506732D01*
X130683267Y-83768953D01*
X130695789Y-83784211D01*
X130711047Y-83796733D01*
X130711049Y-83796735D01*
X130756697Y-83834197D01*
X130826185Y-83871340D01*
X130901586Y-83894212D01*
X130980000Y-83901935D01*
X130999646Y-83900000D01*
X131554893Y-83900000D01*
X131566015Y-83955913D01*
X131583741Y-84014346D01*
X131621250Y-84104902D01*
X131650036Y-84158758D01*
X131704492Y-84240257D01*
X131743231Y-84287461D01*
X131812539Y-84356769D01*
X131859743Y-84395508D01*
X131941242Y-84449964D01*
X131995098Y-84478750D01*
X132085654Y-84516259D01*
X132144087Y-84533985D01*
X132240220Y-84553107D01*
X132300991Y-84559092D01*
X132325549Y-84559092D01*
X132350000Y-84561500D01*
X132850000Y-84561500D01*
X132910771Y-84555515D01*
X132969206Y-84537788D01*
X133000000Y-84521329D01*
X133030794Y-84537788D01*
X133089229Y-84555515D01*
X133150000Y-84561500D01*
X133650000Y-84561500D01*
X133674451Y-84559092D01*
X133699009Y-84559092D01*
X133759780Y-84553107D01*
X133855913Y-84533985D01*
X133914346Y-84516259D01*
X134004902Y-84478750D01*
X134042805Y-84458491D01*
X135519989Y-85935675D01*
X135519989Y-86294796D01*
X135454513Y-86267674D01*
X135345549Y-86246000D01*
X135234451Y-86246000D01*
X135125487Y-86267674D01*
X135022846Y-86310190D01*
X134930471Y-86371913D01*
X134851913Y-86450471D01*
X134790190Y-86542846D01*
X134747674Y-86645487D01*
X134726000Y-86754451D01*
X134726000Y-86865549D01*
X134747674Y-86974513D01*
X134790190Y-87077154D01*
X134851913Y-87169529D01*
X134930471Y-87248087D01*
X135022846Y-87309810D01*
X135119978Y-87350044D01*
X135119978Y-88184292D01*
X134477816Y-87542131D01*
X134477816Y-87488267D01*
X134456142Y-87379303D01*
X134413626Y-87276662D01*
X134351903Y-87184287D01*
X134273345Y-87105729D01*
X134180970Y-87044006D01*
X134084943Y-87004230D01*
X134094513Y-87002326D01*
X134197154Y-86959810D01*
X134289529Y-86898087D01*
X134368087Y-86819529D01*
X134429810Y-86727154D01*
X134472326Y-86624513D01*
X134494000Y-86515549D01*
X134494000Y-86404451D01*
X134472326Y-86295487D01*
X134429810Y-86192846D01*
X134368087Y-86100471D01*
X134289529Y-86021913D01*
X134197154Y-85960190D01*
X134094513Y-85917674D01*
X133985549Y-85896000D01*
X133874451Y-85896000D01*
X133765487Y-85917674D01*
X133662846Y-85960190D01*
X133570471Y-86021913D01*
X133491913Y-86100471D01*
X133430190Y-86192846D01*
X133387674Y-86295487D01*
X133366000Y-86404451D01*
X133366000Y-86458314D01*
X133051052Y-86773263D01*
X133035789Y-86785789D01*
X132985803Y-86846698D01*
X132948660Y-86916187D01*
X132934895Y-86961565D01*
X132925788Y-86991587D01*
X132918065Y-87070000D01*
X132920000Y-87089647D01*
X132920001Y-87820344D01*
X132918065Y-87840000D01*
X132925788Y-87918413D01*
X132948661Y-87993814D01*
X132985803Y-88063302D01*
X133023265Y-88108950D01*
X133023268Y-88108953D01*
X133035790Y-88124211D01*
X133051048Y-88136733D01*
X133743604Y-88829289D01*
X133651662Y-88890722D01*
X133573104Y-88969280D01*
X133511381Y-89061655D01*
X133468865Y-89164296D01*
X133464073Y-89188387D01*
X133334000Y-89058315D01*
X133334000Y-89004451D01*
X133312326Y-88895487D01*
X133269810Y-88792846D01*
X133208087Y-88700471D01*
X133129529Y-88621913D01*
X133037154Y-88560190D01*
X132934513Y-88517674D01*
X132825549Y-88496000D01*
X132714451Y-88496000D01*
X132605487Y-88517674D01*
X132502846Y-88560190D01*
X132410471Y-88621913D01*
X132331913Y-88700471D01*
X132270190Y-88792846D01*
X132227674Y-88895487D01*
X132206000Y-89004451D01*
X132206000Y-89110315D01*
X132074000Y-88978315D01*
X132074000Y-88924451D01*
X132052326Y-88815487D01*
X132009810Y-88712846D01*
X131948087Y-88620471D01*
X131869529Y-88541913D01*
X131777154Y-88480190D01*
X131674513Y-88437674D01*
X131565549Y-88416000D01*
X131454451Y-88416000D01*
X131345487Y-88437674D01*
X131242846Y-88480190D01*
X131150471Y-88541913D01*
X131071913Y-88620471D01*
X131010190Y-88712846D01*
X130967674Y-88815487D01*
X130946000Y-88924451D01*
X130946000Y-89035549D01*
X130967674Y-89144513D01*
X131010190Y-89247154D01*
X131071913Y-89339529D01*
X131150471Y-89418087D01*
X131242846Y-89479810D01*
X131345487Y-89522326D01*
X131454451Y-89544000D01*
X131508315Y-89544000D01*
X132800000Y-90835686D01*
X132800001Y-100113607D01*
X132780016Y-100121885D01*
X132687641Y-100183608D01*
X132609083Y-100262166D01*
X132547360Y-100354541D01*
X132504844Y-100457182D01*
X132483170Y-100566146D01*
X132483170Y-100677244D01*
X132504844Y-100786208D01*
X132547360Y-100888849D01*
X132609083Y-100981224D01*
X132687641Y-101059782D01*
X132780016Y-101121505D01*
X132882657Y-101164021D01*
X132991621Y-101185695D01*
X133102719Y-101185695D01*
X133211579Y-101164042D01*
X133216968Y-101218754D01*
X133239841Y-101294155D01*
X133276983Y-101363643D01*
X133314445Y-101409291D01*
X133314448Y-101409294D01*
X133326970Y-101424552D01*
X133342228Y-101437074D01*
X134405348Y-102500194D01*
X134405348Y-102554058D01*
X134427022Y-102663022D01*
X134469538Y-102765663D01*
X134531261Y-102858038D01*
X134543212Y-102869989D01*
X133552015Y-102869989D01*
X133532379Y-102868055D01*
X133512743Y-102869989D01*
X133512733Y-102869989D01*
X133453966Y-102875777D01*
X133378566Y-102898649D01*
X133309077Y-102935792D01*
X133295362Y-102947048D01*
X133263429Y-102973254D01*
X133263427Y-102973256D01*
X133248169Y-102985778D01*
X133235647Y-103001036D01*
X133120072Y-103116611D01*
X133066209Y-103116611D01*
X132957245Y-103138285D01*
X132854604Y-103180801D01*
X132762229Y-103242524D01*
X132683671Y-103321082D01*
X132621948Y-103413457D01*
X132579432Y-103516098D01*
X132557758Y-103625062D01*
X132557758Y-103736160D01*
X132579432Y-103845124D01*
X132621948Y-103947765D01*
X132683671Y-104040140D01*
X132722958Y-104079427D01*
X132661911Y-104140473D01*
X132600188Y-104232848D01*
X132557672Y-104335489D01*
X132535998Y-104444453D01*
X132535998Y-104555551D01*
X132557672Y-104664515D01*
X132600188Y-104767156D01*
X132661911Y-104859531D01*
X132740469Y-104938089D01*
X132832844Y-104999812D01*
X132935485Y-105042328D01*
X133044449Y-105064002D01*
X133155547Y-105064002D01*
X133264511Y-105042328D01*
X133367152Y-104999812D01*
X133459527Y-104938089D01*
X133538085Y-104859531D01*
X133599808Y-104767156D01*
X133642324Y-104664515D01*
X133663998Y-104555551D01*
X133663998Y-104501687D01*
X134095686Y-104070000D01*
X137700354Y-104070000D01*
X137720000Y-104071935D01*
X137739646Y-104070000D01*
X137739647Y-104070000D01*
X137798414Y-104064212D01*
X137873814Y-104041340D01*
X137943303Y-104004197D01*
X138004211Y-103954211D01*
X138016737Y-103938948D01*
X138768949Y-103186736D01*
X138784211Y-103174211D01*
X138834197Y-103113303D01*
X138871340Y-103043814D01*
X138894212Y-102968414D01*
X138900000Y-102909647D01*
X138900000Y-102909646D01*
X138901935Y-102890000D01*
X138900000Y-102870353D01*
X138900000Y-100749647D01*
X138901935Y-100730000D01*
X138894212Y-100651586D01*
X138871340Y-100576186D01*
X138834197Y-100506697D01*
X138819034Y-100488221D01*
X138784211Y-100445789D01*
X138768948Y-100433263D01*
X136720000Y-98384315D01*
X136720000Y-92495750D01*
X145230000Y-92495750D01*
X145230000Y-92724250D01*
X145274578Y-92948360D01*
X145362021Y-93159466D01*
X145488969Y-93349457D01*
X145650543Y-93511031D01*
X145840534Y-93637979D01*
X146051640Y-93725422D01*
X146275750Y-93770000D01*
X146504250Y-93770000D01*
X146728360Y-93725422D01*
X146939466Y-93637979D01*
X147129457Y-93511031D01*
X147291031Y-93349457D01*
X147417979Y-93159466D01*
X147505422Y-92948360D01*
X147550000Y-92724250D01*
X147550000Y-92495750D01*
X147505422Y-92271640D01*
X147417979Y-92060534D01*
X147291031Y-91870543D01*
X147129457Y-91708969D01*
X146939466Y-91582021D01*
X146728360Y-91494578D01*
X146504250Y-91450000D01*
X146275750Y-91450000D01*
X146051640Y-91494578D01*
X145840534Y-91582021D01*
X145650543Y-91708969D01*
X145488969Y-91870543D01*
X145362021Y-92060534D01*
X145274578Y-92271640D01*
X145230000Y-92495750D01*
X136720000Y-92495750D01*
X136720000Y-89955750D01*
X145230000Y-89955750D01*
X145230000Y-90184250D01*
X145274578Y-90408360D01*
X145362021Y-90619466D01*
X145488969Y-90809457D01*
X145650543Y-90971031D01*
X145840534Y-91097979D01*
X146051640Y-91185422D01*
X146275750Y-91230000D01*
X146504250Y-91230000D01*
X146728360Y-91185422D01*
X146939466Y-91097979D01*
X147129457Y-90971031D01*
X147291031Y-90809457D01*
X147417979Y-90619466D01*
X147505422Y-90408360D01*
X147550000Y-90184250D01*
X147550000Y-89955750D01*
X147505422Y-89731640D01*
X147417979Y-89520534D01*
X147291031Y-89330543D01*
X147129457Y-89168969D01*
X146939466Y-89042021D01*
X146728360Y-88954578D01*
X146504250Y-88910000D01*
X146275750Y-88910000D01*
X146051640Y-88954578D01*
X145840534Y-89042021D01*
X145650543Y-89168969D01*
X145488969Y-89330543D01*
X145362021Y-89520534D01*
X145274578Y-89731640D01*
X145230000Y-89955750D01*
X136720000Y-89955750D01*
X136720000Y-87415750D01*
X145230000Y-87415750D01*
X145230000Y-87644250D01*
X145274578Y-87868360D01*
X145362021Y-88079466D01*
X145488969Y-88269457D01*
X145650543Y-88431031D01*
X145840534Y-88557979D01*
X146051640Y-88645422D01*
X146275750Y-88690000D01*
X146504250Y-88690000D01*
X146728360Y-88645422D01*
X146939466Y-88557979D01*
X147129457Y-88431031D01*
X147291031Y-88269457D01*
X147417979Y-88079466D01*
X147505422Y-87868360D01*
X147550000Y-87644250D01*
X147550000Y-87415750D01*
X147505422Y-87191640D01*
X147417979Y-86980534D01*
X147291031Y-86790543D01*
X147129457Y-86628969D01*
X146939466Y-86502021D01*
X146728360Y-86414578D01*
X146504250Y-86370000D01*
X146275750Y-86370000D01*
X146051640Y-86414578D01*
X145840534Y-86502021D01*
X145650543Y-86628969D01*
X145488969Y-86790543D01*
X145362021Y-86980534D01*
X145274578Y-87191640D01*
X145230000Y-87415750D01*
X136720000Y-87415750D01*
X136720000Y-84875750D01*
X145230000Y-84875750D01*
X145230000Y-85104250D01*
X145274578Y-85328360D01*
X145362021Y-85539466D01*
X145488969Y-85729457D01*
X145650543Y-85891031D01*
X145840534Y-86017979D01*
X146051640Y-86105422D01*
X146275750Y-86150000D01*
X146504250Y-86150000D01*
X146728360Y-86105422D01*
X146939466Y-86017979D01*
X147129457Y-85891031D01*
X147291031Y-85729457D01*
X147417979Y-85539466D01*
X147505422Y-85328360D01*
X147550000Y-85104250D01*
X147550000Y-84875750D01*
X147505422Y-84651640D01*
X147417979Y-84440534D01*
X147291031Y-84250543D01*
X147129457Y-84088969D01*
X146939466Y-83962021D01*
X146728360Y-83874578D01*
X146504250Y-83830000D01*
X146275750Y-83830000D01*
X146051640Y-83874578D01*
X145840534Y-83962021D01*
X145650543Y-84088969D01*
X145488969Y-84250543D01*
X145362021Y-84440534D01*
X145274578Y-84651640D01*
X145230000Y-84875750D01*
X136720000Y-84875750D01*
X136720000Y-83689647D01*
X136721935Y-83670000D01*
X136714212Y-83591586D01*
X136691340Y-83516186D01*
X136654197Y-83446697D01*
X136616735Y-83401049D01*
X136616733Y-83401047D01*
X136604211Y-83385789D01*
X136588953Y-83373267D01*
X135465686Y-82250000D01*
X140538500Y-82250000D01*
X140538500Y-82750000D01*
X140540908Y-82774451D01*
X140540908Y-82799009D01*
X140546893Y-82859780D01*
X140566015Y-82955913D01*
X140583741Y-83014346D01*
X140621250Y-83104902D01*
X140650036Y-83158758D01*
X140704492Y-83240257D01*
X140743231Y-83287461D01*
X140812539Y-83356769D01*
X140859743Y-83395508D01*
X140890001Y-83415726D01*
X140890001Y-83673265D01*
X140850190Y-83732846D01*
X140807674Y-83835487D01*
X140786000Y-83944451D01*
X140786000Y-84055549D01*
X140807674Y-84164513D01*
X140850190Y-84267154D01*
X140911913Y-84359529D01*
X140990471Y-84438087D01*
X141082846Y-84499810D01*
X141185487Y-84542326D01*
X141294451Y-84564000D01*
X141405549Y-84564000D01*
X141514513Y-84542326D01*
X141617154Y-84499810D01*
X141709529Y-84438087D01*
X141788087Y-84359529D01*
X141849810Y-84267154D01*
X141892326Y-84164513D01*
X141914000Y-84055549D01*
X141914000Y-83944451D01*
X141892326Y-83835487D01*
X141849810Y-83732846D01*
X141810000Y-83673266D01*
X141810000Y-83561500D01*
X141850000Y-83561500D01*
X141910771Y-83555515D01*
X141969206Y-83537788D01*
X142000000Y-83521329D01*
X142030794Y-83537788D01*
X142089229Y-83555515D01*
X142150000Y-83561500D01*
X142650000Y-83561500D01*
X142674451Y-83559092D01*
X142699009Y-83559092D01*
X142759780Y-83553107D01*
X142855913Y-83533985D01*
X142914346Y-83516259D01*
X143004902Y-83478750D01*
X143058758Y-83449964D01*
X143140257Y-83395508D01*
X143187461Y-83356769D01*
X143256769Y-83287461D01*
X143295508Y-83240257D01*
X143349964Y-83158758D01*
X143378750Y-83104902D01*
X143416259Y-83014346D01*
X143432745Y-82960000D01*
X143777418Y-82960000D01*
X143800000Y-82962224D01*
X143822582Y-82960000D01*
X143822590Y-82960000D01*
X143890176Y-82953343D01*
X143976886Y-82927040D01*
X144056798Y-82884326D01*
X144126842Y-82826842D01*
X144141245Y-82809292D01*
X144158915Y-82791622D01*
X145281445Y-82791622D01*
X145364563Y-82992309D01*
X145490066Y-83181941D01*
X145650153Y-83343445D01*
X145838671Y-83470615D01*
X146048377Y-83558563D01*
X146226000Y-83520856D01*
X146226000Y-82614000D01*
X146554000Y-82614000D01*
X146554000Y-83520856D01*
X146731623Y-83558563D01*
X146941329Y-83470615D01*
X147129847Y-83343445D01*
X147289934Y-83181941D01*
X147415437Y-82992309D01*
X147498555Y-82791622D01*
X147460005Y-82614000D01*
X146554000Y-82614000D01*
X146226000Y-82614000D01*
X145319995Y-82614000D01*
X145281445Y-82791622D01*
X144158915Y-82791622D01*
X144842159Y-82108378D01*
X145281445Y-82108378D01*
X145319995Y-82286000D01*
X146226000Y-82286000D01*
X146226000Y-81379144D01*
X146554000Y-81379144D01*
X146554000Y-82286000D01*
X147460005Y-82286000D01*
X147498555Y-82108378D01*
X147415437Y-81907691D01*
X147289934Y-81718059D01*
X147129847Y-81556555D01*
X146941329Y-81429385D01*
X146731623Y-81341437D01*
X146554000Y-81379144D01*
X146226000Y-81379144D01*
X146048377Y-81341437D01*
X145838671Y-81429385D01*
X145650153Y-81556555D01*
X145490066Y-81718059D01*
X145364563Y-81907691D01*
X145281445Y-82108378D01*
X144842159Y-82108378D01*
X145962174Y-80988364D01*
X146051640Y-81025422D01*
X146275750Y-81070000D01*
X146504250Y-81070000D01*
X146728360Y-81025422D01*
X146939466Y-80937979D01*
X147129457Y-80811031D01*
X147291031Y-80649457D01*
X147417979Y-80459466D01*
X147505422Y-80248360D01*
X147550000Y-80024250D01*
X147550000Y-79795750D01*
X147505422Y-79571640D01*
X147417979Y-79360534D01*
X147291031Y-79170543D01*
X147129457Y-79008969D01*
X146939466Y-78882021D01*
X146728360Y-78794578D01*
X146504250Y-78750000D01*
X146275750Y-78750000D01*
X146051640Y-78794578D01*
X145840534Y-78882021D01*
X145650543Y-79008969D01*
X145488969Y-79170543D01*
X145362021Y-79360534D01*
X145274578Y-79571640D01*
X145230000Y-79795750D01*
X145230000Y-80024250D01*
X145274578Y-80248360D01*
X145311636Y-80337826D01*
X143609463Y-82040000D01*
X143432745Y-82040000D01*
X143416259Y-81985654D01*
X143378750Y-81895098D01*
X143349964Y-81841242D01*
X143295508Y-81759743D01*
X143256769Y-81712539D01*
X143187461Y-81643231D01*
X143140257Y-81604492D01*
X143058758Y-81550036D01*
X143004902Y-81521250D01*
X142914346Y-81483741D01*
X142855913Y-81466015D01*
X142759780Y-81446893D01*
X142699009Y-81440908D01*
X142674451Y-81440908D01*
X142650000Y-81438500D01*
X142150000Y-81438500D01*
X142089229Y-81444485D01*
X142030794Y-81462212D01*
X142000000Y-81478671D01*
X141969206Y-81462212D01*
X141910771Y-81444485D01*
X141850000Y-81438500D01*
X141350000Y-81438500D01*
X141325549Y-81440908D01*
X141300991Y-81440908D01*
X141240220Y-81446893D01*
X141144087Y-81466015D01*
X141085654Y-81483741D01*
X140995098Y-81521250D01*
X140941242Y-81550036D01*
X140859743Y-81604492D01*
X140812539Y-81643231D01*
X140743231Y-81712539D01*
X140704492Y-81759743D01*
X140650036Y-81841242D01*
X140621250Y-81895098D01*
X140583741Y-81985654D01*
X140566015Y-82044087D01*
X140546893Y-82140220D01*
X140540908Y-82200991D01*
X140540908Y-82225549D01*
X140538500Y-82250000D01*
X135465686Y-82250000D01*
X134461500Y-81245815D01*
X134461500Y-80750000D01*
X134459092Y-80725549D01*
X134459092Y-80700991D01*
X134453107Y-80640220D01*
X134433985Y-80544087D01*
X134416259Y-80485654D01*
X134378750Y-80395098D01*
X134349964Y-80341242D01*
X134295508Y-80259743D01*
X134256769Y-80212539D01*
X134187461Y-80143231D01*
X134140257Y-80104492D01*
X134058758Y-80050036D01*
X134004902Y-80021250D01*
X133914346Y-79983741D01*
X133855913Y-79966015D01*
X133759780Y-79946893D01*
X133699009Y-79940908D01*
X133674451Y-79940908D01*
X133650000Y-79938500D01*
X133150000Y-79938500D01*
X133089229Y-79944485D01*
X133030794Y-79962212D01*
X133000000Y-79978671D01*
X132969206Y-79962212D01*
X132910771Y-79944485D01*
X132850000Y-79938500D01*
X132350000Y-79938500D01*
X132325549Y-79940908D01*
X132300991Y-79940908D01*
X132240220Y-79946893D01*
X132144087Y-79966015D01*
X132085654Y-79983741D01*
X131995098Y-80021250D01*
X131941242Y-80050036D01*
X131859743Y-80104492D01*
X131812539Y-80143231D01*
X131743231Y-80212539D01*
X131704492Y-80259743D01*
X131650036Y-80341242D01*
X131621250Y-80395098D01*
X131583741Y-80485654D01*
X131566015Y-80544087D01*
X131554893Y-80600000D01*
X131145686Y-80600000D01*
X130490000Y-79944315D01*
X130490000Y-78869635D01*
X130491934Y-78849999D01*
X130490000Y-78830363D01*
X130490000Y-78830353D01*
X130484212Y-78771586D01*
X130461340Y-78696186D01*
X130424197Y-78626697D01*
X130374211Y-78565789D01*
X130358954Y-78553268D01*
X129771499Y-77965813D01*
X129771499Y-77866052D01*
X130440000Y-77866052D01*
X130440000Y-78133948D01*
X130492264Y-78396697D01*
X130594784Y-78644201D01*
X130743619Y-78866949D01*
X130933051Y-79056381D01*
X131155799Y-79205216D01*
X131403303Y-79307736D01*
X131666052Y-79360000D01*
X131933948Y-79360000D01*
X132196697Y-79307736D01*
X132444201Y-79205216D01*
X132666949Y-79056381D01*
X132856381Y-78866949D01*
X133005216Y-78644201D01*
X133107736Y-78396697D01*
X133124482Y-78312507D01*
X133519424Y-78312507D01*
X133624548Y-78471055D01*
X133844557Y-78562740D01*
X134078226Y-78609741D01*
X134316575Y-78610253D01*
X134550444Y-78564256D01*
X134770844Y-78473517D01*
X134775452Y-78471055D01*
X134880576Y-78312507D01*
X140119424Y-78312507D01*
X140224548Y-78471055D01*
X140444557Y-78562740D01*
X140678226Y-78609741D01*
X140916575Y-78610253D01*
X141150444Y-78564256D01*
X141370844Y-78473517D01*
X141375452Y-78471055D01*
X141480576Y-78312507D01*
X140800000Y-77631931D01*
X140119424Y-78312507D01*
X134880576Y-78312507D01*
X134200000Y-77631931D01*
X133519424Y-78312507D01*
X133124482Y-78312507D01*
X133160000Y-78133948D01*
X133160000Y-77996043D01*
X133287493Y-78080576D01*
X133968069Y-77400000D01*
X134431931Y-77400000D01*
X135112507Y-78080576D01*
X135271055Y-77975452D01*
X135362740Y-77755443D01*
X135409741Y-77521774D01*
X135410253Y-77283425D01*
X135364256Y-77049556D01*
X135273517Y-76829156D01*
X135271055Y-76824548D01*
X135112507Y-76719424D01*
X134431931Y-77400000D01*
X133968069Y-77400000D01*
X133287493Y-76719424D01*
X133128945Y-76824548D01*
X133037260Y-77044557D01*
X132990259Y-77278226D01*
X132990141Y-77333237D01*
X132856381Y-77133051D01*
X132666949Y-76943619D01*
X132444201Y-76794784D01*
X132196697Y-76692264D01*
X131933948Y-76640000D01*
X131666052Y-76640000D01*
X131403303Y-76692264D01*
X131155799Y-76794784D01*
X130933051Y-76943619D01*
X130743619Y-77133051D01*
X130594784Y-77355799D01*
X130492264Y-77603303D01*
X130440000Y-77866052D01*
X129771499Y-77866052D01*
X129771499Y-76520000D01*
X129765514Y-76459230D01*
X129747788Y-76400794D01*
X129719002Y-76346940D01*
X129709203Y-76335000D01*
X133620533Y-76335000D01*
X133519424Y-76487493D01*
X134200000Y-77168069D01*
X134880576Y-76487493D01*
X134779467Y-76335000D01*
X135781667Y-76335000D01*
X135781667Y-78102500D01*
X139218334Y-78102500D01*
X139218334Y-77516575D01*
X139589747Y-77516575D01*
X139635744Y-77750444D01*
X139726483Y-77970844D01*
X139728945Y-77975452D01*
X139887493Y-78080576D01*
X140568069Y-77400000D01*
X141031931Y-77400000D01*
X141712507Y-78080576D01*
X141840000Y-77996043D01*
X141840000Y-78133948D01*
X141892264Y-78396697D01*
X141994784Y-78644201D01*
X142143619Y-78866949D01*
X142333051Y-79056381D01*
X142555799Y-79205216D01*
X142803303Y-79307736D01*
X143066052Y-79360000D01*
X143333948Y-79360000D01*
X143596697Y-79307736D01*
X143844201Y-79205216D01*
X144066949Y-79056381D01*
X144256381Y-78866949D01*
X144405216Y-78644201D01*
X144507736Y-78396697D01*
X144560000Y-78133948D01*
X144560000Y-77866052D01*
X144507736Y-77603303D01*
X144405216Y-77355799D01*
X144256381Y-77133051D01*
X144066949Y-76943619D01*
X143844201Y-76794784D01*
X143596697Y-76692264D01*
X143333948Y-76640000D01*
X143066052Y-76640000D01*
X142803303Y-76692264D01*
X142555799Y-76794784D01*
X142333051Y-76943619D01*
X142143619Y-77133051D01*
X142010147Y-77332807D01*
X142010253Y-77283425D01*
X141964256Y-77049556D01*
X141873517Y-76829156D01*
X141871055Y-76824548D01*
X141712507Y-76719424D01*
X141031931Y-77400000D01*
X140568069Y-77400000D01*
X139887493Y-76719424D01*
X139728945Y-76824548D01*
X139637260Y-77044557D01*
X139590259Y-77278226D01*
X139589747Y-77516575D01*
X139218334Y-77516575D01*
X139218334Y-76335000D01*
X140220533Y-76335000D01*
X140119424Y-76487493D01*
X140800000Y-77168069D01*
X141480576Y-76487493D01*
X141379467Y-76335000D01*
X145290797Y-76335000D01*
X145280998Y-76346940D01*
X145252212Y-76400794D01*
X145234486Y-76459230D01*
X145228501Y-76520000D01*
X145228501Y-78220000D01*
X145234486Y-78280770D01*
X145252212Y-78339206D01*
X145280998Y-78393060D01*
X145319737Y-78440263D01*
X145366940Y-78479002D01*
X145420794Y-78507788D01*
X145479230Y-78525514D01*
X145540000Y-78531499D01*
X147240000Y-78531499D01*
X147300770Y-78525514D01*
X147359206Y-78507788D01*
X147413060Y-78479002D01*
X147460263Y-78440263D01*
X147499002Y-78393060D01*
X147527788Y-78339206D01*
X147545514Y-78280770D01*
X147551499Y-78220000D01*
X147551499Y-76520000D01*
X147545514Y-76459230D01*
X147527788Y-76400794D01*
X147499002Y-76346940D01*
X147489203Y-76335000D01*
X149865000Y-76335000D01*
X149865001Y-126665000D01*
X148000034Y-126665000D01*
X147968104Y-126664895D01*
X147951339Y-126668173D01*
X147934329Y-126669848D01*
X147919025Y-126674490D01*
X147903340Y-126677557D01*
X147887535Y-126684043D01*
X147871181Y-126689004D01*
X147842811Y-126704168D01*
X141316672Y-130165000D01*
X140698687Y-130165000D01*
X140779457Y-130111031D01*
X140941031Y-129949457D01*
X141067979Y-129759466D01*
X141155422Y-129548360D01*
X141200000Y-129324250D01*
X141200000Y-129095750D01*
X141155422Y-128871640D01*
X141067979Y-128660534D01*
X140941031Y-128470543D01*
X140779457Y-128308969D01*
X140589466Y-128182021D01*
X140440000Y-128120110D01*
X140440000Y-126489890D01*
X140589466Y-126427979D01*
X140779457Y-126301031D01*
X140941031Y-126139457D01*
X141067979Y-125949466D01*
X141155422Y-125738360D01*
X141200000Y-125514250D01*
X141200000Y-125285750D01*
X141155422Y-125061640D01*
X141074407Y-124866052D01*
X141840000Y-124866052D01*
X141840000Y-125133948D01*
X141892264Y-125396697D01*
X141994784Y-125644201D01*
X142143619Y-125866949D01*
X142333051Y-126056381D01*
X142555799Y-126205216D01*
X142803303Y-126307736D01*
X143066052Y-126360000D01*
X143333948Y-126360000D01*
X143596697Y-126307736D01*
X143844201Y-126205216D01*
X144066949Y-126056381D01*
X144256381Y-125866949D01*
X144405216Y-125644201D01*
X144458422Y-125515750D01*
X145230000Y-125515750D01*
X145230000Y-125744250D01*
X145274578Y-125968360D01*
X145362021Y-126179466D01*
X145488969Y-126369457D01*
X145650543Y-126531031D01*
X145840534Y-126657979D01*
X146051640Y-126745422D01*
X146275750Y-126790000D01*
X146504250Y-126790000D01*
X146728360Y-126745422D01*
X146939466Y-126657979D01*
X147129457Y-126531031D01*
X147291031Y-126369457D01*
X147417979Y-126179466D01*
X147505422Y-125968360D01*
X147550000Y-125744250D01*
X147550000Y-125515750D01*
X147505422Y-125291640D01*
X147417979Y-125080534D01*
X147291031Y-124890543D01*
X147129457Y-124728969D01*
X146939466Y-124602021D01*
X146728360Y-124514578D01*
X146504250Y-124470000D01*
X146275750Y-124470000D01*
X146051640Y-124514578D01*
X145840534Y-124602021D01*
X145650543Y-124728969D01*
X145488969Y-124890543D01*
X145362021Y-125080534D01*
X145274578Y-125291640D01*
X145230000Y-125515750D01*
X144458422Y-125515750D01*
X144507736Y-125396697D01*
X144560000Y-125133948D01*
X144560000Y-124866052D01*
X144507736Y-124603303D01*
X144405216Y-124355799D01*
X144256381Y-124133051D01*
X144066949Y-123943619D01*
X143844201Y-123794784D01*
X143596697Y-123692264D01*
X143333948Y-123640000D01*
X143066052Y-123640000D01*
X142803303Y-123692264D01*
X142555799Y-123794784D01*
X142333051Y-123943619D01*
X142143619Y-124133051D01*
X141994784Y-124355799D01*
X141892264Y-124603303D01*
X141840000Y-124866052D01*
X141074407Y-124866052D01*
X141067979Y-124850534D01*
X140941031Y-124660543D01*
X140779457Y-124498969D01*
X140589466Y-124372021D01*
X140378360Y-124284578D01*
X140154250Y-124240000D01*
X139925750Y-124240000D01*
X139701640Y-124284578D01*
X139552174Y-124346489D01*
X138956736Y-123751051D01*
X138944212Y-123735790D01*
X138883304Y-123685804D01*
X138813815Y-123648661D01*
X138738415Y-123625789D01*
X138679648Y-123620001D01*
X138679647Y-123620001D01*
X138660001Y-123618066D01*
X138640355Y-123620001D01*
X138373113Y-123620001D01*
X138393445Y-123599847D01*
X138520615Y-123411329D01*
X138608563Y-123201623D01*
X138570856Y-123024000D01*
X137664000Y-123024000D01*
X137664000Y-123044000D01*
X137336000Y-123044000D01*
X137336000Y-123024000D01*
X136429144Y-123024000D01*
X136391437Y-123201623D01*
X136479385Y-123411329D01*
X136606555Y-123599847D01*
X136626887Y-123620001D01*
X136121499Y-123620001D01*
X136121499Y-122264187D01*
X136285687Y-122099999D01*
X136626887Y-122099999D01*
X136606555Y-122120153D01*
X136479385Y-122308671D01*
X136391437Y-122518377D01*
X136429144Y-122696000D01*
X137336000Y-122696000D01*
X137336000Y-122676000D01*
X137664000Y-122676000D01*
X137664000Y-122696000D01*
X138570856Y-122696000D01*
X138608563Y-122518377D01*
X138520615Y-122308671D01*
X138393445Y-122120153D01*
X138373113Y-122099999D01*
X139159513Y-122099999D01*
X139138969Y-122120543D01*
X139012021Y-122310534D01*
X138924578Y-122521640D01*
X138880000Y-122745750D01*
X138880000Y-122974250D01*
X138924578Y-123198360D01*
X139012021Y-123409466D01*
X139138969Y-123599457D01*
X139300543Y-123761031D01*
X139490534Y-123887979D01*
X139701640Y-123975422D01*
X139925750Y-124020000D01*
X140154250Y-124020000D01*
X140378360Y-123975422D01*
X140589466Y-123887979D01*
X140779457Y-123761031D01*
X140941031Y-123599457D01*
X141067979Y-123409466D01*
X141155422Y-123198360D01*
X141199701Y-122975750D01*
X145230000Y-122975750D01*
X145230000Y-123204250D01*
X145274578Y-123428360D01*
X145362021Y-123639466D01*
X145488969Y-123829457D01*
X145650543Y-123991031D01*
X145840534Y-124117979D01*
X146051640Y-124205422D01*
X146275750Y-124250000D01*
X146504250Y-124250000D01*
X146728360Y-124205422D01*
X146939466Y-124117979D01*
X147129457Y-123991031D01*
X147291031Y-123829457D01*
X147417979Y-123639466D01*
X147505422Y-123428360D01*
X147550000Y-123204250D01*
X147550000Y-122975750D01*
X147505422Y-122751640D01*
X147417979Y-122540534D01*
X147291031Y-122350543D01*
X147129457Y-122188969D01*
X146939466Y-122062021D01*
X146728360Y-121974578D01*
X146504250Y-121930000D01*
X146275750Y-121930000D01*
X146051640Y-121974578D01*
X145840534Y-122062021D01*
X145650543Y-122188969D01*
X145488969Y-122350543D01*
X145362021Y-122540534D01*
X145274578Y-122751640D01*
X145230000Y-122975750D01*
X141199701Y-122975750D01*
X141200000Y-122974250D01*
X141200000Y-122745750D01*
X141155422Y-122521640D01*
X141093511Y-122372174D01*
X142574063Y-120891622D01*
X145281445Y-120891622D01*
X145364563Y-121092309D01*
X145490066Y-121281941D01*
X145650153Y-121443445D01*
X145838671Y-121570615D01*
X146048377Y-121658563D01*
X146226000Y-121620856D01*
X146226000Y-120714000D01*
X146554000Y-120714000D01*
X146554000Y-121620856D01*
X146731623Y-121658563D01*
X146941329Y-121570615D01*
X147129847Y-121443445D01*
X147289934Y-121281941D01*
X147415437Y-121092309D01*
X147498555Y-120891622D01*
X147460005Y-120714000D01*
X146554000Y-120714000D01*
X146226000Y-120714000D01*
X145319995Y-120714000D01*
X145281445Y-120891622D01*
X142574063Y-120891622D01*
X142758954Y-120706732D01*
X142774211Y-120694211D01*
X142800956Y-120661623D01*
X142824196Y-120633304D01*
X142824197Y-120633303D01*
X142861340Y-120563814D01*
X142884212Y-120488414D01*
X142890000Y-120429647D01*
X142890000Y-120429637D01*
X142891934Y-120410001D01*
X142890000Y-120390365D01*
X142890000Y-120208378D01*
X145281445Y-120208378D01*
X145319995Y-120386000D01*
X146226000Y-120386000D01*
X146226000Y-119479144D01*
X146554000Y-119479144D01*
X146554000Y-120386000D01*
X147460005Y-120386000D01*
X147498555Y-120208378D01*
X147415437Y-120007691D01*
X147289934Y-119818059D01*
X147129847Y-119656555D01*
X146941329Y-119529385D01*
X146731623Y-119441437D01*
X146554000Y-119479144D01*
X146226000Y-119479144D01*
X146048377Y-119441437D01*
X145838671Y-119529385D01*
X145650153Y-119656555D01*
X145490066Y-119818059D01*
X145364563Y-120007691D01*
X145281445Y-120208378D01*
X142890000Y-120208378D01*
X142890000Y-117895750D01*
X145230000Y-117895750D01*
X145230000Y-118124250D01*
X145274578Y-118348360D01*
X145362021Y-118559466D01*
X145488969Y-118749457D01*
X145650543Y-118911031D01*
X145840534Y-119037979D01*
X146051640Y-119125422D01*
X146275750Y-119170000D01*
X146504250Y-119170000D01*
X146728360Y-119125422D01*
X146939466Y-119037979D01*
X147129457Y-118911031D01*
X147291031Y-118749457D01*
X147417979Y-118559466D01*
X147505422Y-118348360D01*
X147550000Y-118124250D01*
X147550000Y-117895750D01*
X147505422Y-117671640D01*
X147417979Y-117460534D01*
X147291031Y-117270543D01*
X147129457Y-117108969D01*
X146939466Y-116982021D01*
X146728360Y-116894578D01*
X146504250Y-116850000D01*
X146275750Y-116850000D01*
X146051640Y-116894578D01*
X145840534Y-116982021D01*
X145650543Y-117108969D01*
X145488969Y-117270543D01*
X145362021Y-117460534D01*
X145274578Y-117671640D01*
X145230000Y-117895750D01*
X142890000Y-117895750D01*
X142890000Y-108666475D01*
X143110001Y-108886476D01*
X143110000Y-115152384D01*
X143071913Y-115190471D01*
X143010190Y-115282846D01*
X142967674Y-115385487D01*
X142946000Y-115494451D01*
X142946000Y-115605549D01*
X142967674Y-115714513D01*
X143010190Y-115817154D01*
X143071913Y-115909529D01*
X143150471Y-115988087D01*
X143242846Y-116049810D01*
X143345487Y-116092326D01*
X143454451Y-116114000D01*
X143565549Y-116114000D01*
X143674513Y-116092326D01*
X143777154Y-116049810D01*
X143869529Y-115988087D01*
X143948087Y-115909529D01*
X144009810Y-115817154D01*
X144052326Y-115714513D01*
X144074000Y-115605549D01*
X144074000Y-115494451D01*
X144052326Y-115385487D01*
X144040009Y-115355750D01*
X145230000Y-115355750D01*
X145230000Y-115584250D01*
X145274578Y-115808360D01*
X145362021Y-116019466D01*
X145488969Y-116209457D01*
X145650543Y-116371031D01*
X145840534Y-116497979D01*
X146051640Y-116585422D01*
X146275750Y-116630000D01*
X146504250Y-116630000D01*
X146728360Y-116585422D01*
X146939466Y-116497979D01*
X147129457Y-116371031D01*
X147291031Y-116209457D01*
X147417979Y-116019466D01*
X147505422Y-115808360D01*
X147550000Y-115584250D01*
X147550000Y-115355750D01*
X147505422Y-115131640D01*
X147417979Y-114920534D01*
X147291031Y-114730543D01*
X147129457Y-114568969D01*
X146939466Y-114442021D01*
X146728360Y-114354578D01*
X146504250Y-114310000D01*
X146275750Y-114310000D01*
X146051640Y-114354578D01*
X145840534Y-114442021D01*
X145650543Y-114568969D01*
X145488969Y-114730543D01*
X145362021Y-114920534D01*
X145274578Y-115131640D01*
X145230000Y-115355750D01*
X144040009Y-115355750D01*
X144009810Y-115282846D01*
X143948087Y-115190471D01*
X143910000Y-115152384D01*
X143910000Y-112815750D01*
X145230000Y-112815750D01*
X145230000Y-113044250D01*
X145274578Y-113268360D01*
X145362021Y-113479466D01*
X145488969Y-113669457D01*
X145650543Y-113831031D01*
X145840534Y-113957979D01*
X146051640Y-114045422D01*
X146275750Y-114090000D01*
X146504250Y-114090000D01*
X146728360Y-114045422D01*
X146939466Y-113957979D01*
X147129457Y-113831031D01*
X147291031Y-113669457D01*
X147417979Y-113479466D01*
X147505422Y-113268360D01*
X147550000Y-113044250D01*
X147550000Y-112815750D01*
X147505422Y-112591640D01*
X147417979Y-112380534D01*
X147291031Y-112190543D01*
X147129457Y-112028969D01*
X146939466Y-111902021D01*
X146728360Y-111814578D01*
X146504250Y-111770000D01*
X146275750Y-111770000D01*
X146051640Y-111814578D01*
X145840534Y-111902021D01*
X145650543Y-112028969D01*
X145488969Y-112190543D01*
X145362021Y-112380534D01*
X145274578Y-112591640D01*
X145230000Y-112815750D01*
X143910000Y-112815750D01*
X143910000Y-110275750D01*
X145230000Y-110275750D01*
X145230000Y-110504250D01*
X145274578Y-110728360D01*
X145362021Y-110939466D01*
X145488969Y-111129457D01*
X145650543Y-111291031D01*
X145840534Y-111417979D01*
X146051640Y-111505422D01*
X146275750Y-111550000D01*
X146504250Y-111550000D01*
X146728360Y-111505422D01*
X146939466Y-111417979D01*
X147129457Y-111291031D01*
X147291031Y-111129457D01*
X147417979Y-110939466D01*
X147505422Y-110728360D01*
X147550000Y-110504250D01*
X147550000Y-110275750D01*
X147505422Y-110051640D01*
X147417979Y-109840534D01*
X147291031Y-109650543D01*
X147129457Y-109488969D01*
X146939466Y-109362021D01*
X146728360Y-109274578D01*
X146504250Y-109230000D01*
X146275750Y-109230000D01*
X146051640Y-109274578D01*
X145840534Y-109362021D01*
X145650543Y-109488969D01*
X145488969Y-109650543D01*
X145362021Y-109840534D01*
X145274578Y-110051640D01*
X145230000Y-110275750D01*
X143910000Y-110275750D01*
X143910000Y-108740437D01*
X143911935Y-108720790D01*
X143904212Y-108642376D01*
X143881340Y-108566976D01*
X143844197Y-108497487D01*
X143821478Y-108469804D01*
X143794211Y-108436579D01*
X143778948Y-108424053D01*
X143546517Y-108191622D01*
X145281445Y-108191622D01*
X145364563Y-108392309D01*
X145490066Y-108581941D01*
X145650153Y-108743445D01*
X145838671Y-108870615D01*
X146048377Y-108958563D01*
X146226000Y-108920856D01*
X146226000Y-108014000D01*
X146554000Y-108014000D01*
X146554000Y-108920856D01*
X146731623Y-108958563D01*
X146941329Y-108870615D01*
X147129847Y-108743445D01*
X147289934Y-108581941D01*
X147415437Y-108392309D01*
X147498555Y-108191622D01*
X147460005Y-108014000D01*
X146554000Y-108014000D01*
X146226000Y-108014000D01*
X145319995Y-108014000D01*
X145281445Y-108191622D01*
X143546517Y-108191622D01*
X142863273Y-107508378D01*
X145281445Y-107508378D01*
X145319995Y-107686000D01*
X146226000Y-107686000D01*
X146226000Y-106779144D01*
X146554000Y-106779144D01*
X146554000Y-107686000D01*
X147460005Y-107686000D01*
X147498555Y-107508378D01*
X147415437Y-107307691D01*
X147289934Y-107118059D01*
X147129847Y-106956555D01*
X146941329Y-106829385D01*
X146731623Y-106741437D01*
X146554000Y-106779144D01*
X146226000Y-106779144D01*
X146048377Y-106741437D01*
X145838671Y-106829385D01*
X145650153Y-106956555D01*
X145490066Y-107118059D01*
X145364563Y-107307691D01*
X145281445Y-107508378D01*
X142863273Y-107508378D01*
X140755894Y-105400999D01*
X140743368Y-105385736D01*
X140682460Y-105335750D01*
X140612971Y-105298607D01*
X140537571Y-105275735D01*
X140478804Y-105269947D01*
X140478803Y-105269947D01*
X140459157Y-105268012D01*
X140439511Y-105269947D01*
X140425289Y-105269947D01*
X140387202Y-105231860D01*
X140333160Y-105195750D01*
X145230000Y-105195750D01*
X145230000Y-105424250D01*
X145274578Y-105648360D01*
X145362021Y-105859466D01*
X145488969Y-106049457D01*
X145650543Y-106211031D01*
X145840534Y-106337979D01*
X146051640Y-106425422D01*
X146275750Y-106470000D01*
X146504250Y-106470000D01*
X146728360Y-106425422D01*
X146939466Y-106337979D01*
X147129457Y-106211031D01*
X147291031Y-106049457D01*
X147417979Y-105859466D01*
X147505422Y-105648360D01*
X147550000Y-105424250D01*
X147550000Y-105195750D01*
X147505422Y-104971640D01*
X147417979Y-104760534D01*
X147291031Y-104570543D01*
X147129457Y-104408969D01*
X146939466Y-104282021D01*
X146728360Y-104194578D01*
X146504250Y-104150000D01*
X146275750Y-104150000D01*
X146051640Y-104194578D01*
X145840534Y-104282021D01*
X145650543Y-104408969D01*
X145488969Y-104570543D01*
X145362021Y-104760534D01*
X145274578Y-104971640D01*
X145230000Y-105195750D01*
X140333160Y-105195750D01*
X140294827Y-105170137D01*
X140281195Y-105164491D01*
X140288954Y-105156732D01*
X140304211Y-105144211D01*
X140354197Y-105083303D01*
X140391340Y-105013814D01*
X140414212Y-104938414D01*
X140420000Y-104879647D01*
X140420000Y-104879646D01*
X140421935Y-104860000D01*
X140420000Y-104840354D01*
X140420000Y-102655750D01*
X145230000Y-102655750D01*
X145230000Y-102884250D01*
X145274578Y-103108360D01*
X145362021Y-103319466D01*
X145488969Y-103509457D01*
X145650543Y-103671031D01*
X145840534Y-103797979D01*
X146051640Y-103885422D01*
X146275750Y-103930000D01*
X146504250Y-103930000D01*
X146728360Y-103885422D01*
X146939466Y-103797979D01*
X147129457Y-103671031D01*
X147291031Y-103509457D01*
X147417979Y-103319466D01*
X147505422Y-103108360D01*
X147550000Y-102884250D01*
X147550000Y-102655750D01*
X147505422Y-102431640D01*
X147417979Y-102220534D01*
X147291031Y-102030543D01*
X147129457Y-101868969D01*
X146939466Y-101742021D01*
X146728360Y-101654578D01*
X146504250Y-101610000D01*
X146275750Y-101610000D01*
X146051640Y-101654578D01*
X145840534Y-101742021D01*
X145650543Y-101868969D01*
X145488969Y-102030543D01*
X145362021Y-102220534D01*
X145274578Y-102431640D01*
X145230000Y-102655750D01*
X140420000Y-102655750D01*
X140420000Y-102397616D01*
X140458087Y-102359529D01*
X140519810Y-102267154D01*
X140562326Y-102164513D01*
X140584000Y-102055549D01*
X140584000Y-101944451D01*
X140562326Y-101835487D01*
X140519810Y-101732846D01*
X140458087Y-101640471D01*
X140379529Y-101561913D01*
X140287154Y-101500190D01*
X140184513Y-101457674D01*
X140075549Y-101436000D01*
X139964451Y-101436000D01*
X139855487Y-101457674D01*
X139820000Y-101472373D01*
X139820000Y-100115750D01*
X145230000Y-100115750D01*
X145230000Y-100344250D01*
X145274578Y-100568360D01*
X145362021Y-100779466D01*
X145488969Y-100969457D01*
X145650543Y-101131031D01*
X145840534Y-101257979D01*
X146051640Y-101345422D01*
X146275750Y-101390000D01*
X146504250Y-101390000D01*
X146728360Y-101345422D01*
X146939466Y-101257979D01*
X147129457Y-101131031D01*
X147291031Y-100969457D01*
X147417979Y-100779466D01*
X147505422Y-100568360D01*
X147550000Y-100344250D01*
X147550000Y-100115750D01*
X147505422Y-99891640D01*
X147417979Y-99680534D01*
X147291031Y-99490543D01*
X147129457Y-99328969D01*
X146939466Y-99202021D01*
X146728360Y-99114578D01*
X146504250Y-99070000D01*
X146275750Y-99070000D01*
X146051640Y-99114578D01*
X145840534Y-99202021D01*
X145650543Y-99328969D01*
X145488969Y-99490543D01*
X145362021Y-99680534D01*
X145274578Y-99891640D01*
X145230000Y-100115750D01*
X139820000Y-100115750D01*
X139820000Y-97575750D01*
X145230000Y-97575750D01*
X145230000Y-97804250D01*
X145274578Y-98028360D01*
X145362021Y-98239466D01*
X145488969Y-98429457D01*
X145650543Y-98591031D01*
X145840534Y-98717979D01*
X146051640Y-98805422D01*
X146275750Y-98850000D01*
X146504250Y-98850000D01*
X146728360Y-98805422D01*
X146939466Y-98717979D01*
X147129457Y-98591031D01*
X147291031Y-98429457D01*
X147417979Y-98239466D01*
X147505422Y-98028360D01*
X147550000Y-97804250D01*
X147550000Y-97575750D01*
X147505422Y-97351640D01*
X147417979Y-97140534D01*
X147291031Y-96950543D01*
X147129457Y-96788969D01*
X146939466Y-96662021D01*
X146728360Y-96574578D01*
X146504250Y-96530000D01*
X146275750Y-96530000D01*
X146051640Y-96574578D01*
X145840534Y-96662021D01*
X145650543Y-96788969D01*
X145488969Y-96950543D01*
X145362021Y-97140534D01*
X145274578Y-97351640D01*
X145230000Y-97575750D01*
X139820000Y-97575750D01*
X139820000Y-95491622D01*
X145281445Y-95491622D01*
X145364563Y-95692309D01*
X145490066Y-95881941D01*
X145650153Y-96043445D01*
X145838671Y-96170615D01*
X146048377Y-96258563D01*
X146226000Y-96220856D01*
X146226000Y-95314000D01*
X146554000Y-95314000D01*
X146554000Y-96220856D01*
X146731623Y-96258563D01*
X146941329Y-96170615D01*
X147129847Y-96043445D01*
X147289934Y-95881941D01*
X147415437Y-95692309D01*
X147498555Y-95491622D01*
X147460005Y-95314000D01*
X146554000Y-95314000D01*
X146226000Y-95314000D01*
X145319995Y-95314000D01*
X145281445Y-95491622D01*
X139820000Y-95491622D01*
X139820000Y-95477157D01*
X139864197Y-95423303D01*
X139901340Y-95353814D01*
X139924212Y-95278414D01*
X139930000Y-95219647D01*
X139930000Y-95219637D01*
X139931934Y-95200001D01*
X139930000Y-95180365D01*
X139930000Y-95100002D01*
X143272386Y-95100002D01*
X143310471Y-95138087D01*
X143402846Y-95199810D01*
X143505487Y-95242326D01*
X143614451Y-95264000D01*
X143725549Y-95264000D01*
X143834513Y-95242326D01*
X143937154Y-95199810D01*
X144029529Y-95138087D01*
X144108087Y-95059529D01*
X144169810Y-94967154D01*
X144212326Y-94864513D01*
X144223491Y-94808378D01*
X145281445Y-94808378D01*
X145319995Y-94986000D01*
X146226000Y-94986000D01*
X146226000Y-94079144D01*
X146554000Y-94079144D01*
X146554000Y-94986000D01*
X147460005Y-94986000D01*
X147498555Y-94808378D01*
X147415437Y-94607691D01*
X147289934Y-94418059D01*
X147129847Y-94256555D01*
X146941329Y-94129385D01*
X146731623Y-94041437D01*
X146554000Y-94079144D01*
X146226000Y-94079144D01*
X146048377Y-94041437D01*
X145838671Y-94129385D01*
X145650153Y-94256555D01*
X145490066Y-94418059D01*
X145364563Y-94607691D01*
X145281445Y-94808378D01*
X144223491Y-94808378D01*
X144234000Y-94755549D01*
X144234000Y-94644451D01*
X144212326Y-94535487D01*
X144169810Y-94432846D01*
X144108087Y-94340471D01*
X144029529Y-94261913D01*
X143937154Y-94200190D01*
X143834513Y-94157674D01*
X143725549Y-94136000D01*
X143614451Y-94136000D01*
X143505487Y-94157674D01*
X143402846Y-94200190D01*
X143310471Y-94261913D01*
X143272382Y-94300002D01*
X139927616Y-94300002D01*
X139889529Y-94261915D01*
X139797154Y-94200192D01*
X139694513Y-94157676D01*
X139585549Y-94136002D01*
X139474451Y-94136002D01*
X139365487Y-94157676D01*
X139262846Y-94200192D01*
X139170471Y-94261915D01*
X139091913Y-94340473D01*
X139030190Y-94432848D01*
X138987674Y-94535489D01*
X138966000Y-94644453D01*
X138966000Y-94755551D01*
X138987674Y-94864515D01*
X139030190Y-94967156D01*
X139091913Y-95059531D01*
X139100803Y-95068421D01*
X139085803Y-95086698D01*
X139048660Y-95156187D01*
X139029410Y-95219647D01*
X139025788Y-95231587D01*
X139018065Y-95310000D01*
X139020000Y-95329646D01*
X139020001Y-104728614D01*
X138108615Y-105640000D01*
X131455686Y-105640000D01*
X131250000Y-105434315D01*
X131250000Y-97747616D01*
X131288087Y-97709529D01*
X131349810Y-97617154D01*
X131392326Y-97514513D01*
X131414000Y-97405549D01*
X131414000Y-97294451D01*
X131392326Y-97185487D01*
X131349810Y-97082846D01*
X131288087Y-96990471D01*
X131209529Y-96911913D01*
X131117154Y-96850190D01*
X131014513Y-96807674D01*
X130905549Y-96786000D01*
X130794451Y-96786000D01*
X130685487Y-96807674D01*
X130582846Y-96850190D01*
X130490471Y-96911913D01*
X130411913Y-96990471D01*
X130350190Y-97082846D01*
X130307674Y-97185487D01*
X130286000Y-97294451D01*
X130286000Y-97405549D01*
X130307674Y-97514513D01*
X130350190Y-97617154D01*
X130411913Y-97709529D01*
X130450001Y-97747617D01*
X130450000Y-105580354D01*
X130448065Y-105600000D01*
X130450000Y-105619646D01*
X130455788Y-105678413D01*
X130478660Y-105753813D01*
X130515803Y-105823302D01*
X130565789Y-105884211D01*
X130581052Y-105896737D01*
X130911465Y-106227151D01*
X130281052Y-106857564D01*
X130265789Y-106870090D01*
X130215803Y-106930999D01*
X130178660Y-107000488D01*
X130160738Y-107059570D01*
X130155788Y-107075888D01*
X130148065Y-107154301D01*
X130150000Y-107173947D01*
X130150001Y-120750343D01*
X130148065Y-120770000D01*
X130155788Y-120848413D01*
X130178661Y-120923814D01*
X130215803Y-120993302D01*
X130253265Y-121038950D01*
X130253268Y-121038953D01*
X130265790Y-121054211D01*
X130281048Y-121066733D01*
X132999988Y-123785673D01*
X132999989Y-124347976D01*
X132856381Y-124133051D01*
X132666949Y-123943619D01*
X132444201Y-123794784D01*
X132196697Y-123692264D01*
X131933948Y-123640000D01*
X131666052Y-123640000D01*
X131403303Y-123692264D01*
X131155799Y-123794784D01*
X130933051Y-123943619D01*
X130743619Y-124133051D01*
X130594784Y-124355799D01*
X130492264Y-124603303D01*
X130440000Y-124866052D01*
X130440000Y-125133948D01*
X130492264Y-125396697D01*
X130594784Y-125644201D01*
X130743619Y-125866949D01*
X130933051Y-126056381D01*
X131155799Y-126205216D01*
X131403303Y-126307736D01*
X131666052Y-126360000D01*
X131933948Y-126360000D01*
X132196697Y-126307736D01*
X132444201Y-126205216D01*
X132666949Y-126056381D01*
X132856381Y-125866949D01*
X133005216Y-125644201D01*
X133107736Y-125396697D01*
X133149757Y-125185442D01*
X133633267Y-125668953D01*
X133645789Y-125684211D01*
X133661047Y-125696733D01*
X133661049Y-125696735D01*
X133692982Y-125722941D01*
X133706697Y-125734197D01*
X133776186Y-125771340D01*
X133798501Y-125778109D01*
X133798501Y-126250000D01*
X133804486Y-126310770D01*
X133822212Y-126369206D01*
X133850998Y-126423060D01*
X133889737Y-126470263D01*
X133936940Y-126509002D01*
X133990794Y-126537788D01*
X134049230Y-126555514D01*
X134110000Y-126561499D01*
X134560000Y-126561499D01*
X134560001Y-128048501D01*
X134110000Y-128048501D01*
X134049230Y-128054486D01*
X133990794Y-128072212D01*
X133936940Y-128100998D01*
X133889737Y-128139737D01*
X133850998Y-128186940D01*
X133822212Y-128240794D01*
X133804486Y-128299230D01*
X133798501Y-128360000D01*
X133798501Y-130060000D01*
X133804486Y-130120770D01*
X133817903Y-130165000D01*
X133683329Y-130165000D01*
X127157314Y-126704235D01*
X127128819Y-126689004D01*
X127112461Y-126684042D01*
X127096659Y-126677557D01*
X127080976Y-126674491D01*
X127065671Y-126669848D01*
X127048659Y-126668172D01*
X127031895Y-126664895D01*
X126999966Y-126665000D01*
X125135000Y-126665000D01*
X125135000Y-125515750D01*
X127450000Y-125515750D01*
X127450000Y-125744250D01*
X127494578Y-125968360D01*
X127582021Y-126179466D01*
X127708969Y-126369457D01*
X127870543Y-126531031D01*
X128060534Y-126657979D01*
X128271640Y-126745422D01*
X128495750Y-126790000D01*
X128724250Y-126790000D01*
X128948360Y-126745422D01*
X129159466Y-126657979D01*
X129349457Y-126531031D01*
X129511031Y-126369457D01*
X129637979Y-126179466D01*
X129725422Y-125968360D01*
X129770000Y-125744250D01*
X129770000Y-125515750D01*
X129725422Y-125291640D01*
X129637979Y-125080534D01*
X129511031Y-124890543D01*
X129349457Y-124728969D01*
X129159466Y-124602021D01*
X128948360Y-124514578D01*
X128724250Y-124470000D01*
X128495750Y-124470000D01*
X128271640Y-124514578D01*
X128060534Y-124602021D01*
X127870543Y-124728969D01*
X127708969Y-124890543D01*
X127582021Y-125080534D01*
X127494578Y-125291640D01*
X127450000Y-125515750D01*
X125135000Y-125515750D01*
X125135000Y-122975750D01*
X127450000Y-122975750D01*
X127450000Y-123204250D01*
X127494578Y-123428360D01*
X127582021Y-123639466D01*
X127708969Y-123829457D01*
X127870543Y-123991031D01*
X128060534Y-124117979D01*
X128271640Y-124205422D01*
X128495750Y-124250000D01*
X128724250Y-124250000D01*
X128948360Y-124205422D01*
X129159466Y-124117979D01*
X129349457Y-123991031D01*
X129511031Y-123829457D01*
X129637979Y-123639466D01*
X129725422Y-123428360D01*
X129770000Y-123204250D01*
X129770000Y-122975750D01*
X129725422Y-122751640D01*
X129637979Y-122540534D01*
X129511031Y-122350543D01*
X129349457Y-122188969D01*
X129159466Y-122062021D01*
X128948360Y-121974578D01*
X128724250Y-121930000D01*
X128495750Y-121930000D01*
X128271640Y-121974578D01*
X128060534Y-122062021D01*
X127870543Y-122188969D01*
X127708969Y-122350543D01*
X127582021Y-122540534D01*
X127494578Y-122751640D01*
X127450000Y-122975750D01*
X125135000Y-122975750D01*
X125135000Y-120891622D01*
X127501445Y-120891622D01*
X127584563Y-121092309D01*
X127710066Y-121281941D01*
X127870153Y-121443445D01*
X128058671Y-121570615D01*
X128268377Y-121658563D01*
X128446000Y-121620856D01*
X128446000Y-120714000D01*
X128774000Y-120714000D01*
X128774000Y-121620856D01*
X128951623Y-121658563D01*
X129161329Y-121570615D01*
X129349847Y-121443445D01*
X129509934Y-121281941D01*
X129635437Y-121092309D01*
X129718555Y-120891622D01*
X129680005Y-120714000D01*
X128774000Y-120714000D01*
X128446000Y-120714000D01*
X127539995Y-120714000D01*
X127501445Y-120891622D01*
X125135000Y-120891622D01*
X125135000Y-120208378D01*
X127501445Y-120208378D01*
X127539995Y-120386000D01*
X128446000Y-120386000D01*
X128446000Y-119479144D01*
X128774000Y-119479144D01*
X128774000Y-120386000D01*
X129680005Y-120386000D01*
X129718555Y-120208378D01*
X129635437Y-120007691D01*
X129509934Y-119818059D01*
X129349847Y-119656555D01*
X129161329Y-119529385D01*
X128951623Y-119441437D01*
X128774000Y-119479144D01*
X128446000Y-119479144D01*
X128268377Y-119441437D01*
X128058671Y-119529385D01*
X127870153Y-119656555D01*
X127710066Y-119818059D01*
X127584563Y-120007691D01*
X127501445Y-120208378D01*
X125135000Y-120208378D01*
X125135000Y-117895750D01*
X127450000Y-117895750D01*
X127450000Y-118124250D01*
X127494578Y-118348360D01*
X127582021Y-118559466D01*
X127708969Y-118749457D01*
X127870543Y-118911031D01*
X128060534Y-119037979D01*
X128271640Y-119125422D01*
X128495750Y-119170000D01*
X128724250Y-119170000D01*
X128948360Y-119125422D01*
X129159466Y-119037979D01*
X129349457Y-118911031D01*
X129511031Y-118749457D01*
X129637979Y-118559466D01*
X129725422Y-118348360D01*
X129770000Y-118124250D01*
X129770000Y-117895750D01*
X129725422Y-117671640D01*
X129637979Y-117460534D01*
X129511031Y-117270543D01*
X129349457Y-117108969D01*
X129159466Y-116982021D01*
X128948360Y-116894578D01*
X128724250Y-116850000D01*
X128495750Y-116850000D01*
X128271640Y-116894578D01*
X128060534Y-116982021D01*
X127870543Y-117108969D01*
X127708969Y-117270543D01*
X127582021Y-117460534D01*
X127494578Y-117671640D01*
X127450000Y-117895750D01*
X125135000Y-117895750D01*
X125135000Y-115355750D01*
X127450000Y-115355750D01*
X127450000Y-115584250D01*
X127494578Y-115808360D01*
X127582021Y-116019466D01*
X127708969Y-116209457D01*
X127870543Y-116371031D01*
X128060534Y-116497979D01*
X128271640Y-116585422D01*
X128495750Y-116630000D01*
X128724250Y-116630000D01*
X128948360Y-116585422D01*
X129159466Y-116497979D01*
X129349457Y-116371031D01*
X129511031Y-116209457D01*
X129637979Y-116019466D01*
X129725422Y-115808360D01*
X129770000Y-115584250D01*
X129770000Y-115355750D01*
X129725422Y-115131640D01*
X129637979Y-114920534D01*
X129511031Y-114730543D01*
X129349457Y-114568969D01*
X129159466Y-114442021D01*
X128948360Y-114354578D01*
X128724250Y-114310000D01*
X128495750Y-114310000D01*
X128271640Y-114354578D01*
X128060534Y-114442021D01*
X127870543Y-114568969D01*
X127708969Y-114730543D01*
X127582021Y-114920534D01*
X127494578Y-115131640D01*
X127450000Y-115355750D01*
X125135000Y-115355750D01*
X125135000Y-112815750D01*
X127450000Y-112815750D01*
X127450000Y-113044250D01*
X127494578Y-113268360D01*
X127582021Y-113479466D01*
X127708969Y-113669457D01*
X127870543Y-113831031D01*
X128060534Y-113957979D01*
X128271640Y-114045422D01*
X128495750Y-114090000D01*
X128724250Y-114090000D01*
X128948360Y-114045422D01*
X129159466Y-113957979D01*
X129349457Y-113831031D01*
X129511031Y-113669457D01*
X129637979Y-113479466D01*
X129725422Y-113268360D01*
X129770000Y-113044250D01*
X129770000Y-112815750D01*
X129725422Y-112591640D01*
X129637979Y-112380534D01*
X129511031Y-112190543D01*
X129349457Y-112028969D01*
X129159466Y-111902021D01*
X128948360Y-111814578D01*
X128724250Y-111770000D01*
X128495750Y-111770000D01*
X128271640Y-111814578D01*
X128060534Y-111902021D01*
X127870543Y-112028969D01*
X127708969Y-112190543D01*
X127582021Y-112380534D01*
X127494578Y-112591640D01*
X127450000Y-112815750D01*
X125135000Y-112815750D01*
X125135000Y-110275750D01*
X127450000Y-110275750D01*
X127450000Y-110504250D01*
X127494578Y-110728360D01*
X127582021Y-110939466D01*
X127708969Y-111129457D01*
X127870543Y-111291031D01*
X128060534Y-111417979D01*
X128271640Y-111505422D01*
X128495750Y-111550000D01*
X128724250Y-111550000D01*
X128948360Y-111505422D01*
X129159466Y-111417979D01*
X129349457Y-111291031D01*
X129511031Y-111129457D01*
X129637979Y-110939466D01*
X129725422Y-110728360D01*
X129770000Y-110504250D01*
X129770000Y-110275750D01*
X129725422Y-110051640D01*
X129637979Y-109840534D01*
X129511031Y-109650543D01*
X129349457Y-109488969D01*
X129159466Y-109362021D01*
X128948360Y-109274578D01*
X128724250Y-109230000D01*
X128495750Y-109230000D01*
X128271640Y-109274578D01*
X128060534Y-109362021D01*
X127870543Y-109488969D01*
X127708969Y-109650543D01*
X127582021Y-109840534D01*
X127494578Y-110051640D01*
X127450000Y-110275750D01*
X125135000Y-110275750D01*
X125135000Y-108191622D01*
X127501445Y-108191622D01*
X127584563Y-108392309D01*
X127710066Y-108581941D01*
X127870153Y-108743445D01*
X128058671Y-108870615D01*
X128268377Y-108958563D01*
X128446000Y-108920856D01*
X128446000Y-108014000D01*
X128774000Y-108014000D01*
X128774000Y-108920856D01*
X128951623Y-108958563D01*
X129161329Y-108870615D01*
X129349847Y-108743445D01*
X129509934Y-108581941D01*
X129635437Y-108392309D01*
X129718555Y-108191622D01*
X129680005Y-108014000D01*
X128774000Y-108014000D01*
X128446000Y-108014000D01*
X127539995Y-108014000D01*
X127501445Y-108191622D01*
X125135000Y-108191622D01*
X125135000Y-107508378D01*
X127501445Y-107508378D01*
X127539995Y-107686000D01*
X128446000Y-107686000D01*
X128446000Y-106779144D01*
X128774000Y-106779144D01*
X128774000Y-107686000D01*
X129680005Y-107686000D01*
X129718555Y-107508378D01*
X129635437Y-107307691D01*
X129509934Y-107118059D01*
X129349847Y-106956555D01*
X129161329Y-106829385D01*
X128951623Y-106741437D01*
X128774000Y-106779144D01*
X128446000Y-106779144D01*
X128268377Y-106741437D01*
X128058671Y-106829385D01*
X127870153Y-106956555D01*
X127710066Y-107118059D01*
X127584563Y-107307691D01*
X127501445Y-107508378D01*
X125135000Y-107508378D01*
X125135000Y-105195750D01*
X127450000Y-105195750D01*
X127450000Y-105424250D01*
X127494578Y-105648360D01*
X127582021Y-105859466D01*
X127708969Y-106049457D01*
X127870543Y-106211031D01*
X128060534Y-106337979D01*
X128271640Y-106425422D01*
X128495750Y-106470000D01*
X128724250Y-106470000D01*
X128948360Y-106425422D01*
X129159466Y-106337979D01*
X129349457Y-106211031D01*
X129511031Y-106049457D01*
X129637979Y-105859466D01*
X129725422Y-105648360D01*
X129770000Y-105424250D01*
X129770000Y-105195750D01*
X129725422Y-104971640D01*
X129637979Y-104760534D01*
X129511031Y-104570543D01*
X129349457Y-104408969D01*
X129159466Y-104282021D01*
X128948360Y-104194578D01*
X128724250Y-104150000D01*
X128495750Y-104150000D01*
X128271640Y-104194578D01*
X128060534Y-104282021D01*
X127870543Y-104408969D01*
X127708969Y-104570543D01*
X127582021Y-104760534D01*
X127494578Y-104971640D01*
X127450000Y-105195750D01*
X125135000Y-105195750D01*
X125135000Y-102655750D01*
X127450000Y-102655750D01*
X127450000Y-102884250D01*
X127494578Y-103108360D01*
X127582021Y-103319466D01*
X127708969Y-103509457D01*
X127870543Y-103671031D01*
X128060534Y-103797979D01*
X128271640Y-103885422D01*
X128495750Y-103930000D01*
X128724250Y-103930000D01*
X128948360Y-103885422D01*
X129159466Y-103797979D01*
X129349457Y-103671031D01*
X129511031Y-103509457D01*
X129637979Y-103319466D01*
X129725422Y-103108360D01*
X129770000Y-102884250D01*
X129770000Y-102655750D01*
X129725422Y-102431640D01*
X129637979Y-102220534D01*
X129511031Y-102030543D01*
X129349457Y-101868969D01*
X129159466Y-101742021D01*
X128948360Y-101654578D01*
X128724250Y-101610000D01*
X128495750Y-101610000D01*
X128271640Y-101654578D01*
X128060534Y-101742021D01*
X127870543Y-101868969D01*
X127708969Y-102030543D01*
X127582021Y-102220534D01*
X127494578Y-102431640D01*
X127450000Y-102655750D01*
X125135000Y-102655750D01*
X125135000Y-100115750D01*
X127450000Y-100115750D01*
X127450000Y-100344250D01*
X127494578Y-100568360D01*
X127582021Y-100779466D01*
X127708969Y-100969457D01*
X127870543Y-101131031D01*
X128060534Y-101257979D01*
X128271640Y-101345422D01*
X128495750Y-101390000D01*
X128724250Y-101390000D01*
X128948360Y-101345422D01*
X129159466Y-101257979D01*
X129349457Y-101131031D01*
X129511031Y-100969457D01*
X129637979Y-100779466D01*
X129725422Y-100568360D01*
X129770000Y-100344250D01*
X129770000Y-100115750D01*
X129725422Y-99891640D01*
X129637979Y-99680534D01*
X129511031Y-99490543D01*
X129349457Y-99328969D01*
X129159466Y-99202021D01*
X128948360Y-99114578D01*
X128724250Y-99070000D01*
X128495750Y-99070000D01*
X128271640Y-99114578D01*
X128060534Y-99202021D01*
X127870543Y-99328969D01*
X127708969Y-99490543D01*
X127582021Y-99680534D01*
X127494578Y-99891640D01*
X127450000Y-100115750D01*
X125135000Y-100115750D01*
X125135000Y-97575750D01*
X127450000Y-97575750D01*
X127450000Y-97804250D01*
X127494578Y-98028360D01*
X127582021Y-98239466D01*
X127708969Y-98429457D01*
X127870543Y-98591031D01*
X128060534Y-98717979D01*
X128271640Y-98805422D01*
X128495750Y-98850000D01*
X128724250Y-98850000D01*
X128948360Y-98805422D01*
X129159466Y-98717979D01*
X129349457Y-98591031D01*
X129511031Y-98429457D01*
X129637979Y-98239466D01*
X129725422Y-98028360D01*
X129770000Y-97804250D01*
X129770000Y-97575750D01*
X129725422Y-97351640D01*
X129637979Y-97140534D01*
X129511031Y-96950543D01*
X129349457Y-96788969D01*
X129159466Y-96662021D01*
X128948360Y-96574578D01*
X128724250Y-96530000D01*
X128495750Y-96530000D01*
X128271640Y-96574578D01*
X128060534Y-96662021D01*
X127870543Y-96788969D01*
X127708969Y-96950543D01*
X127582021Y-97140534D01*
X127494578Y-97351640D01*
X127450000Y-97575750D01*
X125135000Y-97575750D01*
X125135000Y-95491622D01*
X127501445Y-95491622D01*
X127584563Y-95692309D01*
X127710066Y-95881941D01*
X127870153Y-96043445D01*
X128058671Y-96170615D01*
X128268377Y-96258563D01*
X128446000Y-96220856D01*
X128446000Y-95314000D01*
X128774000Y-95314000D01*
X128774000Y-96220856D01*
X128951623Y-96258563D01*
X129161329Y-96170615D01*
X129349847Y-96043445D01*
X129509934Y-95881941D01*
X129635437Y-95692309D01*
X129718555Y-95491622D01*
X129680005Y-95314000D01*
X128774000Y-95314000D01*
X128446000Y-95314000D01*
X127539995Y-95314000D01*
X127501445Y-95491622D01*
X125135000Y-95491622D01*
X125135000Y-94808378D01*
X127501445Y-94808378D01*
X127539995Y-94986000D01*
X128446000Y-94986000D01*
X128446000Y-94079144D01*
X128774000Y-94079144D01*
X128774000Y-94986000D01*
X129680005Y-94986000D01*
X129718555Y-94808378D01*
X129635437Y-94607691D01*
X129509934Y-94418059D01*
X129349847Y-94256555D01*
X129161329Y-94129385D01*
X128951623Y-94041437D01*
X128774000Y-94079144D01*
X128446000Y-94079144D01*
X128268377Y-94041437D01*
X128058671Y-94129385D01*
X127870153Y-94256555D01*
X127710066Y-94418059D01*
X127584563Y-94607691D01*
X127501445Y-94808378D01*
X125135000Y-94808378D01*
X125135000Y-92495750D01*
X127450000Y-92495750D01*
X127450000Y-92724250D01*
X127494578Y-92948360D01*
X127582021Y-93159466D01*
X127708969Y-93349457D01*
X127870543Y-93511031D01*
X128060534Y-93637979D01*
X128271640Y-93725422D01*
X128495750Y-93770000D01*
X128724250Y-93770000D01*
X128948360Y-93725422D01*
X129159466Y-93637979D01*
X129349457Y-93511031D01*
X129511031Y-93349457D01*
X129637979Y-93159466D01*
X129725422Y-92948360D01*
X129770000Y-92724250D01*
X129770000Y-92495750D01*
X129725422Y-92271640D01*
X129637979Y-92060534D01*
X129511031Y-91870543D01*
X129349457Y-91708969D01*
X129159466Y-91582021D01*
X128948360Y-91494578D01*
X128724250Y-91450000D01*
X128495750Y-91450000D01*
X128271640Y-91494578D01*
X128060534Y-91582021D01*
X127870543Y-91708969D01*
X127708969Y-91870543D01*
X127582021Y-92060534D01*
X127494578Y-92271640D01*
X127450000Y-92495750D01*
X125135000Y-92495750D01*
X125135000Y-89955750D01*
X127450000Y-89955750D01*
X127450000Y-90184250D01*
X127494578Y-90408360D01*
X127582021Y-90619466D01*
X127708969Y-90809457D01*
X127870543Y-90971031D01*
X128060534Y-91097979D01*
X128271640Y-91185422D01*
X128495750Y-91230000D01*
X128724250Y-91230000D01*
X128948360Y-91185422D01*
X129159466Y-91097979D01*
X129349457Y-90971031D01*
X129511031Y-90809457D01*
X129637979Y-90619466D01*
X129725422Y-90408360D01*
X129770000Y-90184250D01*
X129770000Y-89955750D01*
X129725422Y-89731640D01*
X129637979Y-89520534D01*
X129511031Y-89330543D01*
X129349457Y-89168969D01*
X129159466Y-89042021D01*
X128948360Y-88954578D01*
X128724250Y-88910000D01*
X128495750Y-88910000D01*
X128271640Y-88954578D01*
X128060534Y-89042021D01*
X127870543Y-89168969D01*
X127708969Y-89330543D01*
X127582021Y-89520534D01*
X127494578Y-89731640D01*
X127450000Y-89955750D01*
X125135000Y-89955750D01*
X125135000Y-87415750D01*
X127450000Y-87415750D01*
X127450000Y-87644250D01*
X127494578Y-87868360D01*
X127582021Y-88079466D01*
X127708969Y-88269457D01*
X127870543Y-88431031D01*
X128060534Y-88557979D01*
X128271640Y-88645422D01*
X128495750Y-88690000D01*
X128724250Y-88690000D01*
X128948360Y-88645422D01*
X129159466Y-88557979D01*
X129349457Y-88431031D01*
X129511031Y-88269457D01*
X129637979Y-88079466D01*
X129725422Y-87868360D01*
X129770000Y-87644250D01*
X129770000Y-87415750D01*
X129725422Y-87191640D01*
X129637979Y-86980534D01*
X129511031Y-86790543D01*
X129349457Y-86628969D01*
X129159466Y-86502021D01*
X128948360Y-86414578D01*
X128724250Y-86370000D01*
X128495750Y-86370000D01*
X128271640Y-86414578D01*
X128060534Y-86502021D01*
X127870543Y-86628969D01*
X127708969Y-86790543D01*
X127582021Y-86980534D01*
X127494578Y-87191640D01*
X127450000Y-87415750D01*
X125135000Y-87415750D01*
X125135000Y-84875750D01*
X127450000Y-84875750D01*
X127450000Y-85104250D01*
X127494578Y-85328360D01*
X127582021Y-85539466D01*
X127708969Y-85729457D01*
X127870543Y-85891031D01*
X128060534Y-86017979D01*
X128271640Y-86105422D01*
X128495750Y-86150000D01*
X128724250Y-86150000D01*
X128948360Y-86105422D01*
X129159466Y-86017979D01*
X129349457Y-85891031D01*
X129511031Y-85729457D01*
X129637979Y-85539466D01*
X129725422Y-85328360D01*
X129770000Y-85104250D01*
X129770000Y-84875750D01*
X129725422Y-84651640D01*
X129637979Y-84440534D01*
X129511031Y-84250543D01*
X129349457Y-84088969D01*
X129159466Y-83962021D01*
X128948360Y-83874578D01*
X128724250Y-83830000D01*
X128495750Y-83830000D01*
X128271640Y-83874578D01*
X128060534Y-83962021D01*
X127870543Y-84088969D01*
X127708969Y-84250543D01*
X127582021Y-84440534D01*
X127494578Y-84651640D01*
X127450000Y-84875750D01*
X125135000Y-84875750D01*
X125135000Y-83300000D01*
X127448500Y-83300000D01*
X127454485Y-83360771D01*
X127472212Y-83419206D01*
X127500997Y-83473060D01*
X127539736Y-83520264D01*
X127586940Y-83559003D01*
X127640794Y-83587788D01*
X127699229Y-83605515D01*
X127760000Y-83611500D01*
X128368500Y-83610000D01*
X128446000Y-83532500D01*
X128446000Y-82614000D01*
X128774000Y-82614000D01*
X128774000Y-83532500D01*
X128851500Y-83610000D01*
X129460000Y-83611500D01*
X129520771Y-83605515D01*
X129579206Y-83587788D01*
X129633060Y-83559003D01*
X129680264Y-83520264D01*
X129719003Y-83473060D01*
X129747788Y-83419206D01*
X129765515Y-83360771D01*
X129771500Y-83300000D01*
X129770000Y-82691500D01*
X129692500Y-82614000D01*
X128774000Y-82614000D01*
X128446000Y-82614000D01*
X127527500Y-82614000D01*
X127450000Y-82691500D01*
X127448500Y-83300000D01*
X125135000Y-83300000D01*
X125135000Y-81600000D01*
X127448500Y-81600000D01*
X127450000Y-82208500D01*
X127527500Y-82286000D01*
X128446000Y-82286000D01*
X128446000Y-81367500D01*
X128368500Y-81290000D01*
X127760000Y-81288500D01*
X127699229Y-81294485D01*
X127640794Y-81312212D01*
X127586940Y-81340997D01*
X127539736Y-81379736D01*
X127500997Y-81426940D01*
X127472212Y-81480794D01*
X127454485Y-81539229D01*
X127448500Y-81600000D01*
X125135000Y-81600000D01*
X125135000Y-76335000D01*
X127510797Y-76335000D01*
X127500998Y-76346940D01*
G37*
%TD.AperFunction*%
D18*
X137357674Y-106535487D02*
X137336000Y-106644451D01*
X137336000Y-106755549D01*
X137357674Y-106864513D01*
X137400190Y-106967154D01*
X137461913Y-107059529D01*
X137540471Y-107138087D01*
X137632846Y-107199810D01*
X137735487Y-107242326D01*
X137844451Y-107264000D01*
X137955549Y-107264000D01*
X138064513Y-107242326D01*
X138167154Y-107199810D01*
X138259529Y-107138087D01*
X138322994Y-107074622D01*
X138333814Y-107071340D01*
X138403303Y-107034197D01*
X138464211Y-106984211D01*
X138476737Y-106968948D01*
X138671589Y-106774096D01*
X138700190Y-106843144D01*
X138761913Y-106935519D01*
X138840471Y-107014077D01*
X138932846Y-107075800D01*
X139035487Y-107118316D01*
X139144451Y-107139990D01*
X139198315Y-107139990D01*
X140823276Y-108764952D01*
X140835798Y-108780210D01*
X140851056Y-108792732D01*
X140851058Y-108792734D01*
X140896706Y-108830196D01*
X140966195Y-108867339D01*
X140986751Y-108873574D01*
X140977674Y-108895487D01*
X140956000Y-109004451D01*
X140956000Y-109115549D01*
X140977674Y-109224513D01*
X141020190Y-109327154D01*
X141081913Y-109419529D01*
X141120000Y-109457616D01*
X141120001Y-112224314D01*
X140815827Y-112528488D01*
X140842326Y-112464515D01*
X140864000Y-112355551D01*
X140864000Y-112244453D01*
X140842326Y-112135489D01*
X140799810Y-112032848D01*
X140738087Y-111940473D01*
X140659529Y-111861915D01*
X140567154Y-111800192D01*
X140464513Y-111757676D01*
X140355549Y-111736002D01*
X140244451Y-111736002D01*
X140135487Y-111757676D01*
X140032846Y-111800192D01*
X139973266Y-111840002D01*
X137400538Y-111840002D01*
X133896304Y-108335769D01*
X133882324Y-108265487D01*
X133839808Y-108162846D01*
X133778085Y-108070471D01*
X133699527Y-107991913D01*
X133607152Y-107930190D01*
X133504511Y-107887674D01*
X133395547Y-107866000D01*
X133284449Y-107866000D01*
X133175485Y-107887674D01*
X133072844Y-107930190D01*
X132980469Y-107991913D01*
X132901911Y-108070471D01*
X132840188Y-108162846D01*
X132797672Y-108265487D01*
X132775998Y-108374451D01*
X132775998Y-108485549D01*
X132797672Y-108594513D01*
X132840188Y-108697154D01*
X132901911Y-108789529D01*
X132980469Y-108868087D01*
X133072844Y-108929810D01*
X133175485Y-108972326D01*
X133245767Y-108986306D01*
X136868760Y-112609299D01*
X136883158Y-112626844D01*
X136953202Y-112684328D01*
X137033114Y-112727042D01*
X137119824Y-112753345D01*
X137187410Y-112760002D01*
X137187419Y-112760002D01*
X137209999Y-112762226D01*
X137232579Y-112760002D01*
X139973266Y-112760002D01*
X140032846Y-112799812D01*
X140135487Y-112842328D01*
X140244451Y-112864002D01*
X140355549Y-112864002D01*
X140464513Y-112842328D01*
X140528486Y-112815829D01*
X135714315Y-117630000D01*
X133717616Y-117630000D01*
X133679529Y-117591913D01*
X133587154Y-117530190D01*
X133484513Y-117487674D01*
X133375549Y-117466000D01*
X133264451Y-117466000D01*
X133155487Y-117487674D01*
X133052846Y-117530190D01*
X132960471Y-117591913D01*
X132881913Y-117670471D01*
X132820190Y-117762846D01*
X132777674Y-117865487D01*
X132756000Y-117974451D01*
X132756000Y-118085549D01*
X132777674Y-118194513D01*
X132820190Y-118297154D01*
X132881913Y-118389529D01*
X132960471Y-118468087D01*
X133052846Y-118529810D01*
X133155487Y-118572326D01*
X133264451Y-118594000D01*
X133375549Y-118594000D01*
X133484513Y-118572326D01*
X133587154Y-118529810D01*
X133679529Y-118468087D01*
X133717616Y-118430000D01*
X135714315Y-118430000D01*
X135830001Y-118545687D01*
X135830001Y-119158501D01*
X135380000Y-119158501D01*
X135319230Y-119164486D01*
X135260794Y-119182212D01*
X135206940Y-119210998D01*
X135159737Y-119249737D01*
X135120998Y-119296940D01*
X135092212Y-119350794D01*
X135074486Y-119409230D01*
X135068501Y-119470000D01*
X135068501Y-121170000D01*
X135074486Y-121230770D01*
X135092212Y-121289206D01*
X135120998Y-121343060D01*
X135159737Y-121390263D01*
X135206940Y-121429002D01*
X135260794Y-121457788D01*
X135319230Y-121475514D01*
X135380000Y-121481499D01*
X135772815Y-121481499D01*
X135555813Y-121698501D01*
X134110000Y-121698501D01*
X134049230Y-121704486D01*
X133990794Y-121722212D01*
X133936940Y-121750998D01*
X133889737Y-121789737D01*
X133850998Y-121836940D01*
X133822212Y-121890794D01*
X133804486Y-121949230D01*
X133798501Y-122010000D01*
X133798501Y-122792816D01*
X131350011Y-120344326D01*
X131350011Y-107485675D01*
X131431665Y-107404021D01*
X134652384Y-107404021D01*
X134690471Y-107442108D01*
X134782846Y-107503831D01*
X134885487Y-107546347D01*
X134994451Y-107568021D01*
X135105549Y-107568021D01*
X135214513Y-107546347D01*
X135317154Y-107503831D01*
X135409529Y-107442108D01*
X135488087Y-107363550D01*
X135549810Y-107271175D01*
X135592326Y-107168534D01*
X135598029Y-107139864D01*
X135642846Y-107169810D01*
X135745487Y-107212326D01*
X135854451Y-107234000D01*
X135965549Y-107234000D01*
X136074513Y-107212326D01*
X136177154Y-107169810D01*
X136269529Y-107108087D01*
X136348087Y-107029529D01*
X136409810Y-106937154D01*
X136452326Y-106834513D01*
X136474000Y-106725549D01*
X136474000Y-106614451D01*
X136452326Y-106505487D01*
X136425200Y-106440000D01*
X137397227Y-106440000D01*
X137357674Y-106535487D01*
%TA.AperFunction,Conductor*%
D19*
G36*
X137357674Y-106535487D02*
G01*
X137336000Y-106644451D01*
X137336000Y-106755549D01*
X137357674Y-106864513D01*
X137400190Y-106967154D01*
X137461913Y-107059529D01*
X137540471Y-107138087D01*
X137632846Y-107199810D01*
X137735487Y-107242326D01*
X137844451Y-107264000D01*
X137955549Y-107264000D01*
X138064513Y-107242326D01*
X138167154Y-107199810D01*
X138259529Y-107138087D01*
X138322994Y-107074622D01*
X138333814Y-107071340D01*
X138403303Y-107034197D01*
X138464211Y-106984211D01*
X138476737Y-106968948D01*
X138671589Y-106774096D01*
X138700190Y-106843144D01*
X138761913Y-106935519D01*
X138840471Y-107014077D01*
X138932846Y-107075800D01*
X139035487Y-107118316D01*
X139144451Y-107139990D01*
X139198315Y-107139990D01*
X140823276Y-108764952D01*
X140835798Y-108780210D01*
X140851056Y-108792732D01*
X140851058Y-108792734D01*
X140896706Y-108830196D01*
X140966195Y-108867339D01*
X140986751Y-108873574D01*
X140977674Y-108895487D01*
X140956000Y-109004451D01*
X140956000Y-109115549D01*
X140977674Y-109224513D01*
X141020190Y-109327154D01*
X141081913Y-109419529D01*
X141120000Y-109457616D01*
X141120001Y-112224314D01*
X140815827Y-112528488D01*
X140842326Y-112464515D01*
X140864000Y-112355551D01*
X140864000Y-112244453D01*
X140842326Y-112135489D01*
X140799810Y-112032848D01*
X140738087Y-111940473D01*
X140659529Y-111861915D01*
X140567154Y-111800192D01*
X140464513Y-111757676D01*
X140355549Y-111736002D01*
X140244451Y-111736002D01*
X140135487Y-111757676D01*
X140032846Y-111800192D01*
X139973266Y-111840002D01*
X137400538Y-111840002D01*
X133896304Y-108335769D01*
X133882324Y-108265487D01*
X133839808Y-108162846D01*
X133778085Y-108070471D01*
X133699527Y-107991913D01*
X133607152Y-107930190D01*
X133504511Y-107887674D01*
X133395547Y-107866000D01*
X133284449Y-107866000D01*
X133175485Y-107887674D01*
X133072844Y-107930190D01*
X132980469Y-107991913D01*
X132901911Y-108070471D01*
X132840188Y-108162846D01*
X132797672Y-108265487D01*
X132775998Y-108374451D01*
X132775998Y-108485549D01*
X132797672Y-108594513D01*
X132840188Y-108697154D01*
X132901911Y-108789529D01*
X132980469Y-108868087D01*
X133072844Y-108929810D01*
X133175485Y-108972326D01*
X133245767Y-108986306D01*
X136868760Y-112609299D01*
X136883158Y-112626844D01*
X136953202Y-112684328D01*
X137033114Y-112727042D01*
X137119824Y-112753345D01*
X137187410Y-112760002D01*
X137187419Y-112760002D01*
X137209999Y-112762226D01*
X137232579Y-112760002D01*
X139973266Y-112760002D01*
X140032846Y-112799812D01*
X140135487Y-112842328D01*
X140244451Y-112864002D01*
X140355549Y-112864002D01*
X140464513Y-112842328D01*
X140528486Y-112815829D01*
X135714315Y-117630000D01*
X133717616Y-117630000D01*
X133679529Y-117591913D01*
X133587154Y-117530190D01*
X133484513Y-117487674D01*
X133375549Y-117466000D01*
X133264451Y-117466000D01*
X133155487Y-117487674D01*
X133052846Y-117530190D01*
X132960471Y-117591913D01*
X132881913Y-117670471D01*
X132820190Y-117762846D01*
X132777674Y-117865487D01*
X132756000Y-117974451D01*
X132756000Y-118085549D01*
X132777674Y-118194513D01*
X132820190Y-118297154D01*
X132881913Y-118389529D01*
X132960471Y-118468087D01*
X133052846Y-118529810D01*
X133155487Y-118572326D01*
X133264451Y-118594000D01*
X133375549Y-118594000D01*
X133484513Y-118572326D01*
X133587154Y-118529810D01*
X133679529Y-118468087D01*
X133717616Y-118430000D01*
X135714315Y-118430000D01*
X135830001Y-118545687D01*
X135830001Y-119158501D01*
X135380000Y-119158501D01*
X135319230Y-119164486D01*
X135260794Y-119182212D01*
X135206940Y-119210998D01*
X135159737Y-119249737D01*
X135120998Y-119296940D01*
X135092212Y-119350794D01*
X135074486Y-119409230D01*
X135068501Y-119470000D01*
X135068501Y-121170000D01*
X135074486Y-121230770D01*
X135092212Y-121289206D01*
X135120998Y-121343060D01*
X135159737Y-121390263D01*
X135206940Y-121429002D01*
X135260794Y-121457788D01*
X135319230Y-121475514D01*
X135380000Y-121481499D01*
X135772815Y-121481499D01*
X135555813Y-121698501D01*
X134110000Y-121698501D01*
X134049230Y-121704486D01*
X133990794Y-121722212D01*
X133936940Y-121750998D01*
X133889737Y-121789737D01*
X133850998Y-121836940D01*
X133822212Y-121890794D01*
X133804486Y-121949230D01*
X133798501Y-122010000D01*
X133798501Y-122792816D01*
X131350011Y-120344326D01*
X131350011Y-107485675D01*
X131431665Y-107404021D01*
X134652384Y-107404021D01*
X134690471Y-107442108D01*
X134782846Y-107503831D01*
X134885487Y-107546347D01*
X134994451Y-107568021D01*
X135105549Y-107568021D01*
X135214513Y-107546347D01*
X135317154Y-107503831D01*
X135409529Y-107442108D01*
X135488087Y-107363550D01*
X135549810Y-107271175D01*
X135592326Y-107168534D01*
X135598029Y-107139864D01*
X135642846Y-107169810D01*
X135745487Y-107212326D01*
X135854451Y-107234000D01*
X135965549Y-107234000D01*
X136074513Y-107212326D01*
X136177154Y-107169810D01*
X136269529Y-107108087D01*
X136348087Y-107029529D01*
X136409810Y-106937154D01*
X136452326Y-106834513D01*
X136474000Y-106725549D01*
X136474000Y-106614451D01*
X136452326Y-106505487D01*
X136425200Y-106440000D01*
X137397227Y-106440000D01*
X137357674Y-106535487D01*
G37*
%TD.AperFunction*%
D18*
X141684001Y-118860313D02*
X139875581Y-120668734D01*
X139878563Y-120661623D01*
X139840856Y-120484000D01*
X138934000Y-120484000D01*
X138934000Y-120504000D01*
X138606000Y-120504000D01*
X138606000Y-120484000D01*
X137699144Y-120484000D01*
X137661437Y-120661623D01*
X137749385Y-120871329D01*
X137876555Y-121059847D01*
X138038059Y-121219934D01*
X138159035Y-121299999D01*
X137362019Y-121299999D01*
X137367788Y-121289206D01*
X137385514Y-121230770D01*
X137391499Y-121170000D01*
X137391499Y-119978377D01*
X137661437Y-119978377D01*
X137699144Y-120156000D01*
X138606000Y-120156000D01*
X138606000Y-119249995D01*
X138934000Y-119249995D01*
X138934000Y-120156000D01*
X139840856Y-120156000D01*
X139878563Y-119978377D01*
X139790615Y-119768671D01*
X139663445Y-119580153D01*
X139501941Y-119420066D01*
X139312309Y-119294563D01*
X139111622Y-119211445D01*
X138934000Y-119249995D01*
X138606000Y-119249995D01*
X138428378Y-119211445D01*
X138227691Y-119294563D01*
X138038059Y-119420066D01*
X137876555Y-119580153D01*
X137749385Y-119768671D01*
X137661437Y-119978377D01*
X137391499Y-119978377D01*
X137391499Y-119470000D01*
X137385514Y-119409230D01*
X137367788Y-119350794D01*
X137339002Y-119296940D01*
X137300263Y-119249737D01*
X137253060Y-119210998D01*
X137199206Y-119182212D01*
X137140770Y-119164486D01*
X137080000Y-119158501D01*
X136630000Y-119158501D01*
X136630000Y-118399647D01*
X136631935Y-118380000D01*
X136624212Y-118301586D01*
X136601340Y-118226186D01*
X136564197Y-118156697D01*
X136526735Y-118111049D01*
X136526733Y-118111047D01*
X136514211Y-118095789D01*
X136498953Y-118083267D01*
X136445685Y-118030000D01*
X141684002Y-112791683D01*
X141684001Y-118860313D01*
%TA.AperFunction,Conductor*%
D19*
G36*
X141684001Y-118860313D02*
G01*
X139875581Y-120668734D01*
X139878563Y-120661623D01*
X139840856Y-120484000D01*
X138934000Y-120484000D01*
X138934000Y-120504000D01*
X138606000Y-120504000D01*
X138606000Y-120484000D01*
X137699144Y-120484000D01*
X137661437Y-120661623D01*
X137749385Y-120871329D01*
X137876555Y-121059847D01*
X138038059Y-121219934D01*
X138159035Y-121299999D01*
X137362019Y-121299999D01*
X137367788Y-121289206D01*
X137385514Y-121230770D01*
X137391499Y-121170000D01*
X137391499Y-119978377D01*
X137661437Y-119978377D01*
X137699144Y-120156000D01*
X138606000Y-120156000D01*
X138606000Y-119249995D01*
X138934000Y-119249995D01*
X138934000Y-120156000D01*
X139840856Y-120156000D01*
X139878563Y-119978377D01*
X139790615Y-119768671D01*
X139663445Y-119580153D01*
X139501941Y-119420066D01*
X139312309Y-119294563D01*
X139111622Y-119211445D01*
X138934000Y-119249995D01*
X138606000Y-119249995D01*
X138428378Y-119211445D01*
X138227691Y-119294563D01*
X138038059Y-119420066D01*
X137876555Y-119580153D01*
X137749385Y-119768671D01*
X137661437Y-119978377D01*
X137391499Y-119978377D01*
X137391499Y-119470000D01*
X137385514Y-119409230D01*
X137367788Y-119350794D01*
X137339002Y-119296940D01*
X137300263Y-119249737D01*
X137253060Y-119210998D01*
X137199206Y-119182212D01*
X137140770Y-119164486D01*
X137080000Y-119158501D01*
X136630000Y-119158501D01*
X136630000Y-118399647D01*
X136631935Y-118380000D01*
X136624212Y-118301586D01*
X136601340Y-118226186D01*
X136564197Y-118156697D01*
X136526735Y-118111049D01*
X136526733Y-118111047D01*
X136514211Y-118095789D01*
X136498953Y-118083267D01*
X136445685Y-118030000D01*
X141684002Y-112791683D01*
X141684001Y-118860313D01*
G37*
%TD.AperFunction*%
%TD*%
M02*
