%TF.GenerationSoftware,KiCad,Pcbnew,(5.1.10)-1*%
%TF.CreationDate,2021-05-16T15:19:33-05:00*%
%TF.ProjectId,rpi-pico-debugger-shoe,7270692d-7069-4636-9f2d-646562756767,v01*%
%TF.SameCoordinates,Original*%
%TF.FileFunction,Soldermask,Top*%
%TF.FilePolarity,Negative*%
%FSLAX46Y46*%
G04 Gerber Fmt 4.6, Leading zero omitted, Abs format (unit mm)*
G04 Created by KiCad (PCBNEW (5.1.10)-1) date 2021-05-16 15:19:33*
%MOMM*%
%LPD*%
G01*
G04 APERTURE LIST*
%ADD10R,3.200400X1.041400*%
%ADD11R,1.041400X0.660400*%
%ADD12R,1.003300X0.508000*%
%ADD13R,0.580000X1.610000*%
%ADD14R,1.700000X1.700000*%
%ADD15O,1.700000X1.700000*%
%ADD16R,0.400000X1.350000*%
%ADD17R,1.600000X1.400000*%
%ADD18R,1.900000X1.900000*%
%ADD19C,1.800000*%
%ADD20R,3.200400X3.200400*%
%ADD21R,0.177800X0.812800*%
%ADD22R,0.812800X0.177800*%
%ADD23C,2.100000*%
%ADD24C,2.000000*%
%ADD25R,0.950000X0.950000*%
%ADD26R,1.143000X1.092200*%
G04 APERTURE END LIST*
D10*
%TO.C,Y1*%
X140459100Y-113500000D03*
X134540900Y-113500000D03*
%TD*%
D11*
%TO.C,SW1*%
X139525000Y-91475001D03*
X143675000Y-91475001D03*
X139525000Y-93624999D03*
X143675000Y-93624999D03*
%TD*%
D12*
%TO.C,U2*%
X143752550Y-85149999D03*
X143752550Y-87050001D03*
X141047450Y-87050001D03*
X141047450Y-86100000D03*
X141047450Y-85149999D03*
%TD*%
D13*
%TO.C,U3*%
X131495000Y-83595000D03*
X132765000Y-83595000D03*
X134035000Y-83595000D03*
X135305000Y-83595000D03*
X135305000Y-90805000D03*
X134035000Y-90805000D03*
X132765000Y-90805000D03*
X131495000Y-90805000D03*
%TD*%
D14*
%TO.C,J8*%
X128610000Y-77370000D03*
D15*
X128610000Y-79910000D03*
%TD*%
D14*
%TO.C,J7*%
X134960000Y-129210000D03*
D15*
X137500000Y-129210000D03*
X140040000Y-129210000D03*
%TD*%
D14*
%TO.C,J6*%
X134960000Y-125400000D03*
D15*
X137500000Y-125400000D03*
X140040000Y-125400000D03*
%TD*%
D14*
%TO.C,J5*%
X146390000Y-77370000D03*
D15*
X146390000Y-79910000D03*
X146390000Y-82450000D03*
X146390000Y-84990000D03*
X146390000Y-87530000D03*
X146390000Y-90070000D03*
X146390000Y-92610000D03*
X146390000Y-95150000D03*
X146390000Y-97690000D03*
X146390000Y-100230000D03*
X146390000Y-102770000D03*
X146390000Y-105310000D03*
X146390000Y-107850000D03*
X146390000Y-110390000D03*
X146390000Y-112930000D03*
X146390000Y-115470000D03*
X146390000Y-118010000D03*
X146390000Y-120550000D03*
X146390000Y-123090000D03*
X146390000Y-125630000D03*
%TD*%
D14*
%TO.C,J4*%
X128610000Y-82450000D03*
D15*
X128610000Y-84990000D03*
X128610000Y-87530000D03*
X128610000Y-90070000D03*
X128610000Y-92610000D03*
X128610000Y-95150000D03*
X128610000Y-97690000D03*
X128610000Y-100230000D03*
X128610000Y-102770000D03*
X128610000Y-105310000D03*
X128610000Y-107850000D03*
X128610000Y-110390000D03*
X128610000Y-112930000D03*
X128610000Y-115470000D03*
X128610000Y-118010000D03*
X128610000Y-120550000D03*
X128610000Y-123090000D03*
X128610000Y-125630000D03*
%TD*%
D14*
%TO.C,J3*%
X134960000Y-122860000D03*
D15*
X137500000Y-122860000D03*
X140040000Y-122860000D03*
%TD*%
D14*
%TO.C,J2*%
X136230000Y-120320000D03*
D15*
X138770000Y-120320000D03*
%TD*%
D16*
%TO.C,J1*%
X138800000Y-80075000D03*
X138150000Y-80075000D03*
X137500000Y-80075000D03*
X136850000Y-80075000D03*
X136200000Y-80075000D03*
D17*
X140700000Y-79850000D03*
X134300000Y-79850000D03*
D18*
X138700000Y-77400000D03*
X136300000Y-77400000D03*
D19*
X140800000Y-77400000D03*
X134200000Y-77400000D03*
%TD*%
D20*
%TO.C,U1*%
X137500000Y-104500000D03*
D21*
X134858400Y-101096400D03*
X135264800Y-101096400D03*
X135671200Y-101096400D03*
X136077600Y-101096400D03*
X136484000Y-101096400D03*
X136890400Y-101096400D03*
X137296800Y-101096400D03*
X137703200Y-101096400D03*
X138109600Y-101096400D03*
X138516000Y-101096400D03*
X138922400Y-101096400D03*
X139328800Y-101096400D03*
X139735200Y-101096400D03*
X140141600Y-101096400D03*
D22*
X140903600Y-101858400D03*
X140903600Y-102264800D03*
X140903600Y-102671200D03*
X140903600Y-103077600D03*
X140903600Y-103484000D03*
X140903600Y-103890400D03*
X140903600Y-104296800D03*
X140903600Y-104703200D03*
X140903600Y-105109600D03*
X140903600Y-105516000D03*
X140903600Y-105922400D03*
X140903600Y-106328800D03*
X140903600Y-106735200D03*
X140903600Y-107141600D03*
D21*
X140141600Y-107903600D03*
X139735200Y-107903600D03*
X139328800Y-107903600D03*
X138922400Y-107903600D03*
X138516000Y-107903600D03*
X138109600Y-107903600D03*
X137703200Y-107903600D03*
X137296800Y-107903600D03*
X136890400Y-107903600D03*
X136484000Y-107903600D03*
X136077600Y-107903600D03*
X135671200Y-107903600D03*
X135264800Y-107903600D03*
X134858400Y-107903600D03*
D22*
X134096400Y-107141600D03*
X134096400Y-106735200D03*
X134096400Y-106328800D03*
X134096400Y-105922400D03*
X134096400Y-105516000D03*
X134096400Y-105109600D03*
X134096400Y-104703200D03*
X134096400Y-104296800D03*
X134096400Y-103890400D03*
X134096400Y-103484000D03*
X134096400Y-103077600D03*
X134096400Y-102671200D03*
X134096400Y-102264800D03*
X134096400Y-101858400D03*
%TD*%
%TO.C,R4*%
G36*
G01*
X136512500Y-97425000D02*
X136987500Y-97425000D01*
G75*
G02*
X137225000Y-97662500I0J-237500D01*
G01*
X137225000Y-98162500D01*
G75*
G02*
X136987500Y-98400000I-237500J0D01*
G01*
X136512500Y-98400000D01*
G75*
G02*
X136275000Y-98162500I0J237500D01*
G01*
X136275000Y-97662500D01*
G75*
G02*
X136512500Y-97425000I237500J0D01*
G01*
G37*
G36*
G01*
X136512500Y-95600000D02*
X136987500Y-95600000D01*
G75*
G02*
X137225000Y-95837500I0J-237500D01*
G01*
X137225000Y-96337500D01*
G75*
G02*
X136987500Y-96575000I-237500J0D01*
G01*
X136512500Y-96575000D01*
G75*
G02*
X136275000Y-96337500I0J237500D01*
G01*
X136275000Y-95837500D01*
G75*
G02*
X136512500Y-95600000I237500J0D01*
G01*
G37*
%TD*%
D23*
%TO.C,H1*%
X131800000Y-78000000D03*
%TD*%
%TO.C,H4*%
X143200000Y-125000000D03*
%TD*%
%TO.C,H3*%
X131800000Y-125000000D03*
%TD*%
%TO.C,H2*%
X143200000Y-78000000D03*
%TD*%
D24*
%TO.C,FID2*%
X143200000Y-121300000D03*
%TD*%
%TO.C,FID1*%
X135100000Y-93600000D03*
%TD*%
%TO.C,R9*%
G36*
G01*
X133237500Y-93175000D02*
X132762500Y-93175000D01*
G75*
G02*
X132525000Y-92937500I0J237500D01*
G01*
X132525000Y-92437500D01*
G75*
G02*
X132762500Y-92200000I237500J0D01*
G01*
X133237500Y-92200000D01*
G75*
G02*
X133475000Y-92437500I0J-237500D01*
G01*
X133475000Y-92937500D01*
G75*
G02*
X133237500Y-93175000I-237500J0D01*
G01*
G37*
G36*
G01*
X133237500Y-95000000D02*
X132762500Y-95000000D01*
G75*
G02*
X132525000Y-94762500I0J237500D01*
G01*
X132525000Y-94262500D01*
G75*
G02*
X132762500Y-94025000I237500J0D01*
G01*
X133237500Y-94025000D01*
G75*
G02*
X133475000Y-94262500I0J-237500D01*
G01*
X133475000Y-94762500D01*
G75*
G02*
X133237500Y-95000000I-237500J0D01*
G01*
G37*
%TD*%
%TO.C,R8*%
G36*
G01*
X131262500Y-94025000D02*
X131737500Y-94025000D01*
G75*
G02*
X131975000Y-94262500I0J-237500D01*
G01*
X131975000Y-94762500D01*
G75*
G02*
X131737500Y-95000000I-237500J0D01*
G01*
X131262500Y-95000000D01*
G75*
G02*
X131025000Y-94762500I0J237500D01*
G01*
X131025000Y-94262500D01*
G75*
G02*
X131262500Y-94025000I237500J0D01*
G01*
G37*
G36*
G01*
X131262500Y-92200000D02*
X131737500Y-92200000D01*
G75*
G02*
X131975000Y-92437500I0J-237500D01*
G01*
X131975000Y-92937500D01*
G75*
G02*
X131737500Y-93175000I-237500J0D01*
G01*
X131262500Y-93175000D01*
G75*
G02*
X131025000Y-92937500I0J237500D01*
G01*
X131025000Y-92437500D01*
G75*
G02*
X131262500Y-92200000I237500J0D01*
G01*
G37*
%TD*%
%TO.C,R7*%
G36*
G01*
X136225000Y-110637500D02*
X136225000Y-110162500D01*
G75*
G02*
X136462500Y-109925000I237500J0D01*
G01*
X136962500Y-109925000D01*
G75*
G02*
X137200000Y-110162500I0J-237500D01*
G01*
X137200000Y-110637500D01*
G75*
G02*
X136962500Y-110875000I-237500J0D01*
G01*
X136462500Y-110875000D01*
G75*
G02*
X136225000Y-110637500I0J237500D01*
G01*
G37*
G36*
G01*
X134400000Y-110637500D02*
X134400000Y-110162500D01*
G75*
G02*
X134637500Y-109925000I237500J0D01*
G01*
X135137500Y-109925000D01*
G75*
G02*
X135375000Y-110162500I0J-237500D01*
G01*
X135375000Y-110637500D01*
G75*
G02*
X135137500Y-110875000I-237500J0D01*
G01*
X134637500Y-110875000D01*
G75*
G02*
X134400000Y-110637500I0J237500D01*
G01*
G37*
%TD*%
%TO.C,R6*%
G36*
G01*
X131975000Y-110162500D02*
X131975000Y-110637500D01*
G75*
G02*
X131737500Y-110875000I-237500J0D01*
G01*
X131237500Y-110875000D01*
G75*
G02*
X131000000Y-110637500I0J237500D01*
G01*
X131000000Y-110162500D01*
G75*
G02*
X131237500Y-109925000I237500J0D01*
G01*
X131737500Y-109925000D01*
G75*
G02*
X131975000Y-110162500I0J-237500D01*
G01*
G37*
G36*
G01*
X133800000Y-110162500D02*
X133800000Y-110637500D01*
G75*
G02*
X133562500Y-110875000I-237500J0D01*
G01*
X133062500Y-110875000D01*
G75*
G02*
X132825000Y-110637500I0J237500D01*
G01*
X132825000Y-110162500D01*
G75*
G02*
X133062500Y-109925000I237500J0D01*
G01*
X133562500Y-109925000D01*
G75*
G02*
X133800000Y-110162500I0J-237500D01*
G01*
G37*
%TD*%
%TO.C,R5*%
G36*
G01*
X138012500Y-97425000D02*
X138487500Y-97425000D01*
G75*
G02*
X138725000Y-97662500I0J-237500D01*
G01*
X138725000Y-98162500D01*
G75*
G02*
X138487500Y-98400000I-237500J0D01*
G01*
X138012500Y-98400000D01*
G75*
G02*
X137775000Y-98162500I0J237500D01*
G01*
X137775000Y-97662500D01*
G75*
G02*
X138012500Y-97425000I237500J0D01*
G01*
G37*
G36*
G01*
X138012500Y-95600000D02*
X138487500Y-95600000D01*
G75*
G02*
X138725000Y-95837500I0J-237500D01*
G01*
X138725000Y-96337500D01*
G75*
G02*
X138487500Y-96575000I-237500J0D01*
G01*
X138012500Y-96575000D01*
G75*
G02*
X137775000Y-96337500I0J237500D01*
G01*
X137775000Y-95837500D01*
G75*
G02*
X138012500Y-95600000I237500J0D01*
G01*
G37*
%TD*%
%TO.C,R3*%
G36*
G01*
X139262500Y-89325000D02*
X139737500Y-89325000D01*
G75*
G02*
X139975000Y-89562500I0J-237500D01*
G01*
X139975000Y-90062500D01*
G75*
G02*
X139737500Y-90300000I-237500J0D01*
G01*
X139262500Y-90300000D01*
G75*
G02*
X139025000Y-90062500I0J237500D01*
G01*
X139025000Y-89562500D01*
G75*
G02*
X139262500Y-89325000I237500J0D01*
G01*
G37*
G36*
G01*
X139262500Y-87500000D02*
X139737500Y-87500000D01*
G75*
G02*
X139975000Y-87737500I0J-237500D01*
G01*
X139975000Y-88237500D01*
G75*
G02*
X139737500Y-88475000I-237500J0D01*
G01*
X139262500Y-88475000D01*
G75*
G02*
X139025000Y-88237500I0J237500D01*
G01*
X139025000Y-87737500D01*
G75*
G02*
X139262500Y-87500000I237500J0D01*
G01*
G37*
%TD*%
%TO.C,R2*%
G36*
G01*
X142175000Y-116562500D02*
X142175000Y-117037500D01*
G75*
G02*
X141937500Y-117275000I-237500J0D01*
G01*
X141437500Y-117275000D01*
G75*
G02*
X141200000Y-117037500I0J237500D01*
G01*
X141200000Y-116562500D01*
G75*
G02*
X141437500Y-116325000I237500J0D01*
G01*
X141937500Y-116325000D01*
G75*
G02*
X142175000Y-116562500I0J-237500D01*
G01*
G37*
G36*
G01*
X144000000Y-116562500D02*
X144000000Y-117037500D01*
G75*
G02*
X143762500Y-117275000I-237500J0D01*
G01*
X143262500Y-117275000D01*
G75*
G02*
X143025000Y-117037500I0J237500D01*
G01*
X143025000Y-116562500D01*
G75*
G02*
X143262500Y-116325000I237500J0D01*
G01*
X143762500Y-116325000D01*
G75*
G02*
X144000000Y-116562500I0J-237500D01*
G01*
G37*
%TD*%
%TO.C,R1*%
G36*
G01*
X132825000Y-117037500D02*
X132825000Y-116562500D01*
G75*
G02*
X133062500Y-116325000I237500J0D01*
G01*
X133562500Y-116325000D01*
G75*
G02*
X133800000Y-116562500I0J-237500D01*
G01*
X133800000Y-117037500D01*
G75*
G02*
X133562500Y-117275000I-237500J0D01*
G01*
X133062500Y-117275000D01*
G75*
G02*
X132825000Y-117037500I0J237500D01*
G01*
G37*
G36*
G01*
X131000000Y-117037500D02*
X131000000Y-116562500D01*
G75*
G02*
X131237500Y-116325000I237500J0D01*
G01*
X131737500Y-116325000D01*
G75*
G02*
X131975000Y-116562500I0J-237500D01*
G01*
X131975000Y-117037500D01*
G75*
G02*
X131737500Y-117275000I-237500J0D01*
G01*
X131237500Y-117275000D01*
G75*
G02*
X131000000Y-117037500I0J237500D01*
G01*
G37*
%TD*%
D25*
%TO.C,LED1*%
X141850000Y-118500000D03*
X143350000Y-118500000D03*
%TD*%
D26*
%TO.C,CR1*%
X140163300Y-82600000D03*
X143236700Y-82600000D03*
%TD*%
%TO.C,C16*%
G36*
G01*
X132425000Y-82037500D02*
X132425000Y-81562500D01*
G75*
G02*
X132662500Y-81325000I237500J0D01*
G01*
X133262500Y-81325000D01*
G75*
G02*
X133500000Y-81562500I0J-237500D01*
G01*
X133500000Y-82037500D01*
G75*
G02*
X133262500Y-82275000I-237500J0D01*
G01*
X132662500Y-82275000D01*
G75*
G02*
X132425000Y-82037500I0J237500D01*
G01*
G37*
G36*
G01*
X130700000Y-82037500D02*
X130700000Y-81562500D01*
G75*
G02*
X130937500Y-81325000I237500J0D01*
G01*
X131537500Y-81325000D01*
G75*
G02*
X131775000Y-81562500I0J-237500D01*
G01*
X131775000Y-82037500D01*
G75*
G02*
X131537500Y-82275000I-237500J0D01*
G01*
X130937500Y-82275000D01*
G75*
G02*
X130700000Y-82037500I0J237500D01*
G01*
G37*
%TD*%
%TO.C,C15*%
G36*
G01*
X138875000Y-116562500D02*
X138875000Y-117037500D01*
G75*
G02*
X138637500Y-117275000I-237500J0D01*
G01*
X138037500Y-117275000D01*
G75*
G02*
X137800000Y-117037500I0J237500D01*
G01*
X137800000Y-116562500D01*
G75*
G02*
X138037500Y-116325000I237500J0D01*
G01*
X138637500Y-116325000D01*
G75*
G02*
X138875000Y-116562500I0J-237500D01*
G01*
G37*
G36*
G01*
X140600000Y-116562500D02*
X140600000Y-117037500D01*
G75*
G02*
X140362500Y-117275000I-237500J0D01*
G01*
X139762500Y-117275000D01*
G75*
G02*
X139525000Y-117037500I0J237500D01*
G01*
X139525000Y-116562500D01*
G75*
G02*
X139762500Y-116325000I237500J0D01*
G01*
X140362500Y-116325000D01*
G75*
G02*
X140600000Y-116562500I0J-237500D01*
G01*
G37*
%TD*%
%TO.C,C14*%
G36*
G01*
X142075000Y-88562500D02*
X142075000Y-89037500D01*
G75*
G02*
X141837500Y-89275000I-237500J0D01*
G01*
X141237500Y-89275000D01*
G75*
G02*
X141000000Y-89037500I0J237500D01*
G01*
X141000000Y-88562500D01*
G75*
G02*
X141237500Y-88325000I237500J0D01*
G01*
X141837500Y-88325000D01*
G75*
G02*
X142075000Y-88562500I0J-237500D01*
G01*
G37*
G36*
G01*
X143800000Y-88562500D02*
X143800000Y-89037500D01*
G75*
G02*
X143562500Y-89275000I-237500J0D01*
G01*
X142962500Y-89275000D01*
G75*
G02*
X142725000Y-89037500I0J237500D01*
G01*
X142725000Y-88562500D01*
G75*
G02*
X142962500Y-88325000I237500J0D01*
G01*
X143562500Y-88325000D01*
G75*
G02*
X143800000Y-88562500I0J-237500D01*
G01*
G37*
%TD*%
%TO.C,C13*%
G36*
G01*
X136125000Y-117037500D02*
X136125000Y-116562500D01*
G75*
G02*
X136362500Y-116325000I237500J0D01*
G01*
X136962500Y-116325000D01*
G75*
G02*
X137200000Y-116562500I0J-237500D01*
G01*
X137200000Y-117037500D01*
G75*
G02*
X136962500Y-117275000I-237500J0D01*
G01*
X136362500Y-117275000D01*
G75*
G02*
X136125000Y-117037500I0J237500D01*
G01*
G37*
G36*
G01*
X134400000Y-117037500D02*
X134400000Y-116562500D01*
G75*
G02*
X134637500Y-116325000I237500J0D01*
G01*
X135237500Y-116325000D01*
G75*
G02*
X135475000Y-116562500I0J-237500D01*
G01*
X135475000Y-117037500D01*
G75*
G02*
X135237500Y-117275000I-237500J0D01*
G01*
X134637500Y-117275000D01*
G75*
G02*
X134400000Y-117037500I0J237500D01*
G01*
G37*
%TD*%
%TO.C,C12*%
G36*
G01*
X139987500Y-96675000D02*
X139512500Y-96675000D01*
G75*
G02*
X139275000Y-96437500I0J237500D01*
G01*
X139275000Y-95837500D01*
G75*
G02*
X139512500Y-95600000I237500J0D01*
G01*
X139987500Y-95600000D01*
G75*
G02*
X140225000Y-95837500I0J-237500D01*
G01*
X140225000Y-96437500D01*
G75*
G02*
X139987500Y-96675000I-237500J0D01*
G01*
G37*
G36*
G01*
X139987500Y-98400000D02*
X139512500Y-98400000D01*
G75*
G02*
X139275000Y-98162500I0J237500D01*
G01*
X139275000Y-97562500D01*
G75*
G02*
X139512500Y-97325000I237500J0D01*
G01*
X139987500Y-97325000D01*
G75*
G02*
X140225000Y-97562500I0J-237500D01*
G01*
X140225000Y-98162500D01*
G75*
G02*
X139987500Y-98400000I-237500J0D01*
G01*
G37*
%TD*%
%TO.C,C11*%
G36*
G01*
X142925000Y-110637500D02*
X142925000Y-110162500D01*
G75*
G02*
X143162500Y-109925000I237500J0D01*
G01*
X143762500Y-109925000D01*
G75*
G02*
X144000000Y-110162500I0J-237500D01*
G01*
X144000000Y-110637500D01*
G75*
G02*
X143762500Y-110875000I-237500J0D01*
G01*
X143162500Y-110875000D01*
G75*
G02*
X142925000Y-110637500I0J237500D01*
G01*
G37*
G36*
G01*
X141200000Y-110637500D02*
X141200000Y-110162500D01*
G75*
G02*
X141437500Y-109925000I237500J0D01*
G01*
X142037500Y-109925000D01*
G75*
G02*
X142275000Y-110162500I0J-237500D01*
G01*
X142275000Y-110637500D01*
G75*
G02*
X142037500Y-110875000I-237500J0D01*
G01*
X141437500Y-110875000D01*
G75*
G02*
X141200000Y-110637500I0J237500D01*
G01*
G37*
%TD*%
%TO.C,C10*%
G36*
G01*
X141487500Y-96675000D02*
X141012500Y-96675000D01*
G75*
G02*
X140775000Y-96437500I0J237500D01*
G01*
X140775000Y-95837500D01*
G75*
G02*
X141012500Y-95600000I237500J0D01*
G01*
X141487500Y-95600000D01*
G75*
G02*
X141725000Y-95837500I0J-237500D01*
G01*
X141725000Y-96437500D01*
G75*
G02*
X141487500Y-96675000I-237500J0D01*
G01*
G37*
G36*
G01*
X141487500Y-98400000D02*
X141012500Y-98400000D01*
G75*
G02*
X140775000Y-98162500I0J237500D01*
G01*
X140775000Y-97562500D01*
G75*
G02*
X141012500Y-97325000I237500J0D01*
G01*
X141487500Y-97325000D01*
G75*
G02*
X141725000Y-97562500I0J-237500D01*
G01*
X141725000Y-98162500D01*
G75*
G02*
X141487500Y-98400000I-237500J0D01*
G01*
G37*
%TD*%
%TO.C,C9*%
G36*
G01*
X133987500Y-96675000D02*
X133512500Y-96675000D01*
G75*
G02*
X133275000Y-96437500I0J237500D01*
G01*
X133275000Y-95837500D01*
G75*
G02*
X133512500Y-95600000I237500J0D01*
G01*
X133987500Y-95600000D01*
G75*
G02*
X134225000Y-95837500I0J-237500D01*
G01*
X134225000Y-96437500D01*
G75*
G02*
X133987500Y-96675000I-237500J0D01*
G01*
G37*
G36*
G01*
X133987500Y-98400000D02*
X133512500Y-98400000D01*
G75*
G02*
X133275000Y-98162500I0J237500D01*
G01*
X133275000Y-97562500D01*
G75*
G02*
X133512500Y-97325000I237500J0D01*
G01*
X133987500Y-97325000D01*
G75*
G02*
X134225000Y-97562500I0J-237500D01*
G01*
X134225000Y-98162500D01*
G75*
G02*
X133987500Y-98400000I-237500J0D01*
G01*
G37*
%TD*%
%TO.C,C8*%
G36*
G01*
X142762500Y-101525000D02*
X143237500Y-101525000D01*
G75*
G02*
X143475000Y-101762500I0J-237500D01*
G01*
X143475000Y-102362500D01*
G75*
G02*
X143237500Y-102600000I-237500J0D01*
G01*
X142762500Y-102600000D01*
G75*
G02*
X142525000Y-102362500I0J237500D01*
G01*
X142525000Y-101762500D01*
G75*
G02*
X142762500Y-101525000I237500J0D01*
G01*
G37*
G36*
G01*
X142762500Y-99800000D02*
X143237500Y-99800000D01*
G75*
G02*
X143475000Y-100037500I0J-237500D01*
G01*
X143475000Y-100637500D01*
G75*
G02*
X143237500Y-100875000I-237500J0D01*
G01*
X142762500Y-100875000D01*
G75*
G02*
X142525000Y-100637500I0J237500D01*
G01*
X142525000Y-100037500D01*
G75*
G02*
X142762500Y-99800000I237500J0D01*
G01*
G37*
%TD*%
%TO.C,C7*%
G36*
G01*
X142762500Y-104825000D02*
X143237500Y-104825000D01*
G75*
G02*
X143475000Y-105062500I0J-237500D01*
G01*
X143475000Y-105662500D01*
G75*
G02*
X143237500Y-105900000I-237500J0D01*
G01*
X142762500Y-105900000D01*
G75*
G02*
X142525000Y-105662500I0J237500D01*
G01*
X142525000Y-105062500D01*
G75*
G02*
X142762500Y-104825000I237500J0D01*
G01*
G37*
G36*
G01*
X142762500Y-103100000D02*
X143237500Y-103100000D01*
G75*
G02*
X143475000Y-103337500I0J-237500D01*
G01*
X143475000Y-103937500D01*
G75*
G02*
X143237500Y-104175000I-237500J0D01*
G01*
X142762500Y-104175000D01*
G75*
G02*
X142525000Y-103937500I0J237500D01*
G01*
X142525000Y-103337500D01*
G75*
G02*
X142762500Y-103100000I237500J0D01*
G01*
G37*
%TD*%
%TO.C,C6*%
G36*
G01*
X139737500Y-85212500D02*
X139262500Y-85212500D01*
G75*
G02*
X139025000Y-84975000I0J237500D01*
G01*
X139025000Y-84375000D01*
G75*
G02*
X139262500Y-84137500I237500J0D01*
G01*
X139737500Y-84137500D01*
G75*
G02*
X139975000Y-84375000I0J-237500D01*
G01*
X139975000Y-84975000D01*
G75*
G02*
X139737500Y-85212500I-237500J0D01*
G01*
G37*
G36*
G01*
X139737500Y-86937500D02*
X139262500Y-86937500D01*
G75*
G02*
X139025000Y-86700000I0J237500D01*
G01*
X139025000Y-86100000D01*
G75*
G02*
X139262500Y-85862500I237500J0D01*
G01*
X139737500Y-85862500D01*
G75*
G02*
X139975000Y-86100000I0J-237500D01*
G01*
X139975000Y-86700000D01*
G75*
G02*
X139737500Y-86937500I-237500J0D01*
G01*
G37*
%TD*%
%TO.C,C5*%
G36*
G01*
X142762500Y-108125000D02*
X143237500Y-108125000D01*
G75*
G02*
X143475000Y-108362500I0J-237500D01*
G01*
X143475000Y-108962500D01*
G75*
G02*
X143237500Y-109200000I-237500J0D01*
G01*
X142762500Y-109200000D01*
G75*
G02*
X142525000Y-108962500I0J237500D01*
G01*
X142525000Y-108362500D01*
G75*
G02*
X142762500Y-108125000I237500J0D01*
G01*
G37*
G36*
G01*
X142762500Y-106400000D02*
X143237500Y-106400000D01*
G75*
G02*
X143475000Y-106637500I0J-237500D01*
G01*
X143475000Y-107237500D01*
G75*
G02*
X143237500Y-107475000I-237500J0D01*
G01*
X142762500Y-107475000D01*
G75*
G02*
X142525000Y-107237500I0J237500D01*
G01*
X142525000Y-106637500D01*
G75*
G02*
X142762500Y-106400000I237500J0D01*
G01*
G37*
%TD*%
%TO.C,C4*%
G36*
G01*
X139525000Y-110637500D02*
X139525000Y-110162500D01*
G75*
G02*
X139762500Y-109925000I237500J0D01*
G01*
X140362500Y-109925000D01*
G75*
G02*
X140600000Y-110162500I0J-237500D01*
G01*
X140600000Y-110637500D01*
G75*
G02*
X140362500Y-110875000I-237500J0D01*
G01*
X139762500Y-110875000D01*
G75*
G02*
X139525000Y-110637500I0J237500D01*
G01*
G37*
G36*
G01*
X137800000Y-110637500D02*
X137800000Y-110162500D01*
G75*
G02*
X138037500Y-109925000I237500J0D01*
G01*
X138637500Y-109925000D01*
G75*
G02*
X138875000Y-110162500I0J-237500D01*
G01*
X138875000Y-110637500D01*
G75*
G02*
X138637500Y-110875000I-237500J0D01*
G01*
X138037500Y-110875000D01*
G75*
G02*
X137800000Y-110637500I0J237500D01*
G01*
G37*
%TD*%
%TO.C,C3*%
G36*
G01*
X131762500Y-106625000D02*
X132237500Y-106625000D01*
G75*
G02*
X132475000Y-106862500I0J-237500D01*
G01*
X132475000Y-107462500D01*
G75*
G02*
X132237500Y-107700000I-237500J0D01*
G01*
X131762500Y-107700000D01*
G75*
G02*
X131525000Y-107462500I0J237500D01*
G01*
X131525000Y-106862500D01*
G75*
G02*
X131762500Y-106625000I237500J0D01*
G01*
G37*
G36*
G01*
X131762500Y-104900000D02*
X132237500Y-104900000D01*
G75*
G02*
X132475000Y-105137500I0J-237500D01*
G01*
X132475000Y-105737500D01*
G75*
G02*
X132237500Y-105975000I-237500J0D01*
G01*
X131762500Y-105975000D01*
G75*
G02*
X131525000Y-105737500I0J237500D01*
G01*
X131525000Y-105137500D01*
G75*
G02*
X131762500Y-104900000I237500J0D01*
G01*
G37*
%TD*%
%TO.C,C2*%
G36*
G01*
X131762500Y-103025000D02*
X132237500Y-103025000D01*
G75*
G02*
X132475000Y-103262500I0J-237500D01*
G01*
X132475000Y-103862500D01*
G75*
G02*
X132237500Y-104100000I-237500J0D01*
G01*
X131762500Y-104100000D01*
G75*
G02*
X131525000Y-103862500I0J237500D01*
G01*
X131525000Y-103262500D01*
G75*
G02*
X131762500Y-103025000I237500J0D01*
G01*
G37*
G36*
G01*
X131762500Y-101300000D02*
X132237500Y-101300000D01*
G75*
G02*
X132475000Y-101537500I0J-237500D01*
G01*
X132475000Y-102137500D01*
G75*
G02*
X132237500Y-102375000I-237500J0D01*
G01*
X131762500Y-102375000D01*
G75*
G02*
X131525000Y-102137500I0J237500D01*
G01*
X131525000Y-101537500D01*
G75*
G02*
X131762500Y-101300000I237500J0D01*
G01*
G37*
%TD*%
%TO.C,C1*%
G36*
G01*
X135487500Y-96675000D02*
X135012500Y-96675000D01*
G75*
G02*
X134775000Y-96437500I0J237500D01*
G01*
X134775000Y-95837500D01*
G75*
G02*
X135012500Y-95600000I237500J0D01*
G01*
X135487500Y-95600000D01*
G75*
G02*
X135725000Y-95837500I0J-237500D01*
G01*
X135725000Y-96437500D01*
G75*
G02*
X135487500Y-96675000I-237500J0D01*
G01*
G37*
G36*
G01*
X135487500Y-98400000D02*
X135012500Y-98400000D01*
G75*
G02*
X134775000Y-98162500I0J237500D01*
G01*
X134775000Y-97562500D01*
G75*
G02*
X135012500Y-97325000I237500J0D01*
G01*
X135487500Y-97325000D01*
G75*
G02*
X135725000Y-97562500I0J-237500D01*
G01*
X135725000Y-98162500D01*
G75*
G02*
X135487500Y-98400000I-237500J0D01*
G01*
G37*
%TD*%
M02*
