M48
; DRILL file {KiCad (5.1.10)-1} date 05/16/21 15:19:39
; FORMAT={-:-/ absolute / inch / decimal}
; #@! TF.CreationDate,2021-05-16T15:19:39-05:00
; #@! TF.GenerationSoftware,Kicad,Pcbnew,(5.1.10)-1
; #@! TF.FileFunction,Plated,1,2,PTH
FMAT,2
INCH
T1C0.0100
T2C0.0394
T3C0.0472
%
G90
G05
T1
X5.122Y-5.0039
X5.1516Y-3.8327
X5.1776Y-3.5031
X5.1811Y-4.437
X5.1831Y-4.7323
X5.1949Y-3.4055
X5.1949Y-3.9626
X5.2028Y-3.4744
X5.2087Y-4.5531
X5.2205Y-3.8524
X5.2272Y-3.5063
X5.2362Y-4.0433
X5.2381Y-3.9615
X5.2402Y-4.1142
X5.241Y-4.0819
X5.2488Y-4.6469
X5.2496Y-4.2689
X5.2539Y-5.0984
X5.2559Y-4.813
X5.2722Y-3.4466
X5.2728Y-3.4039
X5.276Y-3.5169
X5.2795Y-4.3819
X5.2835Y-4.2441
X5.3138Y-4.0354
X5.3169Y-4.2128
X5.3264Y-3.4177
X5.341Y-4.0263
X5.3425Y-4.5433
X5.3508Y-4.1996
X5.3516Y-3.945
X5.3689Y-4.0325
X5.3701Y-3.2283
X5.374Y-4.1142
X5.374Y-4.1437
X5.3988Y-4.0278
X5.4Y-4.2094
X5.4134Y-4.1142
X5.4134Y-4.1437
X5.4134Y-4.6535
X5.4291Y-4.2008
X5.4449Y-4.5079
X5.4528Y-4.0846
X5.4528Y-4.1142
X5.4764Y-3.2795
X5.4803Y-4.1959
X5.4843Y-3.2106
X5.4921Y-3.6417
X5.4933Y-3.7283
X5.5084Y-4.1885
X5.5126Y-4.0157
X5.5129Y-4.1602
X5.5143Y-4.384
X5.5236Y-4.4213
X5.5374Y-4.6437
X5.5472Y-4.5531
X5.5512Y-3.6024
X5.5512Y-3.7008
X5.5591Y-4.5197
X5.565Y-3.3071
X5.5717Y-4.2937
X5.5728Y-5.0984
X5.5827Y-4.8228
X5.5906Y-3.9764
X5.5906Y-4.1339
X5.6299Y-3.1909
X5.6299Y-3.7992
X5.6299Y-3.8937
X5.65Y-4.5492
X5.6563Y-3.7283
X5.6673Y-3.313
X5.6713Y-3.5492
X5.6752Y-4.4331
X5.6772Y-4.5177
X5.6909Y-3.4764
X5.7047Y-3.1594
X5.7047Y-5.0039
T2
X5.0634Y-3.0461
X5.0634Y-3.1461
X5.0634Y-3.2461
X5.0634Y-3.3461
X5.0634Y-3.4461
X5.0634Y-3.5461
X5.0634Y-3.6461
X5.0634Y-3.7461
X5.0634Y-3.8461
X5.0634Y-3.9461
X5.0634Y-4.0461
X5.0634Y-4.1461
X5.0634Y-4.2461
X5.0634Y-4.3461
X5.0634Y-4.4461
X5.0634Y-4.5461
X5.0634Y-4.6461
X5.0634Y-4.7461
X5.0634Y-4.8461
X5.0634Y-4.9461
X5.3134Y-4.837
X5.3134Y-4.937
X5.3134Y-5.087
X5.3634Y-4.737
X5.4134Y-4.837
X5.4134Y-4.937
X5.4134Y-5.087
X5.4634Y-4.737
X5.5134Y-4.837
X5.5134Y-4.937
X5.5134Y-5.087
X5.7634Y-3.0461
X5.7634Y-3.1461
X5.7634Y-3.2461
X5.7634Y-3.3461
X5.7634Y-3.4461
X5.7634Y-3.5461
X5.7634Y-3.6461
X5.7634Y-3.7461
X5.7634Y-3.8461
X5.7634Y-3.9461
X5.7634Y-4.0461
X5.7634Y-4.1461
X5.7634Y-4.2461
X5.7634Y-4.3461
X5.7634Y-4.4461
X5.7634Y-4.5461
X5.7634Y-4.6461
X5.7634Y-4.7461
X5.7634Y-4.8461
X5.7634Y-4.9461
T3
X5.2835Y-3.0472
X5.5433Y-3.0472
T0
M30
