%TF.GenerationSoftware,KiCad,Pcbnew,(5.1.10)-1*%
%TF.CreationDate,2021-05-16T15:19:33-05:00*%
%TF.ProjectId,rpi-pico-debugger-shoe,7270692d-7069-4636-9f2d-646562756767,v01*%
%TF.SameCoordinates,Original*%
%TF.FileFunction,Legend,Bot*%
%TF.FilePolarity,Positive*%
%FSLAX46Y46*%
G04 Gerber Fmt 4.6, Leading zero omitted, Abs format (unit mm)*
G04 Created by KiCad (PCBNEW (5.1.10)-1) date 2021-05-16 15:19:33*
%MOMM*%
%LPD*%
G01*
G04 APERTURE LIST*
%ADD10C,0.300000*%
%ADD11C,0.150000*%
%ADD12C,0.120000*%
%ADD13R,1.700000X1.700000*%
%ADD14O,1.700000X1.700000*%
%ADD15C,1.800000*%
%ADD16C,2.100000*%
%ADD17C,0.100000*%
G04 APERTURE END LIST*
D10*
X138245238Y-106857142D02*
X139197619Y-107523809D01*
X138245238Y-108000000D02*
X140245238Y-108000000D01*
X140245238Y-107238095D01*
X140150000Y-107047619D01*
X140054761Y-106952380D01*
X139864285Y-106857142D01*
X139578571Y-106857142D01*
X139388095Y-106952380D01*
X139292857Y-107047619D01*
X139197619Y-107238095D01*
X139197619Y-108000000D01*
X138245238Y-106000000D02*
X140245238Y-106000000D01*
X140245238Y-105238095D01*
X140150000Y-105047619D01*
X140054761Y-104952380D01*
X139864285Y-104857142D01*
X139578571Y-104857142D01*
X139388095Y-104952380D01*
X139292857Y-105047619D01*
X139197619Y-105238095D01*
X139197619Y-106000000D01*
X138245238Y-104000000D02*
X139578571Y-104000000D01*
X140245238Y-104000000D02*
X140150000Y-104095238D01*
X140054761Y-104000000D01*
X140150000Y-103904761D01*
X140245238Y-104000000D01*
X140054761Y-104000000D01*
X138245238Y-101523809D02*
X140245238Y-101523809D01*
X140245238Y-100761904D01*
X140150000Y-100571428D01*
X140054761Y-100476190D01*
X139864285Y-100380952D01*
X139578571Y-100380952D01*
X139388095Y-100476190D01*
X139292857Y-100571428D01*
X139197619Y-100761904D01*
X139197619Y-101523809D01*
X138245238Y-99523809D02*
X139578571Y-99523809D01*
X140245238Y-99523809D02*
X140150000Y-99619047D01*
X140054761Y-99523809D01*
X140150000Y-99428571D01*
X140245238Y-99523809D01*
X140054761Y-99523809D01*
X138340476Y-97714285D02*
X138245238Y-97904761D01*
X138245238Y-98285714D01*
X138340476Y-98476190D01*
X138435714Y-98571428D01*
X138626190Y-98666666D01*
X139197619Y-98666666D01*
X139388095Y-98571428D01*
X139483333Y-98476190D01*
X139578571Y-98285714D01*
X139578571Y-97904761D01*
X139483333Y-97714285D01*
X138245238Y-96571428D02*
X138340476Y-96761904D01*
X138435714Y-96857142D01*
X138626190Y-96952380D01*
X139197619Y-96952380D01*
X139388095Y-96857142D01*
X139483333Y-96761904D01*
X139578571Y-96571428D01*
X139578571Y-96285714D01*
X139483333Y-96095238D01*
X139388095Y-96000000D01*
X139197619Y-95904761D01*
X138626190Y-95904761D01*
X138435714Y-96000000D01*
X138340476Y-96095238D01*
X138245238Y-96285714D01*
X138245238Y-96571428D01*
X134945238Y-112857142D02*
X136945238Y-112857142D01*
X136945238Y-112380952D01*
X136850000Y-112095238D01*
X136659523Y-111904761D01*
X136469047Y-111809523D01*
X136088095Y-111714285D01*
X135802380Y-111714285D01*
X135421428Y-111809523D01*
X135230952Y-111904761D01*
X135040476Y-112095238D01*
X134945238Y-112380952D01*
X134945238Y-112857142D01*
X135040476Y-110095238D02*
X134945238Y-110285714D01*
X134945238Y-110666666D01*
X135040476Y-110857142D01*
X135230952Y-110952380D01*
X135992857Y-110952380D01*
X136183333Y-110857142D01*
X136278571Y-110666666D01*
X136278571Y-110285714D01*
X136183333Y-110095238D01*
X135992857Y-110000000D01*
X135802380Y-110000000D01*
X135611904Y-110952380D01*
X134945238Y-109142857D02*
X136945238Y-109142857D01*
X136183333Y-109142857D02*
X136278571Y-108952380D01*
X136278571Y-108571428D01*
X136183333Y-108380952D01*
X136088095Y-108285714D01*
X135897619Y-108190476D01*
X135326190Y-108190476D01*
X135135714Y-108285714D01*
X135040476Y-108380952D01*
X134945238Y-108571428D01*
X134945238Y-108952380D01*
X135040476Y-109142857D01*
X136278571Y-106476190D02*
X134945238Y-106476190D01*
X136278571Y-107333333D02*
X135230952Y-107333333D01*
X135040476Y-107238095D01*
X134945238Y-107047619D01*
X134945238Y-106761904D01*
X135040476Y-106571428D01*
X135135714Y-106476190D01*
X136278571Y-104666666D02*
X134659523Y-104666666D01*
X134469047Y-104761904D01*
X134373809Y-104857142D01*
X134278571Y-105047619D01*
X134278571Y-105333333D01*
X134373809Y-105523809D01*
X135040476Y-104666666D02*
X134945238Y-104857142D01*
X134945238Y-105238095D01*
X135040476Y-105428571D01*
X135135714Y-105523809D01*
X135326190Y-105619047D01*
X135897619Y-105619047D01*
X136088095Y-105523809D01*
X136183333Y-105428571D01*
X136278571Y-105238095D01*
X136278571Y-104857142D01*
X136183333Y-104666666D01*
X136278571Y-102857142D02*
X134659523Y-102857142D01*
X134469047Y-102952380D01*
X134373809Y-103047619D01*
X134278571Y-103238095D01*
X134278571Y-103523809D01*
X134373809Y-103714285D01*
X135040476Y-102857142D02*
X134945238Y-103047619D01*
X134945238Y-103428571D01*
X135040476Y-103619047D01*
X135135714Y-103714285D01*
X135326190Y-103809523D01*
X135897619Y-103809523D01*
X136088095Y-103714285D01*
X136183333Y-103619047D01*
X136278571Y-103428571D01*
X136278571Y-103047619D01*
X136183333Y-102857142D01*
X135040476Y-101142857D02*
X134945238Y-101333333D01*
X134945238Y-101714285D01*
X135040476Y-101904761D01*
X135230952Y-102000000D01*
X135992857Y-102000000D01*
X136183333Y-101904761D01*
X136278571Y-101714285D01*
X136278571Y-101333333D01*
X136183333Y-101142857D01*
X135992857Y-101047619D01*
X135802380Y-101047619D01*
X135611904Y-102000000D01*
X134945238Y-100190476D02*
X136278571Y-100190476D01*
X135897619Y-100190476D02*
X136088095Y-100095238D01*
X136183333Y-100000000D01*
X136278571Y-99809523D01*
X136278571Y-99619047D01*
X135040476Y-97523809D02*
X134945238Y-97238095D01*
X134945238Y-96761904D01*
X135040476Y-96571428D01*
X135135714Y-96476190D01*
X135326190Y-96380952D01*
X135516666Y-96380952D01*
X135707142Y-96476190D01*
X135802380Y-96571428D01*
X135897619Y-96761904D01*
X135992857Y-97142857D01*
X136088095Y-97333333D01*
X136183333Y-97428571D01*
X136373809Y-97523809D01*
X136564285Y-97523809D01*
X136754761Y-97428571D01*
X136850000Y-97333333D01*
X136945238Y-97142857D01*
X136945238Y-96666666D01*
X136850000Y-96380952D01*
X134945238Y-95523809D02*
X136945238Y-95523809D01*
X134945238Y-94666666D02*
X135992857Y-94666666D01*
X136183333Y-94761904D01*
X136278571Y-94952380D01*
X136278571Y-95238095D01*
X136183333Y-95428571D01*
X136088095Y-95523809D01*
X134945238Y-93428571D02*
X135040476Y-93619047D01*
X135135714Y-93714285D01*
X135326190Y-93809523D01*
X135897619Y-93809523D01*
X136088095Y-93714285D01*
X136183333Y-93619047D01*
X136278571Y-93428571D01*
X136278571Y-93142857D01*
X136183333Y-92952380D01*
X136088095Y-92857142D01*
X135897619Y-92761904D01*
X135326190Y-92761904D01*
X135135714Y-92857142D01*
X135040476Y-92952380D01*
X134945238Y-93142857D01*
X134945238Y-93428571D01*
X135040476Y-91142857D02*
X134945238Y-91333333D01*
X134945238Y-91714285D01*
X135040476Y-91904761D01*
X135230952Y-92000000D01*
X135992857Y-92000000D01*
X136183333Y-91904761D01*
X136278571Y-91714285D01*
X136278571Y-91333333D01*
X136183333Y-91142857D01*
X135992857Y-91047619D01*
X135802380Y-91047619D01*
X135611904Y-92000000D01*
D11*
X143714285Y-80252380D02*
X143380952Y-81252380D01*
X143047619Y-80252380D01*
X142761904Y-81204761D02*
X142619047Y-81252380D01*
X142380952Y-81252380D01*
X142285714Y-81204761D01*
X142238095Y-81157142D01*
X142190476Y-81061904D01*
X142190476Y-80966666D01*
X142238095Y-80871428D01*
X142285714Y-80823809D01*
X142380952Y-80776190D01*
X142571428Y-80728571D01*
X142666666Y-80680952D01*
X142714285Y-80633333D01*
X142761904Y-80538095D01*
X142761904Y-80442857D01*
X142714285Y-80347619D01*
X142666666Y-80300000D01*
X142571428Y-80252380D01*
X142333333Y-80252380D01*
X142190476Y-80300000D01*
X141571428Y-80776190D02*
X141571428Y-81252380D01*
X141904761Y-80252380D02*
X141571428Y-80776190D01*
X141238095Y-80252380D01*
X140952380Y-81204761D02*
X140809523Y-81252380D01*
X140571428Y-81252380D01*
X140476190Y-81204761D01*
X140428571Y-81157142D01*
X140380952Y-81061904D01*
X140380952Y-80966666D01*
X140428571Y-80871428D01*
X140476190Y-80823809D01*
X140571428Y-80776190D01*
X140761904Y-80728571D01*
X140857142Y-80680952D01*
X140904761Y-80633333D01*
X140952380Y-80538095D01*
X140952380Y-80442857D01*
X140904761Y-80347619D01*
X140857142Y-80300000D01*
X140761904Y-80252380D01*
X140523809Y-80252380D01*
X140380952Y-80300000D01*
X139700357Y-82952380D02*
X139128928Y-82952380D01*
X139414642Y-83952380D02*
X139414642Y-82952380D01*
X138271785Y-83000000D02*
X138367023Y-82952380D01*
X138509880Y-82952380D01*
X138652738Y-83000000D01*
X138747976Y-83095238D01*
X138795595Y-83190476D01*
X138843214Y-83380952D01*
X138843214Y-83523809D01*
X138795595Y-83714285D01*
X138747976Y-83809523D01*
X138652738Y-83904761D01*
X138509880Y-83952380D01*
X138414642Y-83952380D01*
X138271785Y-83904761D01*
X138224166Y-83857142D01*
X138224166Y-83523809D01*
X138414642Y-83523809D01*
X137938452Y-82952380D02*
X137367023Y-82952380D01*
X137652738Y-83952380D02*
X137652738Y-82952380D01*
X137271785Y-84047619D02*
X136509880Y-84047619D01*
X135700357Y-83952380D02*
X136033690Y-83476190D01*
X136271785Y-83952380D02*
X136271785Y-82952380D01*
X135890833Y-82952380D01*
X135795595Y-83000000D01*
X135747976Y-83047619D01*
X135700357Y-83142857D01*
X135700357Y-83285714D01*
X135747976Y-83380952D01*
X135795595Y-83428571D01*
X135890833Y-83476190D01*
X136271785Y-83476190D01*
X135367023Y-82952380D02*
X134700357Y-83952380D01*
X134700357Y-82952380D02*
X135367023Y-83952380D01*
X139462261Y-80452380D02*
X138890833Y-80452380D01*
X139176547Y-81452380D02*
X139176547Y-80452380D01*
X138033690Y-80500000D02*
X138128928Y-80452380D01*
X138271785Y-80452380D01*
X138414642Y-80500000D01*
X138509880Y-80595238D01*
X138557500Y-80690476D01*
X138605119Y-80880952D01*
X138605119Y-81023809D01*
X138557500Y-81214285D01*
X138509880Y-81309523D01*
X138414642Y-81404761D01*
X138271785Y-81452380D01*
X138176547Y-81452380D01*
X138033690Y-81404761D01*
X137986071Y-81357142D01*
X137986071Y-81023809D01*
X138176547Y-81023809D01*
X137700357Y-80452380D02*
X137128928Y-80452380D01*
X137414642Y-81452380D02*
X137414642Y-80452380D01*
X137033690Y-81547619D02*
X136271785Y-81547619D01*
X136176547Y-80452380D02*
X135605119Y-80452380D01*
X135890833Y-81452380D02*
X135890833Y-80452380D01*
X135367023Y-80452380D02*
X134700357Y-81452380D01*
X134700357Y-80452380D02*
X135367023Y-81452380D01*
D12*
%TO.C,JP3*%
X143400000Y-82200000D02*
G75*
G03*
X142700000Y-81500000I-700000J0D01*
G01*
X142700000Y-83500000D02*
G75*
G03*
X143400000Y-82800000I0J700000D01*
G01*
X140600000Y-82800000D02*
G75*
G03*
X141300000Y-83500000I700000J0D01*
G01*
X141300000Y-81500000D02*
G75*
G03*
X140600000Y-82200000I0J-700000D01*
G01*
X143400000Y-82800000D02*
X143400000Y-82200000D01*
X141300000Y-83500000D02*
X142700000Y-83500000D01*
X140600000Y-82200000D02*
X140600000Y-82800000D01*
X142700000Y-81500000D02*
X141300000Y-81500000D01*
%TO.C,JP2*%
X134400000Y-83200000D02*
G75*
G03*
X133700000Y-82500000I-700000J0D01*
G01*
X133700000Y-84500000D02*
G75*
G03*
X134400000Y-83800000I0J700000D01*
G01*
X131600000Y-83800000D02*
G75*
G03*
X132300000Y-84500000I700000J0D01*
G01*
X132300000Y-82500000D02*
G75*
G03*
X131600000Y-83200000I0J-700000D01*
G01*
X134400000Y-83800000D02*
X134400000Y-83200000D01*
X132300000Y-84500000D02*
X133700000Y-84500000D01*
X131600000Y-83200000D02*
X131600000Y-83800000D01*
X133700000Y-82500000D02*
X132300000Y-82500000D01*
%TO.C,JP1*%
X134400000Y-80700000D02*
G75*
G03*
X133700000Y-80000000I-700000J0D01*
G01*
X133700000Y-82000000D02*
G75*
G03*
X134400000Y-81300000I0J700000D01*
G01*
X131600000Y-81300000D02*
G75*
G03*
X132300000Y-82000000I700000J0D01*
G01*
X132300000Y-80000000D02*
G75*
G03*
X131600000Y-80700000I0J-700000D01*
G01*
X134400000Y-81300000D02*
X134400000Y-80700000D01*
X132300000Y-82000000D02*
X133700000Y-82000000D01*
X131600000Y-80700000D02*
X131600000Y-81300000D01*
X133700000Y-80000000D02*
X132300000Y-80000000D01*
%TD*%
%LPC*%
D13*
%TO.C,J8*%
X128610000Y-77370000D03*
D14*
X128610000Y-79910000D03*
%TD*%
D13*
%TO.C,J7*%
X134960000Y-129210000D03*
D14*
X137500000Y-129210000D03*
X140040000Y-129210000D03*
%TD*%
D13*
%TO.C,J6*%
X134960000Y-125400000D03*
D14*
X137500000Y-125400000D03*
X140040000Y-125400000D03*
%TD*%
D13*
%TO.C,J5*%
X146390000Y-77370000D03*
D14*
X146390000Y-79910000D03*
X146390000Y-82450000D03*
X146390000Y-84990000D03*
X146390000Y-87530000D03*
X146390000Y-90070000D03*
X146390000Y-92610000D03*
X146390000Y-95150000D03*
X146390000Y-97690000D03*
X146390000Y-100230000D03*
X146390000Y-102770000D03*
X146390000Y-105310000D03*
X146390000Y-107850000D03*
X146390000Y-110390000D03*
X146390000Y-112930000D03*
X146390000Y-115470000D03*
X146390000Y-118010000D03*
X146390000Y-120550000D03*
X146390000Y-123090000D03*
X146390000Y-125630000D03*
%TD*%
D13*
%TO.C,J4*%
X128610000Y-82450000D03*
D14*
X128610000Y-84990000D03*
X128610000Y-87530000D03*
X128610000Y-90070000D03*
X128610000Y-92610000D03*
X128610000Y-95150000D03*
X128610000Y-97690000D03*
X128610000Y-100230000D03*
X128610000Y-102770000D03*
X128610000Y-105310000D03*
X128610000Y-107850000D03*
X128610000Y-110390000D03*
X128610000Y-112930000D03*
X128610000Y-115470000D03*
X128610000Y-118010000D03*
X128610000Y-120550000D03*
X128610000Y-123090000D03*
X128610000Y-125630000D03*
%TD*%
D13*
%TO.C,J3*%
X134960000Y-122860000D03*
D14*
X137500000Y-122860000D03*
X140040000Y-122860000D03*
%TD*%
D13*
%TO.C,J2*%
X136230000Y-120320000D03*
D14*
X138770000Y-120320000D03*
%TD*%
D15*
%TO.C,J1*%
X140800000Y-77400000D03*
X134200000Y-77400000D03*
%TD*%
D16*
%TO.C,H1*%
X131800000Y-78000000D03*
%TD*%
%TO.C,H4*%
X143200000Y-125000000D03*
%TD*%
%TO.C,H3*%
X131800000Y-125000000D03*
%TD*%
%TO.C,H2*%
X143200000Y-78000000D03*
%TD*%
D17*
%TO.C,JP3*%
G36*
X142150000Y-81750000D02*
G01*
X142650000Y-81750000D01*
X142650000Y-81750602D01*
X142674534Y-81750602D01*
X142723365Y-81755412D01*
X142771490Y-81764984D01*
X142818445Y-81779228D01*
X142863778Y-81798005D01*
X142907051Y-81821136D01*
X142947850Y-81848396D01*
X142985779Y-81879524D01*
X143020476Y-81914221D01*
X143051604Y-81952150D01*
X143078864Y-81992949D01*
X143101995Y-82036222D01*
X143120772Y-82081555D01*
X143135016Y-82128510D01*
X143144588Y-82176635D01*
X143149398Y-82225466D01*
X143149398Y-82250000D01*
X143150000Y-82250000D01*
X143150000Y-82750000D01*
X143149398Y-82750000D01*
X143149398Y-82774534D01*
X143144588Y-82823365D01*
X143135016Y-82871490D01*
X143120772Y-82918445D01*
X143101995Y-82963778D01*
X143078864Y-83007051D01*
X143051604Y-83047850D01*
X143020476Y-83085779D01*
X142985779Y-83120476D01*
X142947850Y-83151604D01*
X142907051Y-83178864D01*
X142863778Y-83201995D01*
X142818445Y-83220772D01*
X142771490Y-83235016D01*
X142723365Y-83244588D01*
X142674534Y-83249398D01*
X142650000Y-83249398D01*
X142650000Y-83250000D01*
X142150000Y-83250000D01*
X142150000Y-81750000D01*
G37*
G36*
X141350000Y-83249398D02*
G01*
X141325466Y-83249398D01*
X141276635Y-83244588D01*
X141228510Y-83235016D01*
X141181555Y-83220772D01*
X141136222Y-83201995D01*
X141092949Y-83178864D01*
X141052150Y-83151604D01*
X141014221Y-83120476D01*
X140979524Y-83085779D01*
X140948396Y-83047850D01*
X140921136Y-83007051D01*
X140898005Y-82963778D01*
X140879228Y-82918445D01*
X140864984Y-82871490D01*
X140855412Y-82823365D01*
X140850602Y-82774534D01*
X140850602Y-82750000D01*
X140850000Y-82750000D01*
X140850000Y-82250000D01*
X140850602Y-82250000D01*
X140850602Y-82225466D01*
X140855412Y-82176635D01*
X140864984Y-82128510D01*
X140879228Y-82081555D01*
X140898005Y-82036222D01*
X140921136Y-81992949D01*
X140948396Y-81952150D01*
X140979524Y-81914221D01*
X141014221Y-81879524D01*
X141052150Y-81848396D01*
X141092949Y-81821136D01*
X141136222Y-81798005D01*
X141181555Y-81779228D01*
X141228510Y-81764984D01*
X141276635Y-81755412D01*
X141325466Y-81750602D01*
X141350000Y-81750602D01*
X141350000Y-81750000D01*
X141850000Y-81750000D01*
X141850000Y-83250000D01*
X141350000Y-83250000D01*
X141350000Y-83249398D01*
G37*
%TD*%
%TO.C,JP2*%
G36*
X133150000Y-82750000D02*
G01*
X133650000Y-82750000D01*
X133650000Y-82750602D01*
X133674534Y-82750602D01*
X133723365Y-82755412D01*
X133771490Y-82764984D01*
X133818445Y-82779228D01*
X133863778Y-82798005D01*
X133907051Y-82821136D01*
X133947850Y-82848396D01*
X133985779Y-82879524D01*
X134020476Y-82914221D01*
X134051604Y-82952150D01*
X134078864Y-82992949D01*
X134101995Y-83036222D01*
X134120772Y-83081555D01*
X134135016Y-83128510D01*
X134144588Y-83176635D01*
X134149398Y-83225466D01*
X134149398Y-83250000D01*
X134150000Y-83250000D01*
X134150000Y-83750000D01*
X134149398Y-83750000D01*
X134149398Y-83774534D01*
X134144588Y-83823365D01*
X134135016Y-83871490D01*
X134120772Y-83918445D01*
X134101995Y-83963778D01*
X134078864Y-84007051D01*
X134051604Y-84047850D01*
X134020476Y-84085779D01*
X133985779Y-84120476D01*
X133947850Y-84151604D01*
X133907051Y-84178864D01*
X133863778Y-84201995D01*
X133818445Y-84220772D01*
X133771490Y-84235016D01*
X133723365Y-84244588D01*
X133674534Y-84249398D01*
X133650000Y-84249398D01*
X133650000Y-84250000D01*
X133150000Y-84250000D01*
X133150000Y-82750000D01*
G37*
G36*
X132350000Y-84249398D02*
G01*
X132325466Y-84249398D01*
X132276635Y-84244588D01*
X132228510Y-84235016D01*
X132181555Y-84220772D01*
X132136222Y-84201995D01*
X132092949Y-84178864D01*
X132052150Y-84151604D01*
X132014221Y-84120476D01*
X131979524Y-84085779D01*
X131948396Y-84047850D01*
X131921136Y-84007051D01*
X131898005Y-83963778D01*
X131879228Y-83918445D01*
X131864984Y-83871490D01*
X131855412Y-83823365D01*
X131850602Y-83774534D01*
X131850602Y-83750000D01*
X131850000Y-83750000D01*
X131850000Y-83250000D01*
X131850602Y-83250000D01*
X131850602Y-83225466D01*
X131855412Y-83176635D01*
X131864984Y-83128510D01*
X131879228Y-83081555D01*
X131898005Y-83036222D01*
X131921136Y-82992949D01*
X131948396Y-82952150D01*
X131979524Y-82914221D01*
X132014221Y-82879524D01*
X132052150Y-82848396D01*
X132092949Y-82821136D01*
X132136222Y-82798005D01*
X132181555Y-82779228D01*
X132228510Y-82764984D01*
X132276635Y-82755412D01*
X132325466Y-82750602D01*
X132350000Y-82750602D01*
X132350000Y-82750000D01*
X132850000Y-82750000D01*
X132850000Y-84250000D01*
X132350000Y-84250000D01*
X132350000Y-84249398D01*
G37*
%TD*%
%TO.C,JP1*%
G36*
X133150000Y-80250000D02*
G01*
X133650000Y-80250000D01*
X133650000Y-80250602D01*
X133674534Y-80250602D01*
X133723365Y-80255412D01*
X133771490Y-80264984D01*
X133818445Y-80279228D01*
X133863778Y-80298005D01*
X133907051Y-80321136D01*
X133947850Y-80348396D01*
X133985779Y-80379524D01*
X134020476Y-80414221D01*
X134051604Y-80452150D01*
X134078864Y-80492949D01*
X134101995Y-80536222D01*
X134120772Y-80581555D01*
X134135016Y-80628510D01*
X134144588Y-80676635D01*
X134149398Y-80725466D01*
X134149398Y-80750000D01*
X134150000Y-80750000D01*
X134150000Y-81250000D01*
X134149398Y-81250000D01*
X134149398Y-81274534D01*
X134144588Y-81323365D01*
X134135016Y-81371490D01*
X134120772Y-81418445D01*
X134101995Y-81463778D01*
X134078864Y-81507051D01*
X134051604Y-81547850D01*
X134020476Y-81585779D01*
X133985779Y-81620476D01*
X133947850Y-81651604D01*
X133907051Y-81678864D01*
X133863778Y-81701995D01*
X133818445Y-81720772D01*
X133771490Y-81735016D01*
X133723365Y-81744588D01*
X133674534Y-81749398D01*
X133650000Y-81749398D01*
X133650000Y-81750000D01*
X133150000Y-81750000D01*
X133150000Y-80250000D01*
G37*
G36*
X132350000Y-81749398D02*
G01*
X132325466Y-81749398D01*
X132276635Y-81744588D01*
X132228510Y-81735016D01*
X132181555Y-81720772D01*
X132136222Y-81701995D01*
X132092949Y-81678864D01*
X132052150Y-81651604D01*
X132014221Y-81620476D01*
X131979524Y-81585779D01*
X131948396Y-81547850D01*
X131921136Y-81507051D01*
X131898005Y-81463778D01*
X131879228Y-81418445D01*
X131864984Y-81371490D01*
X131855412Y-81323365D01*
X131850602Y-81274534D01*
X131850602Y-81250000D01*
X131850000Y-81250000D01*
X131850000Y-80750000D01*
X131850602Y-80750000D01*
X131850602Y-80725466D01*
X131855412Y-80676635D01*
X131864984Y-80628510D01*
X131879228Y-80581555D01*
X131898005Y-80536222D01*
X131921136Y-80492949D01*
X131948396Y-80452150D01*
X131979524Y-80414221D01*
X132014221Y-80379524D01*
X132052150Y-80348396D01*
X132092949Y-80321136D01*
X132136222Y-80298005D01*
X132181555Y-80279228D01*
X132228510Y-80264984D01*
X132276635Y-80255412D01*
X132325466Y-80250602D01*
X132350000Y-80250602D01*
X132350000Y-80250000D01*
X132850000Y-80250000D01*
X132850000Y-81750000D01*
X132350000Y-81750000D01*
X132350000Y-81749398D01*
G37*
%TD*%
M02*
